/* XPM */
static char *ab9935b7609e42aad3a157cacba57cd9PVWkmqdEf1Ao8m67[] = {
/* columns rows colors chars-per-pixel */
"8 8 19 1 ",
"  c #5B1515",
". c #5C1616",
"X c #5D1717",
"o c #681819",
"O c #69191A",
"+ c #6A1A1B",
"@ c #751D1C",
"# c #761E1D",
"$ c #811F1E",
"% c #82201F",
"& c #8E2222",
"* c #8F2323",
"= c #902424",
"- c #9B2525",
"; c #9C2626",
": c #A82827",
"> c #A92928",
", c #B52B2B",
"< c #B62C2C",
/* pixels */
"<<<<<,<,",
":>>>>>>:",
"-;;;;;-;",
"****=***",
"$%%$%$%%",
"@@@@@@@@",
"OOOOOOOO",
"  X XXXX"
};
