/* XPM */
static char *_aac33cbaeb24367e7f605b07869c9e4AMb5YBwnwhkVYduY[] = {
/* columns rows colors chars-per-pixel */
"64 64 236 2 ",
"   c #0B3717",
".  c #0D4919",
"X  c #114D1B",
"o  c #17491C",
"O  c #12541D",
"+  c #135B1E",
"@  c #0F551B",
"#  c #335E1D",
"$  c #2E4F18",
"%  c #187B18",
"&  c #146914",
"*  c #39631E",
"=  c #144924",
"-  c #045C2C",
";  c #095828",
":  c #125C22",
">  c #1A5621",
",  c #035334",
"<  c #025D39",
"1  c #075837",
"2  c #0E4C23",
"3  c #235D26",
"4  c #275D33",
"5  c #06682E",
"6  c #176626",
"7  c #137325",
"8  c #16772A",
"9  c #056436",
"0  c #137233",
"q  c #25652B",
"w  c #25662A",
"e  c #386422",
"r  c #2A6737",
"t  c #2D7134",
"y  c #53741B",
"u  c #5A7A1E",
"i  c #4F731C",
"p  c #477A24",
"a  c #0F6D44",
"s  c #357A4C",
"d  c #2F7147",
"f  c #1A851B",
"g  c #0F9916",
"h  c #229F1D",
"j  c #04A113",
"k  c #19A71C",
"l  c #19B71C",
"z  c #0FBC15",
"x  c #22A41D",
"c  c #178728",
"v  c #1A9622",
"b  c #148A34",
"n  c #168535",
"m  c #089A38",
"M  c #149236",
"N  c #0E8D26",
"B  c #29982D",
"V  c #319035",
"C  c #06A523",
"Z  c #19A82B",
"A  c #1FB724",
"S  c #1AAD39",
"D  c #06B93D",
"F  c #1CB939",
"G  c #06A935",
"H  c #24A627",
"J  c #26B929",
"K  c #26A53A",
"L  c #26B63A",
"P  c #35AE36",
"I  c #5E831E",
"U  c #638A1F",
"Y  c #63861E",
"T  c #65911E",
"R  c #588E29",
"E  c #668922",
"W  c #6D9623",
"Q  c #6F9C25",
"!  c #739B24",
"~  c #739522",
"^  c #7BA426",
"/  c #7AA827",
"(  c #7DB42B",
")  c #7EBC2D",
"_  c #7AB72A",
"`  c #6BA835",
"'  c #76AC35",
"]  c #7FBD31",
"[  c #7BB335",
"{  c #07C619",
"}  c #05D618",
"|  c #04EB1B",
" . c #1BC824",
".. c #08DA28",
"X. c #06C93B",
"o. c #1CC637",
"O. c #08D838",
"+. c #19D33A",
"@. c #10D225",
"#. c #22C727",
"$. c #22D32A",
"%. c #26DA29",
"&. c #23C737",
"*. c #22DD34",
"=. c #07EF30",
"-. c #2BE838",
";. c #33EA30",
":. c #37EF37",
">. c #118C42",
",. c #0E984B",
"<. c #319149",
"1. c #09A756",
"2. c #14B452",
"3. c #28A844",
"4. c #29B349",
"5. c #16B966",
"6. c #0FBB6D",
"7. c #12976A",
"8. c #419F49",
"9. c #41A64A",
"0. c #6CA677",
"q. c #71A77E",
"w. c #64A168",
"e. c #669768",
"r. c #06DA43",
"t. c #11CC4D",
"y. c #28D659",
"u. c #2ACD4D",
"i. c #13EA4D",
"p. c #2FF151",
"a. c #15C478",
"s. c #11CD71",
"d. c #2CD968",
"f. c #14E971",
"g. c #2FF069",
"h. c #63D45E",
"j. c #4CF950",
"k. c #61FD5B",
"l. c #70D177",
"z. c #57F47B",
"x. c #54F36E",
"c. c #74F776",
"v. c #57D45E",
"b. c #83AD29",
"n. c #82AC27",
"m. c #83B527",
"M. c #86BB27",
"N. c #83B52B",
"B. c #85BD2B",
"V. c #8ABE2B",
"C. c #8ABA28",
"Z. c #91BE2B",
"A. c #82BE31",
"S. c #89BD32",
"D. c #94BF31",
"F. c #86C12C",
"G. c #8CC32C",
"H. c #8BC127",
"J. c #92C52D",
"K. c #95C62D",
"L. c #93C52D",
"P. c #99C62D",
"I. c #98C62D",
"U. c #96C92E",
"Y. c #95C82E",
"T. c #9AC92E",
"R. c #9BCA2E",
"E. c #92C627",
"W. c #85C131",
"Q. c #8EC631",
"!. c #8DC431",
"~. c #91C631",
"^. c #92C631",
"/. c #99C630",
"(. c #96C931",
"). c #95C931",
"_. c #9BCA31",
"`. c #A0CC2F",
"'. c #9ECD59",
"]. c #9ACA53",
"[. c #A1CE59",
"{. c #A6D256",
"}. c #82FE6A",
"|. c #77BB80",
" X c #13C888",
".X c #12D786",
"XX c #14CD92",
"oX c #0FD890",
"OX c #16F193",
"+X c #13EC8D",
"@X c #38FA91",
"#X c #26FAA7",
"$X c #38FBA9",
"%X c #32FDB3",
"&X c #15F8A6",
"*X c #47EF89",
"=X c #77FD95",
"-X c #48FBB8",
";X c #55FEB4",
":X c #52FEAA",
">X c #66FEAA",
",X c #72FEBB",
"<X c #4CFDC1",
"1X c #6CFCCD",
"2X c #77FECC",
"3X c #97BB99",
"4X c #91C796",
"5X c #90F89E",
"6X c #AAFC8F",
"7X c #8AFEB3",
"8X c #97F7B3",
"9X c #A7FCB9",
"0X c #BBFCBA",
"qX c #B0D3B3",
"wX c #C0FEBD",
"eX c #98FDDA",
"rX c #8EFCD3",
"tX c #ABF8CD",
"yX c #B2FBD5",
"uX c #BCFCC8",
"iX c #B1FDE6",
"pX c #C7FDC8",
"aX c #CDFDD7",
"sX c #DCFCDD",
"dX c #D4FCDA",
"fX c #C7FCE2",
"gX c #D8FBE8",
"hX c #DBFDF5",
"jX c #C2FCF0",
"kX c #E3FDEC",
"lX c #E6FDE5",
"zX c #E4FDF2",
"xX c #EBFFF5",
"cX c #E4FFFC",
"vX c #EBFEFB",
"bX c #F2FFF8",
/* pixels */
"B.!.!.J.K.G.E.E.P.Z.E.Z.C.G.E.V.K.P.^.K.^.J.K.(.R.R.J.U.Z.H.H.L.L.G.L.L.P.E.P.K.K.K.G.G.F.~.Q.Q.G.Q.G.Y.^.G.G.B.C.B.B.B.V.G.] A.",
"B.A.!.K.L.Z.L.L.Z.E.Z.Z.Z.L.E.L.^.G.K.P.(.K.K.R.`.P.J.L.L.L.H.E.K.K.J.Z.P.E.R.R.Y.Y.G.G.G.Q.G.G.G.G.G.H.J.G.G.G.B.B.G.B.V.V.) ) ",
"W.W.S.(.L.L.L.K.K.E.P.Z.Z.L.E.K.Q.L.L.L.L.P.R.P.R.P.K.E.E.L.L.R.I.P.L.L.I.J.R.).J.L.G.G.G.H.G.G.V.V.B.B.G.F.F.V._ _ C.H.G.V.V.B.",
"W.!.!.^.U.K.K._./.J.P.L.P.E.L.G.Z.~.!.D.~.L./.J.L.P.E.P.L.G.L.).K.E.L.V.L.I.I.J.J.Y.Y.~.Q.F.B.G.G.G.G.G.G.B.B.B.B.( M.F.B.V.G.F.",
"!.).Q.Y._._._.R.P.P.`.L.P.J.E.V.Z.L._.^.L.J.L.L.L.E.Z.Z.L.Z.F.J.R.Q.Q.Q.H.Q.H.F.G.G.J.G.G.L.G.K.G.H.H.G.G.V.G.M.M.m.) B.B.B.B.H.",
"W.Q.Q.U.R.R.R.R.`.P.Z.L.K.L.J.V.L.V.^.D.^.R.P.Z.Z.Z.L.L.E.!.G.^.Q.H.Q.Y.Q.G.F.Q.G.G.G.M.V.E.L.I.L.K.U.V.H.G.G.F.G.L.!.B.) M.G.U.",
"W.~.~.).R._.`.R.P.E.Z.E.L.G.L.U.L.G.D.~.^._./.K.L.J.).L.L.G.).).Y.F.G.U.Y.U.Y.H.J.V.G.V.M.H.J.K.V.V.R.L.!.G.J.F.F.G.B.G.G.M.B.B.",
"Q.).~.Q.U.R.`.R.H.Z.E.E.E.G.L.L.P.!.~.^./._.P./.P.R._.L.~.!.G.Q.F.F.Q.Q.).R.Y.Q.Q.).(.K.Q.M.H.G.G.L.I.L.V.V.H.G.V.Q.B.G.F.B.B.N.",
"~.W.B.B.K.E.U.L.G.E.E.I.I.G.L.L.E.^.P._./.`./.`.`._._.L.F.W.S.B.Q.Q.Q.F._.).G.Y.G.~.Y.Y.Q.G.G.G.V.V.L.J.V.B.M.G.G.).V.G.V.M.B.( ",
"W.W.] M.G.L.H.Y.E.E.E.K.E.J.^.K.L.L.L.P.P./.P._.`.P.P.G.V.!.!.B.G.Q.Q.Q._._.).).Q.H._.H.V.G.V.H.G.L.K.H.G.V.G.J.J.E.L.G.G.F.H.G.",
"] W.] F.L.E.H.J.E.E.E.E.L.G.L.^./.K.L.K.L.^.P._.`.P.G.V.V.G.[.e.` Q.W.Q.~.K.U.).^.G.Q.G.V.V.B.V.G.V.G.F.M.H.G.G.G.U.L.J.G.G.J.V.",
"] ] B.M.G.L.Y.G.L.^.J.G.E.V.L.L.^.R./.^.P./.P.R.P.L.G.G.Q.[.kXq.6 ` Q.Q.G.G.Y.F.G.J.B.G.H.V.F.^.G.F.G.F.G.J.Y.Y.J.K.L.V.!.J.J.J.",
"F.F.] F.H.Q.Y.Q.H.Q.~.H.G.H.H.G.J.J.U.K.K.L.L.L.P.~.B.B.].zXvXq.0 r ` ) F.H.G.M.K.K.B.G.Q.G.G.G.G.B.H.H.Y.U.J.G.J.H.M.G.G.H.G.R.",
"F.W.!.G.G.).Y.Q.~.Y.Q.H.C.H.Y.J.G.H.U.E.Z.J.V.H.G.G.G.].zXcXcXq.6 r s ` F.F.F.G.L.J.!.V.B.V.G.!.G.V.).Q.J.J.H.Y.H.G.G.H.G.L.P.E.",
"F.F.F.G.G.Y.U.G.Q.Q.Q.H.G.H.U.G.L.I.G.J.J.G.G.G.S.V.'.gXcXvXzX0.q r r s ' F.Q.!.F.F.F.Q.G.^.G.G.L.G.R.J.K.R.G.V.G.K.H.L.I.P.L.Z.",
"W.F.G.~.Y.Q.Q.Q.F.H.G.H.U.R.H.G.J.H.V.G.J.J.L.!.V.'.gXcXvXcXzX0.> o q d s [ ).G.V.V.G.G.G.V.H.G.S.G.G.H.G.G.G.G.G.^.V.V.L.Z.L.L.",
"F.G.G.R._.U.).H.H.H.G.F.H.L.V.G.E.F.H.~.U._.R.J.[.zXcXcXcXkXkX0.o o q 4 4 s ' ^.G.G.F.G.~.V.C.C.V.G.G.V.G.V.G.G.G.P.E.P.E.K.J.G.",
"F.G.G.~.G.Q.B.B.F.H.B.M.H.V.B.V.G.M.Y.G.R.).J.'.hXcXhXcXvXxXlXw.> 3 q q 4 d s b.^.L.G.G.V.G.B.Z.D.G.V.B.M.V.V.C.L.R.I.K.E.P.I.U.",
"F.G.G.G.L.G.B.B.F.F.B.H.G.G.V.!.H.H.~.U.^.G.{.hXcXhXgXkXxXbXqXv.B > 3 q r 4 d s ' P.P.L.G.G.G.V.V.V.L.!.H.B.G.G.L.E.P.L.I.R.I.L.",
"G.J.G.G.G.G.G.B.F.) G.L.G.M.M.G.G.~.Y.~.J.[.gXcXcXcXzXzXbX4Xl.9Xc.B 3 q t r 4 r s ' P.E.L.G.V.G.G.V.G.G.G.F.G.G.H.V.L.L.L._.E.E.",
"K.L.H.G.G.K.Q.H.G.G.G.^.G.H.H.G.G.^.G.!.[.zXcXcXzXxXkXbX4Xl.0X0X9Xz.B 3 q t t q r d b./.J.J.G.V.V.M.G.H.F.H.G.F.G.H.G.H.L.P.I.L.",
"R.^.R.G.G.G.Q.G.F.G.G.G.G.Q.G.G.Q.Q.Q.G.gXvXcXcXxXxXbX3Xl.uXpXpX9X7Xx.B 3 q t r r 4 4 Z.H.J.U.G.G.Z.L.V.F.H.G.M.G.G.F.F.G.E.G.H.",
"R.E.R.R.^.G.G.J.Y.Y.G.Y.!.G.Q.G.J.G.!.W.<.l.8XdXlXbX3X4XdXaXaXpX9X7X,Xx.V 3 w w q 0 a Z.J.K.U.J.G.G.E.V.L.V.B.C.H.G.H.B.V.F.V.H.",
"R.R.K.U.K.K.Q.G.Y.R.U.R.Q.Q.Y.J.G.!.S.S.0 8 c P h.l.0.lXsXsXdXuXtX7X>X:Xg.f f M 0 9 1 /.R.).R.R.^.L.L.V.L.~.B.N.G.H.B.H.G.H.V.V.",
"R.`.P.R.Y.J.H.H.).Q.Y.Q.(.).R._.Q.H.!.Q.>.n H k h K tXsXsXgXgXfXyXrX2X;X*X&.j C N 5 , K.R.J.J.R.L.L.G.G.J.J.G.M.F.) G.J.L.B.V.G.",
"K.E.P.R.U.R.Y.Q.U.Y._.U.R.).Q.Q.G.Q.!.!.b b J H h K tXlXsXdXgXaXyXtX2X;X$XJ j C m - , ^.K./.R.P.K.G.L.!.H.G.G.F.F.G.H.J.V.B.V.G.",
"L.U.E.R.Y.Y.Y.Y._.).Y.)._.).Y.).).G.!.S.>.n J J k K tXlXgXgXfXiXiXeX1X-X$XP g j G - , E.P.I.E.`./.K.K.G.!.G.J.G.G.G.G.^.G.G.G.H.",
"Z.P.I.R.Y.Y.Q.G.Y.Y.G.Q.U.U._._._.F.F.B.>.b &.J h K tXdXaXkXzXhXiXeX1X<X$XJ j G G ; , Z.P.K.P.(.P.P.(.R.G.G.G.K.J.J.J.G.F.G.G.G.",
"L.I.Q.G.Q.Q.Q.G.Q.G.Q.~.).R.Y.G.R.~.W.V.>.b o.J x K 9XpXaXgXhXcXjX2X1X<X$XH C X.D - , m./.P.E.`.P.R.K.R.^.P.G.G.J.R.U.).Q.F.G.Q.",
"J.E.F.G.F.Q.Q.Q.~.G.Y.).Y.Q.Q.G.Q.).!.V.,.b &.&.h 3.8XwX0XuXtXiXeX1X-X%X%XJ { r.t.- , Z.P.P.Z.P.R.R.).K.J.E.G.G.U.J.J.Y.Y.H.H.G.",
"G.J.Q.F.F.W.Q.Q.Q.Y.Y.Q.Q.Y.Y.G.Y.Q.U.G.,.b &.J h 4.5X6X6X5X8X,X1X-X%X#X#XA @.O.t.- , C.Z.Z.L.E.K.P.P.R.U.R.G.Y.I.Q.H.H.J.G.G.Y.",
"H.~.!.F.F.F.Q.Q.Q.Q.F.F.H.G.~.Y.G.W.Y.B.,.b u. .h 4.=X}.c.}.>X>X:X$X#X&XOXz { O.D 9 , C.L.G.G.E.L.P.E.R.U.U.Y.Q.G.H.Y.Q.G.J.G.Q.",
"V.!.F.] ] Q.G.G.Y.Q.Y.Q.Q.~.)._.Q.!.!.( 1.M +. .x K x.k.k.k.z.*X@X@XOXOXOXl { O.X.- , Z.L.P.E.G.L.P.K.R.Y.Y.Y.Q.H.Q.G.Q.G.H.G.G.",
"G.G.W.W.] G.F.] F.F.G.U.Q.Q.).~.!.^.W.S.1.M +.$.H M j.j.j.j.g.p.g.f.+XOXf. .} ..r.5 < S.K.P.K.L.P.P.E.U.U.I.G.G.Q.G.G.H.!.F.!.M.",
"F.G.G.] F.F.W.F.F.Q.F.H.J.Y.J.!.^.Q.A.S.1.b u.$.l K j.:.:.p.p.p.i.f.+XoXs. .} O.r.5 < V.K.K.L.G.L.J./.U.Q.J.~.G.Q.G.F.M.V.V.G.G.",
"G.G.G.G.] F.Q.!.Q.F.Q.Q.Y.`.).V.!.Q.^.N.1.M O.$.l 4.p.;.;.:.-.-.i.f.+XoXs. .| =.r.5 9 V.L.R.G.Q.G.Q.G.G.G.F.G.Q.Q.G.J.G.K.G.G.G.",
"!.L.G.G.Q.W.!.S.W.Q.Y.G.G.^.V.F.A.W._ ( 1.m O.@.l u.u.%.%.;.*.i.t.f.oXoXa. .| =.r.5 9 W.Q.G.H.G.J.G.H.F.Q.G.G.H.G.H.L.L.R.K.P.(.",
"^.!.G.G.U.~.!.!.Q.Q.F.F.B.G.G.F.W.W.B.( 1.m r...{ y.o. .%.%.$.@.t.s.oXXX X .=.=.r.5 9 W.^.Y.Q.^.).G.Y.Q.H.L.G.H.M.M.H.L.E.V.L.J.",
"Q.G.G.G.G.B.F.F.] G.F.F.G.Q.G.W.F.B.) [ 6.m O...z y.J #.#.$.$.X.t.s. XXXa.o.i.i.i.5 < Z.G.G.J.!.Q.U._.U.Q.G.).Y.).G.V.G.G.G.L.I.",
"!.F.B.F.F.F.G.F.F.] F.H.J.G.~.W.F.) ) S.1.G O...{ y.J  .#. .J o.t. XXXXX2.+.p.p.d.5 1 V.^.^.Q.G.H._.).Q.G.Y.Q.Y.J.^.G.H.G.C.V.E.",
"G.F.Q.G.F.Q.G.F.F.G.G.G.H.W.W.!.!.W.] ( 6.m O.| { y.A l  .A F F 5. Xa.6.5.#.-.p.y.5 , Q.K.~.Q.!.^.R._.G.~.J.L.).J.F.G.H.G.G.J.J.",
").Q.G.Q.F.F.V.F.G.F.F.G.^.G.] !.!.!.W.[ s.m X.| =.+.L k l A F F 4.5.5. X*XV C u.y.0 , B.R.J.G.G.^.R.U.R._.G.G.G.L.V.B.B.M.!.V.!.",
"H.Q.H.F.F.F.F.F.G.F.G.R.R.U.H.H.F.!.^.m.s.2.f.D b & B u.k k Z 3.4.5.a.d.8.. . . % 5 , N.J.J.J.(.J.^.^.Q.F.Q.G.G.V.G.H.V.J.L.L.J.",
"~.G.Q.F.F.H.Q.H.B.G.K.G.H.H.F.H.J.F.V.) 7.; ; & % % % P L k k Z 3.4.d.9.+ O X O X   . C.J.U.J.R.Y.G.J.G.V.E.K.W.G.G.V.G.G.!.!.Q.",
"G.Q.G.Q.Q.Q.U.G.G.G.G.J.U.E.V.B.K.G.G.m.R 2 2 6 N N f f K L g C 2.u.V > X O : 8 @ : R V.L.^.J.E.).Q.G.G.G.K.L.G.F.M.G.^.V.Y.~.U.",
"G.G.Q.G.H.U.Q.Q.G.R.P.G.H.M.B.B.V.G.S.B.^ p ; . 7 N g % % V L Z u.4.+ + O : 8 X ; R ^ Z.P.K.U.K.^.G.Y.Q.F.!.G.F.!.G.^.^.J._._.R.",
"U.Y.G.Q.Q.G.F.F.G.J.G.V.G.B.G.B.V.V.F.( / T * ; @ 7 f f % % P L R : 6 : 6 8 : > p ! b.Z.P.L.J.J.J.J.G.Q.H.V.V.G.L.G.H.G._.).Y._.",
"Y.Q.G.Q.H.G.F.H.K.G.V.M.B.G.H.G.G.H.W.B.Q T y * ; - 8 B f H x V . 5 8 7 c : = e Y ! m.P./.P.K.L.H.U._.(.L.G.G.G.H.G.G.G.G.G.G.Y.",
"Y.Q.G.Q.F.G.G.G.G.!.I.G.E.R.M.^.Q.G.G.C.N.^ E u e ; - 8 H H f 3 X O > n 1 = e u ~ b.C.D.E.Z.G.V.H.~.K.(.J.L.V.H.M.!.G.~.Y.Q.Y.G.",
"~.G.G.F.G.G.G.G.C.F.G.J.K.U.E.I.H.H.G.^.) / Q E i e - 5 M Z B w O O 8 6 = i u E n.C.Z.L.J.L.L.E.G.V.J.R.^.L.V.V.F.F.W.H.Q.U.~.Y.",
"Y.).U.R.G.G.G.G.G.H.F.G.L.L.V.U.J.H.G.G.B.( / W I y * ; 8 S A 6 X 6 6 = # u E n.b.Z.^.L.L.E.L.H.L.V.G._.^.G.!.^.G.Q.H.H.U._.).).",
"G.U.U.U.J.G.^.(.I.U.G.H.H.V.H.L.J.V.Z.V.S.B.C.^ W I i * 1 M F w X X   # u E ! b.b.Z.P.P.E.L.Z.Z.V.E.(./.^.J.~.!.!.Q.U.Q.Y.Q.).U.",
"G.Y.`.~.Y.J.G.~.Y.Q.G.H.M.V.G.L.^.G.C.B.!.V.D.S./ Q Y i * 1 ,.t     * y I Q b.C.D.Z.L.Z.Z.E.Z.V.L.E.E._.^.P.^.!.!.G.G.U.Y.Q.U.~.",
"G.)._._.Y.Y.H.(.J.B.G.V.B.G.G.L.H.H.G.G.L.L.E.V.m./ W I y e a =   $ i Y W b.Z.V.Z.Z.L.L.E.E.Z.Z.L.E.L.^.^.^.!.^.F.H.Q.U.R.Y.G.Q.",
"L._.~.).Y.).Q.^.V.L.V.B.G.G.G.V.F.F.V.G.G.V.L.L.L.B.^ ! I i e   $ y U ~ ^ N.D.~.L.P.^._.L.I.I.I.Z.E.E.~.G.W.!.W.Q.K.G.J./.V.G.Y.",
"^.G.G.~.F.F.E.V.G.H.!.H.G.G.V.F.H.V.K.U.J.J.L.L.F.M.N./ W I u i y I ~ / b.m.D././.P./._.E.I.I.I.P.I.J.!.^.^.W.!.Q.F.F.V.G.!.G.G.",
"~.Y.G.G.G.Z.R.S.F.M.G.G.G.!.B.B.H.K.R.G.J.H.G.G.!.V.C.B.n.! W Y U ~ / N.C.V.Z.H.Y.R.R.R.R.R.L.J.Y.~._.Q.W.] ] F.G.F.F.M.V.^.J.~.",
"~.~.G.G.F.G.J.Q.W.G.G.G.L.V.V.K.^.J.R.~.J.G.H.H.G.G.!.V.C.^ n.^ ! / / ( V.G.G.H.Y.H.^.P.P.E.J.~.Q.Q.!.F.W.] F.] ] F.F.Y.).J.J.U.",
"U.).J.J.Q.F.V.F.G.G.G.J.!.~.V.R.J.G.U.J.G.!.J.L.V.U.V.V.N.N.N.N._ m.m.B.M.J.E.L.H.G.H.H.V.H.B.Q.G.B.) ) W.!.W.F.B.G.U.J.K.^.K.L.",
"Y.Q.K.^.!.V.B.G.G.Q.B.V.B.V.V.G.H.G.G.V.G.G.G.J.G.G.G.V.B.A.M.B.M.M.H.G.G.E.I.C.F.F.Y.Q.V.A.] W.W.] ) ] ] F.) F.) G.G.G.G.P._.!.",
"G.)._.`.^.J.G.G.F.G.G.V.C.V.~.V.V.G.V.V.Z.V.L.L.G.V.V.H.G.V.G.!.G.G.G.V.H.G.H.G.H.Q.G.) ] ] W.] W.] A.F.B.W.F.!.S.G.^.G.L.J./.^.",
"Y.G.Q.U.U.J.G.V.G.F.G.H.C.Z.G.Z.V.V.V.V.J.E.H.L.L.L.G.V.H.V.G.G.F.H.G.!.G.G.L.G.Q.!.) _ _ ) ) ] ] ] ] F.!.W.!.W.F.G.^.^.^.^.J.^.",
"Y.G.Q.G.).J.G.G.G.G.Q.F.Z.Z.Z.K.K.R.P.P.J.L.V.L.L.J.).L.G.V.L.M.M.G.V.M.V.G.V.G.H.G.W.) _ ) F.F.] W.] W.!.!.!.Q.V.Q.^.P.^.^.^./.",
"Y.G.Q.H.G.J.J.G.W.G.~.~.J.L.L.K.P.P.P.P.L.L.J.G.K.J.K.J.G.L.H.V.L.G.L.V.L.U.V.V.B.] ) ] _ _ ) F.W.W.!.Y.!.!.G.!.G.G./.^././.L.L."
};
