/* XPM */
static char *daa7c3e33e2f4248d1eae52b09ccc42bbDbfxqJSYvnPj3Fw[] = {
/* columns rows colors chars-per-pixel */
"64 64 244 2 ",
"   c #280D08",
".  c #37130C",
"X  c #2C1210",
"o  c #411910",
"O  c #5E2E0C",
"+  c #59360D",
"@  c #4E2A1D",
"#  c #472216",
"$  c #542D1E",
"%  c #5B3D13",
"&  c #593519",
"*  c #4F250D",
"=  c #63360E",
"-  c #643C13",
";  c #6A3C1A",
":  c #653917",
">  c #612E0F",
",  c #542D21",
"<  c #5A3422",
"1  c #593729",
"2  c #4E2920",
"3  c #663D2B",
"4  c #694519",
"5  c #76481C",
"6  c #72561C",
"7  c #68511F",
"8  c #79701E",
"9  c #6C4423",
"0  c #6D4B25",
"q  c #754924",
"w  c #6D5324",
"e  c #6C5724",
"r  c #735623",
"t  c #765A29",
"y  c #684736",
"u  c #765A36",
"i  c #754133",
"p  c #7B6436",
"a  c #5D4D36",
"s  c #7A3F43",
"d  c #6D5345",
"f  c #785845",
"g  c #744E47",
"h  c #78634B",
"j  c #796A55",
"k  c #7C7363",
"l  c #A43B3F",
"z  c #83562A",
"x  c #8F512E",
"c  c #A3473B",
"v  c #8C6B36",
"b  c #A97B3B",
"n  c #9D295C",
"m  c #9B3958",
"M  c #A73B4A",
"N  c #A32D5C",
"B  c #A62D58",
"V  c #A53253",
"C  c #AA3354",
"Z  c #AB3C53",
"A  c #A4335C",
"S  c #A93A59",
"D  c #A42F4A",
"F  c #9E3B6D",
"G  c #9D3668",
"H  c #9E3B72",
"J  c #962F64",
"K  c #A02960",
"L  c #A03B6C",
"P  c #A43864",
"I  c #A13B74",
"U  c #AC3F7A",
"Y  c #B93D6C",
"T  c #9D1B5F",
"R  c #875559",
"E  c #8B554B",
"W  c #AA444A",
"Q  c #AC4558",
"!  c #B2465B",
"~  c #AA5657",
"^  c #B35151",
"/  c #8F704E",
"(  c #A67C58",
")  c #B37E59",
"_  c #AA7249",
"`  c #994667",
"'  c #965967",
"]  c #984D6E",
"[  c #A74765",
"{  c #B44A66",
"}  c #A45969",
"|  c #A74378",
" . c #B1526F",
".. c #8D7667",
"X. c #947C67",
"o. c #9A6274",
"O. c #946764",
"+. c #A66A68",
"@. c #A67765",
"#. c #A67877",
"$. c #AF6B72",
"%. c #7EBC2D",
"&. c #7AB729",
"*. c #7FBD31",
"=. c #8C8B2C",
"-. c #AC8B3D",
";. c #84BD2B",
":. c #8ABE2B",
">. c #88B829",
",. c #92BD2B",
"<. c #91B02F",
"1. c #82BE31",
"2. c #8BB737",
"3. c #92BD36",
"4. c #8DA730",
"5. c #85C12C",
"6. c #8CC32C",
"7. c #8BC127",
"8. c #93C52C",
"9. c #99C62D",
"0. c #95C82E",
"q. c #9AC92E",
"w. c #93C527",
"e. c #85C131",
"r. c #8CC431",
"t. c #92C631",
"y. c #99C631",
"u. c #95C931",
"i. c #9ACA31",
"p. c #97C23A",
"a. c #A0CC2F",
"s. c #96864F",
"d. c #A6825B",
"f. c #B18653",
"g. c #8BA943",
"h. c #96B34F",
"j. c #A8AC50",
"k. c #9A8169",
"l. c #9D8B7C",
"z. c #9B8974",
"x. c #9C9E6C",
"c. c #A38465",
"v. c #A28D7B",
"b. c #A68877",
"n. c #A5927D",
"m. c #A6967D",
"M. c #B29576",
"N. c #A2BB64",
"B. c #ABAB6F",
"V. c #97A268",
"C. c #C1AD79",
"Z. c #ACC572",
"A. c #9EC54C",
"S. c #B94785",
"D. c #A96E88",
"F. c #DA5B9C",
"G. c #D75496",
"H. c #C85190",
"J. c #D7649A",
"K. c #C26995",
"L. c #DD5FA2",
"P. c #E15EA6",
"I. c #DD62A1",
"U. c #DE6AA1",
"Y. c #DB70A8",
"T. c #E264A9",
"R. c #E367A8",
"E. c #E477AF",
"W. c #9E8486",
"Q. c #9B958A",
"!. c #9E9B93",
"~. c #A68985",
"^. c #A39383",
"/. c #A89483",
"(. c #AC9A87",
"). c #A59A8B",
"_. c #AB9B8B",
"`. c #A2968A",
"'. c #B49A87",
"]. c #A49D93",
"[. c #AA9E92",
"{. c #A69B94",
"}. c #B59894",
"|. c #ABA295",
" X c #ACA49A",
".X c #AEA99D",
"XX c #A5A299",
"oX c #B3AB9D",
"OX c #B4A697",
"+X c #BEB59B",
"@X c #B2B388",
"#X c #AEACA3",
"$X c #A7A8A0",
"%X c #B2AEA3",
"&X c #BFABA3",
"*X c #B4B1A4",
"=X c #BBB4A5",
"-X c #BBB6AA",
";X c #BEB9A9",
":X c #BDB8A5",
">X c #CD969D",
",X c #C6B699",
"<X c #C7A39A",
"1X c #D68BA9",
"2X c #CAABA9",
"3X c #C4BCAC",
"4X c #C7BAA5",
"5X c #C8BDB2",
"6X c #D8B0AD",
"7X c #E692B4",
"8X c #B7C68D",
"9X c #C4C79B",
"0X c #CAC3AA",
"qX c #D3C4AB",
"wX c #CBC4B3",
"eX c #CBC5B5",
"rX c #D4C9B6",
"tX c #D3CCBC",
"yX c #D6C8B6",
"uX c #D7D0BE",
"iX c #D9D1BE",
"pX c #D0D6B2",
"aX c #CDD2AE",
"sX c #E0C8BE",
"dX c #E5BAC1",
"fX c #DBD5C3",
"gX c #DED9C6",
"hX c #DED9C8",
"jX c #D8D1C2",
"kX c #DFCDC1",
"lX c #E3DDCC",
"zX c #E4D9C9",
"xX c #E6DED1",
"cX c #E8C3C5",
"vX c #E6E1CE",
"bX c #E8E4CF",
"nX c #E7E1D1",
"mX c #EAE4D3",
"MX c #EDE6D9",
"NX c #EFE9DA",
"BX c #EDE8D5",
"VX c #F0EADD",
"CX c #F2ECE2",
"ZX c #F8F3ED",
/* pixels */
":.r.6.t.0.6.w.w.9.,.8.>.,.8.w.7.8.y.y.8.8.8.8.9.i.q.8.0.,.8.:.8.6.w.7.8.9.w.i.0.0.0.6.6.5.0.u.6.6.r.6.0.0.6.5.>.>.:.>.;.7.5.1.1.",
"%.1.r.9.8.,.8.8.8.8.,.,.8.7.w.6.8.:.0.9.i.t.0.q.a.9.8.8.8.8.6.w.w.0.8.6.9.w.q.9.0.u.r.6.r.6.6.r.6.6.6.6.t.6.6.8.%.%.5.:.:.:.;.%.",
"e.e.1.i.8.,.8.9.0.,.w.8.8.8.w.8.t.8.8.8.8.t.q.9.9.9.8.8.8.8.8.0.,.,.w.8.9.9.q.u.8.7.r.6.r.7.6.6.:.:.:.;.6.7.5.5.>.>.;.7.5.6.:.5.",
"e.r.r.t.0.0.0.i.9.8.9.9.9.9.8.6.r.8.t.8.t.8.9.0.9.w.9.8.t.>.2.m.@.k.4.8.8.0.0.6.0.0.w.r.7.5.:.5.:.6.8.5.5.;.;.>.%.&.%.5.;.;.6.;.",
"r.u.r.0.i.i.i.q.9.9.q.8.8.8.w.6.6.8.i.3.8.t.w.8.,.8.h.Z.8Xv 3 $Xb.X./ s.N.A.r.r.5.5.0.r.6.8.:.0.6.6.6.6.5.:.6.:.;.>.%.;.>.;.;.7.",
"e.r.r.0.q.a.q.q.9.9.9.8.0.,.8.:.t.:.3.y.p.0.q.6.A.9XxXMX_.o # / ..y #.&XzXVXlX8Xp.6.6.7.:.8.0.q.8.w.u.:.,.8.6.5.6.:.r.;.;.;.6.0.",
"r.r.0.u.q.i.a.q.9.w.,.w.8.6.8.0.6.8.,.8.8.i.A.9XMXmXmXmXm.* 0 p / X./ 0 3XCXNXNXnXZ.:.6.>.7.w.8.:.:.9.8.6.6.8.5.5.7.;.:.7.;.:.;.",
"r.u.u.r.0.i.a.q.7.,.w.w.8.8.6.8.9.8.t.0.p.Z.fXnXxXmXmXxXyX/ s.X.f.v p / lXNXVXNXVXVXpXp.6.;.6.6.8.8.0.w.;.7.6.:.5.r.:.6.5.%.;.>.",
"t.5.:.5.0.0.0.0.7.w.w.w.q.8.r.8.0.8.9.y.8XxXxXxXnXvXnXhXuX|.s.v p / M.NXMXNXNXVXNXNXVXbXZ.e.5.7.:.,.8.8.6.>.:.5.8.0.:.8.;.>.;.%.",
"e.e.*.;.:.w.6.w.0.w.w.0.w.8.t.0.w.6.3.rXlXxXlXxXxXxXxXjXXXQ.s.h k.=.B.CXCXCXNXVXNXVXNXNXVXZ.;.5.:.8.8.8.w.:.5.8.0.w.r.6.5.7.6.6.",
"*.e.1.;.w.8.7.r.w.w.w.8.8.6.0.t.u.3.aXgXlXhXlXxXxXxXjX*XXXk a k Q./ d.gXZXZXCXNXNXNXVXVXVXMXZ.5.7.5.6.5.5.:.8.5.:.9.8.8.;.8.8.:.",
"%.*.%.;.7.8.0.0.8.8.8.6.w.6.8.8.6.0XfXgXhXzXhXvXxXjX-X#XXXXXQ.Q.Q.!.0XmXZXZXCXNXNXNXNXNXNXVXVXN.6.7.5.5.5.w.0.0.8.0.8.6.6.0.6.8.",
"5.5.*.5.6.w.r.5.5.r.r.6.6.7.7.6.@XfXfXjXjXjXhXlXhX-X*X#X$X$X!.!.!.tXhXnXVXCXCXNXNXMXNXNXBXNXNXmXh.%.7.7.8.0.0.6.8.6.7.5.6.6.8.9.",
"5.e.r.6.r.0.0.0.0.0.0.7.:.:.w.N.tXjXjXjXfXhXhXhXeX*X*X#X#X$X$X*XfXhXvXnXMXNXNXNXMXMXmXMXmXNXNXNXvX%.i.r.w.8.6.8.7.6.6.7.5.0.9.8.",
"5.e.5.r.r.0.0.r.r.0.r.7.6.7.3.0XeXtXtXjXjXfXjXhX-X*X*X#X#X#X*XjXvXhXnXnXnXmXmXMXMXMXmXMXBXNXBXNXVX8Xi.6.9.q.6.:.6.w.7.8.9.w.,.8.",
"5.5.5.0.0.r.r.0.5.7.7.w.r.r.B.wXeXtXtXtXjXjXjXjX;X*X#X*X*X#XjXlXvXvXnXnXnXMXmXmXnXmXmXmXmXmXBXNXCXBXh.6.r.6.5.8.:.t.:.,.8.8.,.8.",
"5.8.5.q.q.0.u.7.7.7.5.7.7.2.=X5XwXeXrXtXtXjXjXtX=X#X%X#X#XwXhXlXlXlXxXxXmXmXnXmXbXmXbXmXmXmXmXBXBXNXaX:.7.:.:.6.8.w.9.0.0.0.8.,.",
"5.6.6.t.t.6.;.;.;.,.;.;.;.V.3X3X3X5XeXeXeXtXjXeX%X#X#X#X-XfXhXlXlXlXlXlXxXnXnXmXbXbXmXmXbXmXmXBXBXBXNXh.:.:.:.:.8.q.w.9.w.9.q.0.",
":.5.6.6.8.8.:.%.5.5.5.5.2. X&X=X3X3X5XwXeXeXeX-X#X#X#X-XjXhXhXhXlXlXlXlXxXxXnXnXmXxXbXbXmXbXmXmXmXNXBX8X:.>.6.6.8.8.9.w.9.0.w.8.",
"r.6.6.8.6.8.5.;.5.;.6.6.g.OX%X%X-X3X3X3XwXwXwX%XoX#X-XjXfXfXfXhXzXlXlXlXlXlXvXxXxXbXlXxXbXmXmXbXmXBXBXnX1.7.6.6.7.:.8.8.w.i.w.8.",
"0.8.6.8.:.0.r.7.5.8.8.w.m.OX.XoX%X=X=X3X3XwX%X%X#X%XrXtXjXfXhXjXhXgXhXlXgXvXlXlXxXxXbXlXvXbXbXmXbXmXmXmXh.6.w.5.7.w.6.6.8.9.w.w.",
"9.0.9.6.6.6.6.r.5.5.6.2._.OX X XOX%X%X-X;X-X%X X*X5XtXtXjXjXjXjXgXhXhXhXvXvXvXlXlXlXxXxXvXxXbXbXmXbXmXzX8Xw.;.;.7.6.5.5.6.0.6.8.",
"9.9.9.q.0.6.6.0.0.u.w.g.|.OX|.OX X XoX%X=X*XoXoX3XeXeXtXtXjXjXjXfXfXhXhXgXgXzXzXlXvXlXlXxXvXxXvXnXvXcX7X4X2.>.;.:.7.5.:.:.:.>.7.",
"9.q.0.0.t.0.r.6.8.q.9.V.'.|.|.|.|. X X.X%X%XoX;X5XeXeXeXeXyXjXjXuXfXfXhXgXiXgXzXlXzXbXzXzXvXlXvXvXcXE.E.1X<.>.;.r.5.;.7.7.6.5.:.",
"q.a.i.q.0.0.6.7.u.r.6.m.OX_.|.|.|.|. X X X.XoX=X3X3XwXwXjXjXjXjXtXiXuXfXfXfXfXzXgXzXlXvXvXgXlXxXcXE.R.R.Y.h.:.;.:.%.6.6.8.>.;.6.",
"w.w.9.q.0.q.0.0.0.0.r.).'._.'.[.[.|.XX X X|.%X*X=X3X3X0X-X2X&X2XtXtXuXuXjXfXfXfXgXgXgXzXgXvXlXzX7XR.R.T.T.B.6.5.5.5.6.8.6.:.7.6.",
"8.q.w.q.0.0.0.0.a.u.3.(._._._._.{.|.{.|.|.XX X|.*X3X&X~.D.G.H.H.2XtXtXuXjXiXfXfXzXfXfXzXgXzXvXdXP.P.P.P.T.'.8.6.6.6.6.t.6.7.7.6.",
":.y.w.q.0.0.r.r.r.0.g.'._._._._.{.{.[.[.Q.|.XXXX#XD.o.' S.H.S.H.K.eXtXtXuXiXiXiXfXfXfXgXgXgXgX1XP.P.P.P.P.}.6.0.0.8.8.6.r.r.6.6.",
"w.0.r.6.r.r.r.5.r.w.g._.(.(.(._._._.[.[.].Q.XXXXD.I R | S.S.S.H.H.&XeXtXrXtXuXuXjXiXfXfXfXfXzXY.P.L.T.T.R.>X7.6.0.q.0.u.r.6.5.0.",
"0.w.6.e.5.0.0.0.0.r.g.(.'._.(._._._._.[.].l.XXD.H ` R H U S.S.S.S.<XwXeXeXrXrXtXtXtXuXiXfXfXkXF.F.P.I.I.R.<X;.6.u.6.8.0.w.5.7.6.",
"r.8.8.5.5.e.r.r.r.0.g.(.(.(.(.(._._._.).).l.D.| H g | H H U S.S.S.}.;XwXwXwXeXrXrXtXuXuXuXiXsXF.F.J.F.I.R.4X7.0.0.0.w.7.6.6.r.8.",
":.t.r.5.5.5.r.r.r.0.2.(.(.'.'.(._._._.).).`.h ] R ] H H H H H U S.}.-X;X0X0XwXwXeXrXrXtXyXuXsXF.F.F.F.I.J.4Xr.r.6.7.r.0.6.0.6.r.",
"5.r.5.*.*.w.r.5.8.t.2.'.M.$. .b._./._._.).~.g 3 ` ` H H H H H I U }.*X=X;X3X3X0XwXeXwXrXrXrXyXG.F.F.F.F.Y.9Xw.6.6.6.6.t.6.8.6.6.",
"5.6.e.e.*.r.5.5.5.5.2.'.$.{ ! P #././.).`.#.J s F | I I H H I H H XX.X#X=X;X;X3X3X0XwXwXrXrXtXJ.G.G.G.F.dXZ.w.r.r.r.6.5.6.5.5.>.",
"5.6.6.e.5.5.e.5.r.6.>.M.{ ! S S P #./.).`.$.N m ` G F F H H F I D.!.!.$XoX%X=X=X;X3X4X5XeXrXyX1XG.G.G.J.iXN.u.6.0.r.5.;.:.:.6.6.",
"6.8.6.5.*.5.r.r.r.r.:.B.{ ! Y C K P /././.o.N G ' F P F H F L H D.!.!.XX X.XoX+X4X4X3X3XwXqXqX6XG.G.G.6XiXh.5.u.r.w.w.5.8.8.6.6.",
"r.8.:.5.r.r.r.e.r.r.0.h.{ ! Z C B P #././.#.K K ` ' F G L L L o.Q.{.`.Q.].|. XOX+X=X4X4X4X0X0XqX,X>X6XrXpX3.6.6.6.5.8.6.q.w.0.y.",
"t.t.6.8.0.u.r.2.r.r.e.4.$.! Z Z C B } /./.~.P N n R ` P G P | W.`.!.`.Q.Q.`.[.|.oX+X=X4X4X0X,X0XqX6XqXqX9X,.5.7.:.;.7.w.0.:.6.w.",
"r.6.5.6.6.;.5.5.5.6.%.;.) ! Z C B B A b././.#.P K m ' m K [ ~.^.`.Q.Q.~.` J o.). XOXOX+X,X4X,X4XqXqXqXqXN.6.u.0.9.6.:.6.7.6.0.9.",
"6.5.:.5.5.;.r.5.1.%.5.7.s.^ Z Z B B B } m.^.(.#.} P ` O.' l.W.^.^.^.`.` T T n o.)._.}.OXOX+X+X,X,XqXqXqXj.w.r.0.0.t.6.6.7.,.6.,.",
"r.r.6.r.5.r.6.5.5.5.6.8.j.~ Z Z C B B B $.m./.m.n./.v.l...l.v.^.W.^.W.n n n n ' `.`.^._.OXOX'.>X<X6X9X,Xp.6.8.i.6.:.6.7.:.5.0.0.",
"0.r.6.6.5.6.7.5.6.5.7.r.y.f.W M C C C D V @.m.n.n.n.v.l.h X.Q.^.^.n.X.n n A m #./.^.^._.D.{ Y Y { M.,XB.i.r.6.8.8.:.5.>.:.r.:.6.",
"w.6.5.5.5.5.5.5.5.5.6.q.9.j.^ W Z C C C V A #.m.n.n.n.z.X.X ..W.^.n.#.S G +.b.Q.^.^.^.} N P P { { ) ,X8.7.6.8.5.7.6.:.5.8.8.8.t.",
"r.6.r.r.5.w.r.5.:.7.u.6.6.:.f.^ ! Z C C V M m b.n.v.n.v...  X h ....z.v.v.n.v.n.^.Q.+.N B S ! [ Y M.j.5.:.q.t.:.6.r.7.:.6.r.r.6.",
"0.6.r.r.r.7.0.r.5.6.6.8.q.6.<.) W W Z V V V V +.m.v.v.v.d     . # < 3 f ..z.v.v.v.b.[ Q S Q Q [ { j.3.t.r.8.8.6.:.;.6.t.:.u.u.0.",
"w.6.r.5.6.0.w.r.t.q.y.6.7.;.:.4.) ^ M W M D M O.b.b.z.k.1 o o # # # o .     d ..X.+.S Z Z Q ! ~ f.q.w.t.5.r.5.5.5.6.t.8.8.i.u.i.",
"0.r.6.0.0.6.5.5.6.8.6.:.6.:.:.>.4.) ~ W M W ~ k.z.k @ . # @ < $ $ , $ # o @ z.c.@.S Z Z Q Q ^ _ t.8.8.r.5.:.:.8.0.6.6.6.i.u.0.i.",
"r.0.6.r.5.6.5.6.t.5.:.;.:.6.8.6.8.<._ ( ( @.c.d.k.l./ @ @ & < 1 < < , $ * f k.@.Q M M Q Q ~ b <.:.u.q.i.8.6.7.6.7.:.6.6.8.6.6.0.",
"0.r.6.5.5.r.6.r.6.r.0.6.8.9.:.0.6.6.:.4.( d.d.c.d.( / , , $ < < 1 < < $ 2 u O.M M Z M W W v ,.:.:.8.0.i.8.8.:.7.;.5.6.u.0.r.0.6.",
"u.r.r.r.6.6.6.7.,.5.6.w.9.w.8.q.6.7.6.0.<.s.( d.d.c./ 2 @ < & < < < & $ 2 x l M M W c c =.,.8.6.8.:.6.q.t.8.:.:.6.5.e.7.6.u.u.u.",
"0.0.0.q.5.6.:.5.6.7.5.6.6.w.:.w.0.6.6.6.w.>.-._ ( ( O.< , 1 & < < < $ , , u M l c c x 4.9.w.8.7.8.6.6.i.u.6.r.t.r.r.6.7.0.i.u.u.",
"6.0.q.0.8.6.u.i.0.0.6.7.6.6.6.,.w.7.:.7.6.>.>.z x b s.E d d y y y y y d g _ c c x z ,.9.9.w.7.,.:.8.y.9.t.8.r.r.6.r.0.0.u.r.u.0.",
"6.0.q.u.8.0.6.u.0.r.6.7.:.:.6.8.0.6.>.>.6.6.w.4 9 t t u u h h j j h h h u z t ; O &.<.w.8.,.,.,.w.w.w.i.t.i.t.r.5.6.8.u.0.r.0.0.",
"6.0.i.u.u.0.7.i.8.:.:.:.;.:.6.8.:.6.:.8.r.0.0.6 9 9 9 p p p v p p u t p t 4 ; ; O =.,.,.8.,.w.,.,.8.6.8.0.t.r.r.5.6.r.0.q.0.0.r.",
"6.u.u.u.0.t.t.r.6.6.6.:.5.8.6.:.5.5.;.7.6.7.6.6 % : ; 4 4 7 6 6 t 6 t t r = O ; 4 8 w.9.8.8.9.9.8.8.w.t.r.r.1.r.t.0.r.6.t.8.7.6.",
"u.0.6.u.5.5.w.:.6.:.5.5.8.6.;.7.6.5.0.0.0.0.w.4 - O - % + % % % 4 4 4 = - ; : 9 0 6 q.a.0.q.q.w.w.w.t.t.t.r.r.r.t.5.7.:.:.r.6.r.",
"u.r.6.6.5.,.i.:.7.:.6.6.8.6.;.:.6.w.0.8.6.7.>.- 9 9 5 e e e t t r 6 r r 4 O ; ; : 6 q.q.q.q.6.8.r.u.u.u.e.*.*.5.5.5.5.:.:.r.8.u.",
"u.u.6.6.r.5.8.t.5.5.5.8.6.:.:.0.0.8.q.t.8.6.=.; 9 4 4 - 4 % 7 7 6 r 6 6 5 O > & = 8 w.9.9.8.w.u.r.t.r.5.*.*.5.%.%.5.5.8.0.8.8.0.",
"0.u.8.8.t.5.5.5.6.5.6.8.6.3.:.i.8.6.0.8.5.8.4.O ; ; 4 % % + + % 4 - - - = ; : 4 x v 7.6.w.6.:.t.r.5.%.%.e.r.e.5.5.6.0.8.8.y.t.8.",
"0.r.t.u.6.:.:.6.r.r.:.:.:.:.:.5.:.6.6.5.6.8.>.O ; q 7 e 7 7 e e r r w w w 9 9 z f.b ,.7.>.1.%.1.5.e.%.*.*.5.e.;.;.r.6.6.6.9.i.r.",
"6.u.i.q.i.6.6.5.6.6.6.;.>.>.6.6.:.5.:.,.6.5.=.q q 3 ; + + * + % + - - - - > = 5 5 b =.&.%.*.e.*.5.*.*.e.5.e.5.r.r.6.t.6.8.8.y.t.",
"0.6.0.0.u.8.6.:.6.5.6.7.,.8.:.8.,.:.:.:.8.7.8 5 9 q : % % % % % % % & + + - 5 = = 5 -.>.&.%.%.*.*.*.%.5.e.r.r.e.;.5.t.t.t.t.t.t.",
"0.r.6.r.0.8.5.6.6.6.r.5.,.,.,.0.8.y.q.y.w.8.8 ; 0 0 4 e t t t t t t r w 7 q z z 4 5 _ j.&.%.e.5.e.*.*.e.t.r.r.r.:.r.u.w.t.8.t.y.",
"w.w.r.6.6.t.8.6.r.5.t.u.8.8.8.0.9.9.9.9.8.0.r.t.t.8.w.0.6.6.7.:.8.6.8.,.8.9.6.>.%.%.%.*.&.&.&.5.e.r.r.8.r.6.6.t.5.r.u.p.y.i.8.8."
};
