/* XPM */
static const char *Zmxvb3I_[] = {
/* columns rows colors chars-per-pixel */
"64 64 135 2 ",
"   c #78B627",
".  c #7FB927",
"X  c #77B72F",
"o  c #78B72A",
"O  c #7EBC2D",
"+  c #7FBD31",
"@  c #82B727",
"#  c #86BB27",
"$  c #8ABD27",
"%  c #83B42A",
"&  c #84BD2B",
"*  c #8ABE2B",
"=  c #91BE2B",
"-  c #82BE31",
";  c #89BF31",
":  c #8AC127",
">  c #86C12C",
",  c #8CC32C",
"<  c #92C527",
"1  c #90C52F",
"2  c #93C52E",
"3  c #92C42F",
"4  c #91C62E",
"5  c #90C72E",
"6  c #92C72E",
"7  c #92C72F",
"8  c #92C52D",
"9  c #94C52D",
"0  c #96C42D",
"q  c #95C62C",
"w  c #94C72C",
"e  c #97C62C",
"r  c #96C72D",
"t  c #94C52E",
"y  c #96C42E",
"u  c #97C52E",
"i  c #95C62E",
"p  c #94C72E",
"a  c #94C62F",
"s  c #96C72F",
"d  c #93C52D",
"f  c #98C72B",
"g  c #99C62D",
"h  c #98C72D",
"j  c #9AC72C",
"k  c #98C62F",
"l  c #99C62F",
"z  c #98C62D",
"x  c #95C82B",
"c  c #96C82B",
"v  c #92C82C",
"b  c #91C82F",
"n  c #93C82F",
"m  c #95C82D",
"M  c #95C82F",
"N  c #97C82E",
"B  c #96C92E",
"V  c #97CA2F",
"C  c #95C82E",
"Z  c #9AC92B",
"A  c #99C82C",
"S  c #9BC82D",
"D  c #9AC92D",
"F  c #98CA2D",
"G  c #99C82E",
"H  c #98C92F",
"J  c #9BC82F",
"K  c #9AC92F",
"L  c #99CB2E",
"P  c #9BCA2E",
"I  c #9CC92E",
"U  c #9DCA2F",
"Y  c #9CCB2F",
"T  c #9FCB2E",
"R  c #9ECC2E",
"E  c #9AC92E",
"W  c #86C131",
"Q  c #85C032",
"!  c #86C133",
"~  c #85C131",
"^  c #88C230",
"/  c #89C330",
"(  c #8BC230",
")  c #8BC233",
"_  c #8DC131",
"`  c #8CC230",
"'  c #8FC330",
"]  c #88C431",
"[  c #8BC630",
"{  c #8AC633",
"}  c #8DC530",
"|  c #8EC430",
" . c #8FC531",
".. c #8FC730",
"X. c #8EC631",
"o. c #8EC533",
"O. c #8FC732",
"+. c #8FC634",
"@. c #8DC431",
"#. c #95C231",
"$. c #96C332",
"%. c #93C530",
"&. c #90C630",
"*. c #91C630",
"=. c #93C532",
"-. c #90C632",
";. c #91C733",
":. c #94C631",
">. c #97C433",
",. c #94C633",
"<. c #92C631",
"1. c #99C730",
"2. c #9AC730",
"3. c #99C631",
"4. c #93C830",
"5. c #92C930",
"6. c #97C830",
"7. c #96C930",
"8. c #96C831",
"9. c #96C833",
"0. c #94CB32",
"q. c #92C834",
"w. c #95C931",
"e. c #9AC831",
"r. c #99CA30",
"t. c #9BC932",
"y. c #99CA32",
"u. c #9CC930",
"i. c #9DCA31",
"p. c #9CCB31",
"a. c #9ECB32",
"s. c #9BC935",
"d. c #9CCA34",
"f. c #9ACA31",
"g. c #A0CC2F",
/* pixels */
"* ( , t 7 , w q q 0 8 $ > 8 w , t 1.g 7 7 7 7 K I K 7 t , , , 8 , , w 0 g q N N g t , , > *.7 , , , , 7 N , , # & * # # , , - - ",
"& - ( N 7 = 8 7 8 0 = = = 8 w , 7 8 t N e.t N K R g 7 7 7 7 : q N t 7 , g x K A N 4., , , , , , , , , , b , , , & & * * * * & O ",
"* ! ! K 7 8 8 t 7 0 q 0 8 0 q 7 7 8 7 3 3 g K g K j t q q w w A j t , t K q K N 7 3 , , , , , , * * & * , > , * & . & , > * * > ",
"> o.] :.N t N e.8.w j q g q 8 , , 7 7 3 7 t 8.7 7 x q t w , w t t t 3 , 3 t x w q t , 7 , > # , > , , , , & & @ & O & * & * , & ",
"+.8.o.t p.p.p.I g j I t t 7 q * , 8 d.y 3 t t 3 8 t 0 0 8 , , 7 N , o.7 , , > , , > 7 , , 7 > t , > , , , * , * & # & & # # > , ",
"> o.] N K R K g K K 0 w q , 8 * 7 * $.$.:.K g = , 3 t 0 0 , , *.b , , 7 o., > , , , , * > w 7 A t q 8.> , , , , , , ` & & * , t ",
"] q.7 8.K p.R I q w = < w , 8 N , , 3 3 t s.t 7 7 t 8.3 8 , N N *., , 8.t N b > , * > * # , q t * * N 3 ` , 7 > > , & * , > * & ",
"*.b b o.K I g.g : 8 < q 7 , , t K , *.*.:.d.K e.K K e.7 o.] , , > > , , N K N , o.4.8.t , * , > , 7 t w & > , * , , * , > & # % ",
"*., * * t t N q , 8 q x q , 3 7 q 7 K 1.K p.g I I K p.7 , ( ! > , o.] ( e.N , b , 7 7 b *., , , * * 0 7 > # # , , t * , * & # O ",
"> ! + & , 8 8 7 w x q x q , :.t 7 3 t g g 1.g p.I K g , * ( q.& ( +.o.` e.e.7 4., , e., * , * , , t t , , * > 7 7 q , , , : , , ",
"- - + > : w 8 8 < < w w , , 7 t 1.7 t 7 t t t e.I I > * , , ; - +.*., , t 7 N K 7 , , 3 * * & & , > , > > * 7 > > K y 7 > , , * ",
"O - O * , w 7 , 7 t 7 , w > , 7 t K 8.t g N N K K 7 * , , , & ; - ( +.( , *.b , , 7 * , > * > 7 , > , > , 7 7 7 7 g 3 , , t w 3 ",
"> > - * > 7 7 , > 7 *., , > , , 3 t t t t 7 3 8 t 7 * * & > & > * - O O * > , * t t , , , > > , , & > , t N 7 , , , > > , , , j ",
"& ] { , , 8.N *.7 7 *.$ * * N w , , t t 3 7 , , , , > , , b ` , > ( & > , > * , 8 7 , * & , 7 , > * K , 7 7 , 7 , , , > , q t j ",
", > * , , 7 8., , , , > , , N 8 , N 7 7 7 , , , * , , , , , , , & > & > > > t , > , > , , 7 , , 3 , R , t K 7 * , 7 , , j j 8 0 ",
"> > , 7 *., 7 , > , , , 7 x : , w , * , 7 , , , , * , , ` , # ` & ( & * , w t , * * , , , * * , * * , > , , , , , , * , 7 0 8 8 ",
"> , * K N N :.> > > > > , 8 > , , > > *.N K K 7 *.` > , , * # ` *.` * t :.7 1.7 , , , , ` > # $ * , , * > * , , , t q t x q , , ",
"> , , o., , # & & , > & * * & * , & , , p.N 7 o., & * , , , & , o.; * R 7 , 8., 7 3 > , * , * = = , , * * * * $ w N q t q x K N ",
"* , , , 7 3 * & > > * > , , * * , , b N 7 , N , , , 4.* , , > 7 * * * > > , , , I K j 7 , , , , * , 8 , > & , > 8 0 j x j N j w ",
", 7 , , , , , > > & , 3 , & & , , 8 7 t 7 , , , I b , , :.e.8.t 3 * , , * , * , q t K t 8 , , > , , , , , > > > , , , w w K q 8 ",
"t 8 , , > t o.> * , w t , , , , 7 #., , 7 , , , 7 7 *.7 N b N N 3 = 8 3 * * * , 7 8 w 3 , , , * * & , , > > , , , , , , 7 K x w ",
"K t g , , , , , > , , , , , > , , , , , *., , o.*.b :.N , 7 3 t , * = t t K K t 3 3 $ , w 7 N 3 * * w * & , * & > > > > 7 t : , ",
"g g g I 7 , , 7 N N 7 7 , , , , 7 , , , , ` , o.b 4., 7 , , , * 7 7 7 7 t I g j 0 y 3 , t 7 b t , 8 8 * 8 , # & * , > & * * & > ",
"K K t N t t , , 7 K N 1.7 , b 7 , , , ( , , , b N o.*.N , t g K N 3 t K 0 , = q y K N N K t K L 7 7 3 3 t 3 # # , > & > , , , * ",
"I I g K 7 t > , 8., t 7 8.8.K e.7 , , , ] ] , N *., 8.b , t g y 7 K , t 7 t q q 8 = w A K t w K 7 7 , , 3 7 * & > & > , 3 & & , ",
"t q q K N K t *.N b e.N I b , , , o.] , , o.o.o., , 7 N N g j K 7 8 , g g 8 t , 3 8 7 q q t K A t , , , , 7 , > > , 7 7 , * * > ",
"8 g q N N g t N p.N :.8.p.8.t 8.N , , , o.q., , *.*., *.t t q g t , N y 8 = 8 t 8 , 7 g j g g I 1.t 8 > , , 7 , , , , , , > , , ",
", g q K N 8., , 7 7 , o.N N p.y.p., > o., o., o.o.o., , w 7 , t 0 , , = = * , , * 8 j x K j t K t t 1.K , , , 7 t 7 7 , , , > , ",
"t x 7 , , o.*., , o.4.*.K K b 7 L 4., , , , , , *.*.*.*.w , $ , K I 8 = g 0 = * * 8 8 , t g q R K K t N t t , , t K N N , , > 7 ",
"N w > , > , , ..7 , 4.8.7 , , , , 4.o.8., > , 7 e.e.p.N , , 8 * K q = = 3 t 7 8 * $ q q g q 0 g I K 8.N 7 q , , 8.7 7 7 7 , > , ",
", 7 , > > ] o., ] N 8., 7 7 b 7 7 , 8.8.b > , e.7 7 N K w , , , g g q 8 , , , , , $ = q y = 8 t t g g I 8.g 7 7 q 7 , , 7 , , 7 ",
", 7 ] > > , , o., , > > * , 8.7 , , b , 7 ] , *.7 , , , 7 e.q 7 , 8 q , 8 7 w < w = 0 w 7 , , , 8 j q N N g 7 , , , 7 , , 7 , o.",
", ` > - & , , , 7 , , , , 7 N 8., o., , , ] , o.4.o.b 7 8.t t t :., 7 , * 7 * 8 q 0 K A x 8.7 , 8 K N K x b b , , , , o., , , , ",
", , * - & , > & > > , 8.b 7 b 4.o.*.] *., , > ! 4., o.8.I K 8.N I , , , * * * 8 g K q t A K q , q K q N K t , , o., , , , * , # ",
"> , , - - > ~ > , o., , 7 N 7 ..q.q.> , o., > > > , > 4.e.> , 7 b , , , , 3 , , q 0 K q x t 7 , 8 7 g N 7 w b , 7 , * & > * > , ",
", , > , - , o., o., , o.7 p.N , , o.q.` ` > > > , *., , , > > , b 8.b 8., t , * 0 q x 7 q K , , , , , , , > , 7 o., 3 * t , , , ",
", 7 , , o.( ) ; ! o.t , , :.& * * & O & - - + * b > > , , N , , b 8.q.e.N 7 7 , y N , ] , 7 , 7 7 , , > , , , , , > w 7 K q t K ",
"*.*., 7 t 4.o.) o.o., > > , , > > ! & > ~ Q O * > > , > > , 8.b b b 8.*.7 3 , 7 e.7 , N b 7 , *.4., N , > 3 * > * & , 7 N * * v ",
"o., > , , & , > > , & & * o., ! > > O - ] ! ~ > o.> o.o., , , t K t t 3 7 ` 3 t e.7 , , , 7 7 , , N L N , ` *.t g , > , , , w A ",
", > & > , & , > & O > , 3 , 7 * > & O +.q.] * & , , , o.o.7 7 N K , , 7 , , 8.N g t 8.4.b :.o., , K 8., b , 7 N t *., , , * , 8 ",
", , , , , , , > > , , , , - - o.o.> - > o., 8.+.+.) ( ` 7 N N , , * , 3 , 7 K I e.t K p.e.*., * ` I p.7 b , w 8., > , : , > t t ",
"8., , , > , * * , > , o.7 , - o.] ] * ( +.7 s.] +., , , , N e., , 7 ` 7 7 b t 3 7 8.t 7 e.7 *., 3 I 7 e.K , , , 8 * * # & , * o.",
", , > > > > , , > > , N K x > > > , 8.> , , * 8 w , 7 w , q I , 7 7 t N 3 , , 7 3 7 8 * w t , e.7 *.7 7 > o., , , > > , 7 , , 7 ",
", , , , > , , > * , t , > > & > N > > > & # # # # * , b 7 , t 8 t t 7 , 3 * * , 7 7 3 , 7 b , N 7 , , , * 0 t , , , > , 7 ` o.7 ",
"7 , , , , , 8., * , , 7 K : $ & g , , > * & & * # * , 3 3 7 N g w K >., * * , 4.K N , 7 7 7 N t 8.o., , , y t , * & , 7 * 7 4.N ",
"7 , o., , t 7 , 7 K t , : # # # # , , , , & & & > , , 3 , * > 7 7 w >.` 7 7 t 9.e.#.3 K t t N g t , 7 o., , , , , , :., 7 p.e.L ",
"t 8., o.*., > , , 7 , * , & * * * * > & * & . # > > * 3 , * , , , 4.:.7 N b t I I N e.g j t t 7 8 7 7 , , * > , w , , * I N N p.",
"7 , , , > > > , 7 , * & & , , , > > > $ % & & O & # & > > , * , , *.8.t 7 , 3 w K 7 x K I t q , > b e.K , , , , > , , , , , , 7 ",
":., , , > , , , , , t , 0 N * t , , > , > , # * & # # & , 7 , N , 8 :.t 7 7 7 7 K A t t t , , * * , N e.7 8 , > # , , b 7 7 7 7 ",
"*.o., , , , , > * & 8 w x t < A , , , 7 > , , *.# & & , 8 , > , * & > t 8.e.t N K I t t 7 7 w , = * , K 8., * , > > ! > , N 8.4.",
"N b x e., , * > , * & , 7 7 * t q , , , , > > * & , > * # & > , 7 , 7 3 3 y g I g I t w 8 q w , 8 > , I 8., , 8., , , , N e.8.8.",
", N e.N 7 , b e.t e., > > * , 8 q > $ $ , * 7 , , * & # % O O & 7 , , * 3 7 t N 8 q x g y w 3 * , 8 8.g t 7 , , > b N 7 b b 8.t ",
", t p.*.7 t , N 7 , , > * , , y g , $ & > , t 3 , > & * # & & > , , , , * , t t 8 8 7 8 y 8 * * 8 8 q e.:.K 7 ( , , 7 t b 7 N *.",
", 1.p.e.8.b > e.7 * * * & * , 7 * > > , 7 7 v , , , > , 7 , , & & # & 3 & 7 g t * = 3 7 8 q 0 3 8 q 7 t 8., , o., > ` N I t 7 , ",
"3 N *.b N t ` *.* , , * > , , , , , * , , * 3 g t , , 7 , * , , @ * q 7 * * >.t 7 0 t e., q q g y 7 w 3 ` ( > ( o.t , , :., , , ",
"4.7 , b > , q & , > , & , , > > > * :.K 7 7 t w , > , 7 , & & * # > y , $ # = g g t g K t Z j q j t 7 +.q.+.] o., , > > , ` , , ",
"b 7 , , , = I * > * > , , , & * , 7 K 7 , : , * , , , , y t t * & * * , = $ $ , t K K I I K 8 7 7 7 e.q.! & > > , > > * * ` 7 4.",
"8.o., , , , 7 o.> , , , , * * t N 7 N b 7 , > > , , , 7 t $ g 7 # , $ & * , , * w , t g q 0 w b *.7 o.! + - > O O > * 7 8.7 7 t ",
"N 7 , 7 , > > > , , , 7 , = * I 7 , t , , , , 3 * K , > & * , , > * # & > t w < , > : > , , * +., & & O ! ` ] > > , 7 , 7 N t 3 ",
"7 *.t N , , * , , o.* * * * * , > , > * , 8 , 7 , , , : > * , > > & , > , = N : * > b , > - O * > ~ O O + > ~ > & , , , , j p.` ",
"7 8.e.R 1., , , > , , * $ * , , * , * * , , w w , , > , , > , , , , > > > > , > , , , O O - - - > + & - & ~ > ( , , , , 3 7 1.q.",
"7 , 7 N N 7 , & , > , * * = , , * * * , w 8 , 7 w 3 , * > * 7 , > , , > , 8 , , 7 ] & o   o O + + O + & ] ( ( , > , *.7 *.9.7 t ",
"7 , , , 8.7 , , , , o.> , 3 = t t K I 8.7 3 , , , 7 N 8 > * 7 * & , > & , , > , , , ( O o O > > > > + ( +., , o., o.:.t *.b :.g ",
"7 , , > , b 7 , , * *.4.7 t w w g g g g y t 3 7 q 7 x b 7 , , * 8 , 3 * w N , * # & & * o X o ~ ( ) ` 7 , , , o., , :.,.>.e.t 8 "
};
