/* XPM */
static char *f3778a6cfea747479d808b7ff0e58305MvPR0I7f3mFcExoY[] = {
/* columns rows colors chars-per-pixel */
"64 64 253 2 ",
"   c #310F05",
".  c #122F17",
"X  c #3A2506",
"o  c #323111",
"O  c #153B29",
"+  c #09372B",
"@  c #283928",
"#  c #38322F",
"$  c #492A06",
"%  c #492D1A",
"&  c #542D19",
"*  c #59311D",
"=  c #522F0D",
"-  c #692D08",
";  c #6E350F",
":  c #4C392B",
">  c #5C352B",
",  c #57382A",
"<  c #463B36",
"1  c #593C32",
"2  c #522E24",
"3  c #62362C",
"4  c #66372B",
"5  c #773625",
"6  c #653C33",
"7  c #6D342A",
"8  c #1B462D",
"9  c #26492C",
"0  c #27552D",
"q  c #274D32",
"w  c #344937",
"e  c #265333",
"r  c #2A5433",
"t  c #295B34",
"y  c #2A5D3B",
"u  c #275938",
"i  c #345837",
"p  c #35482E",
"a  c #2A643D",
"s  c #296C3C",
"d  c #276636",
"f  c #34643A",
"g  c #2A7C3D",
"h  c #28763B",
"j  c #29702F",
"k  c #3C4101",
"l  c #705010",
"z  c #756F19",
"x  c #5A412E",
"c  c #594434",
"v  c #4A502F",
"b  c #664536",
"n  c #6B5537",
"m  c #725738",
"M  c #6E4A2F",
"N  c #586A29",
"B  c #707330",
"V  c #52641B",
"C  c #443C41",
"Z  c #2D5C41",
"A  c #355C42",
"S  c #2D6443",
"D  c #2C6C42",
"F  c #2D7443",
"G  c #2D7B42",
"H  c #2E7E4B",
"J  c #347748",
"K  c #327248",
"L  c #594946",
"P  c #525254",
"I  c #644D43",
"U  c #6E584D",
"Y  c #7C6A4E",
"T  c #645A63",
"R  c #746D70",
"E  c #505F5D",
"W  c #990503",
"Q  c #863522",
"!  c #A82E29",
"~  c #B2100E",
"^  c #CC0B0B",
"/  c #DF2020",
"(  c #874D19",
")  c #97680F",
"_  c #AC7011",
"`  c #8D4F2C",
"'  c #8B6E2D",
"]  c #B06F30",
"[  c #B6521C",
"{  c #C87614",
"}  c #CC6F2C",
"|  c #C45D1A",
" . c #8E5544",
".. c #847752",
"X. c #917169",
"o. c #AF6D4E",
"O. c #DA784C",
"+. c #119A1A",
"@. c #25981E",
"#. c #18A81E",
"$. c #269923",
"%. c #268C3E",
"&. c #2B853D",
"*. c #2F912E",
"=. c #1BA522",
"-. c #26A928",
";. c #2AB42B",
":. c #2FAD33",
">. c #2FA31C",
",. c #62881D",
"<. c #69921F",
"1. c #4B9031",
"2. c #698826",
"3. c #77952E",
"4. c #7BA625",
"5. c #7EBB2D",
"6. c #79B52A",
"7. c #7FBD30",
"8. c #76A832",
"9. c #549A20",
"0. c #2BCC32",
"q. c #2CE339",
"w. c #74D135",
"e. c #2B8C43",
"r. c #2B8641",
"t. c #358C49",
"y. c #368848",
"u. c #289745",
"i. c #34964B",
"p. c #398A57",
"a. c #3B9459",
"s. c #38A756",
"d. c #3BB35D",
"f. c #31A34D",
"g. c #3D9961",
"h. c #3EA762",
"j. c #3BB763",
"k. c #468C56",
"l. c #71914B",
"z. c #40AE5C",
"x. c #6AAC51",
"c. c #4B9063",
"v. c #44A869",
"b. c #47B966",
"n. c #4EB871",
"m. c #668C65",
"M. c #38F44B",
"N. c #3DCC53",
"B. c #73D053",
"V. c #57C36E",
"C. c #58C875",
"Z. c #52CA73",
"A. c #68D07A",
"S. c #4CD444",
"D. c #BA8505",
"F. c #AE8714",
"G. c #889338",
"H. c #B88B2E",
"J. c #83AB28",
"K. c #85BD2B",
"L. c #8ABE2B",
"P. c #86B629",
"I. c #91BE2B",
"U. c #82BE31",
"Y. c #8BBA35",
"T. c #8BB036",
"R. c #A0AC30",
"E. c #CC9615",
"W. c #CDA70E",
"Q. c #D0922F",
"!. c #F0922E",
"~. c #CCAE2E",
"^. c #85C12C",
"/. c #8CC32C",
"(. c #8CC127",
"). c #92C52D",
"_. c #98C62D",
"`. c #95C82E",
"'. c #9ACA2E",
"]. c #92C627",
"[. c #85C131",
"{. c #8CC431",
"}. c #87C33D",
"|. c #92C631",
" X c #99C633",
".X c #95C931",
"XX c #9BCA31",
"oX c #97C63C",
"OX c #9EDA3A",
"+X c #AACA32",
"@X c #858F4F",
"#X c #B48B55",
"$X c #8AA856",
"%X c #92B34B",
"&X c #ABB646",
"*X c #939070",
"=X c #B68967",
"-X c #B2B471",
";X c #8FA370",
":X c #CF8F52",
">X c #EC8A55",
",X c #CDAD5C",
"<X c #D9AE70",
"1X c #E7B778",
"2X c #F5AE76",
"3X c #E0985E",
"4X c #96C748",
"5X c #93CB53",
"6X c #ADC450",
"7X c #A8C96A",
"8X c #98DC77",
"9X c #D1CB73",
"0X c #797986",
"qX c #817D8A",
"wX c #67D883",
"eX c #72D889",
"rX c #77E58C",
"tX c #7C8F8D",
"yX c #8C8A97",
"uX c #909090",
"iX c #96A98A",
"pX c #9999A8",
"aX c #A29EAB",
"sX c #AAACBB",
"dX c #A6A6B6",
"fX c #AEAEB4",
"gX c #ABA190",
"hX c #F8BA85",
"jX c #E1BE99",
"kX c #CEB6A9",
"lX c #D5B396",
"zX c #B7D08E",
"xX c #88E894",
"cX c #97F1A8",
"vX c #A5F3B1",
"bX c #9AE695",
"nX c #FCC789",
"mX c #FBC899",
"MX c #F0D592",
"NX c #CFCBB4",
"BX c #F4D4AB",
"VX c #FFE7A9",
"CX c #F7ECB9",
"ZX c #D3E1A0",
"AX c #B2B6C0",
"SX c #BCC2C5",
"DX c #CCD0CB",
"FX c #DBE6CC",
"GX c #F8F0CD",
"HX c #FCFAE8",
"JX c #FEFEFE",
"KX c #F4F6F8",
"LX c #EDEDE9",
/* pixels */
"L.{./.).)./.).).)._.).I.(.).)./.). X).|.).).).'.'.'.).)./.)././././.).).'.].).)._.)././.^.|.)././././.).`././.K.K.L.K.K././.U.U.",
"K.U.{.`.).I.).).)._.I.I.I.).)./.).).).`.XX).`.'.'._.4X8XbXxXxXA.A.B.}./._.`.'.'.`..X/./././././././././.`./././.K.K.L.L.L./.K.5.",
"L.[.[.'.).).).).)._.)._.)._.).).).).).).)._.'.'.5XvXvXcXxXrXrXrXwXwXC.V.B.w.`..X).)././././././.L.L.K.L./.^./.L.P.5.K./.^.L.L.^.",
"^.{.[.|.`.).`.XX.X)._.)._.).)././.).).|.).|.oXbXvXvXcXxXxXrXrXwXwXC.C.n.n.n.S.w.`.)./.)./.(.K./.(././././.K.K.P.P.5.K.L.K.L./.K.",
"|..X{.).XXXXXX'._._.'.).).).).L./.). X).).4XcXcXvXvXcXxXxXeXeXA.C.C.n.n.v.v.v.N.B.(./././.).(.)./.(./././.L./.L.K.K.K.K.K.K.^./.",
"^.|.{.'.'.'.'._.'.'._.).)./.).L.).I.|.|.5XcXcXvXvXbXxXwXA.C.V.V.b.b.v.v.v.g.c.v.M.w./.L.(.).).'.).)..X(././././.^./.{.K.P.L./.).",
"[.|.)..X'.XX'.'.).).I.).)./.).`./.).).oXxXxXxXrXeXwXC.V.b.b.b.d.d.h.v.g.a.a.p.a.N.M..XL.K./.`.).L.L.`.).{./.).^.^./.K.L./.(.L.K.",
"|.`.`.{.'.'.XX_./.).].).)././.).'.).|.xXrXeXwXwXA.V.n.b.z.z.s.f.i.i.p.p.p.p.H p.s.M.OX+X/.^./././.).).).K.(./.L././.L./.^.K.K.P.",
"|./.L.L.).).`.)./.).).).).).).).).).5XeXA.C.C.C.n.b.v.z.s.i.i.u.r.r.H H J K K K t.q.S.!. X/././.L.L.).).(.K.K././.).L./.L.K.K.5.",
"^.[.7.K./.).).).).].).].).).|.).).{.A.C.Z.Z.V.n.b.z.s.i.i.e.r.&.h s D F D a f S y.q.q.!.~.oXZX/./.).)././.L.(.).).)./././.(././.",
"7.U.7.^.(.).).).].].).).)./.).|..XB.Z.Z.V.b.b.b.z.s.i.t.&.g g h s s a a y y f f J 0.0.Q.!.CXMXL./././.(.^.L.).(.(.`.).).^././.L.",
"5.U.7.L./.).`./.).).)./.)././.).|.C.b.b.b.b.b.d.s.i.t.r.g h h h s s a y t y i i k.0.0.3XBXCXMX)./.^./.^./.).).).)._.)././.).).).",
"^.^.U.L./.).)./././.|././.(./.(.4Xn.j.j.b.d.s.s.i.t.&.g g g h h s a u r t i v i *.;.0.CXCXVX9X/./.K.(./.).`.)./././.(.^./././._.",
"K.[.{././..X`.|.).).|.L.L.(.`.).x.j.d.d.d.s.f.u.e.&.&.g g g h h s a y r r i N v $.9.8XCXVXmX3XL./.L.'./.).)./.)./././.(./.).).).",
"/.^.L././.|..X/./././.(././.`.).x.h.d.s.s.u.u.%.%.&.&.g g h F F D S t r r r v f >.8.VXVXmXnXQ./.)./.'./.).'./.L./.)././._.).)._.",
"^.^./.).|./.)./.^./././.).`././.x.h.s.s.u.u.%.&.&.&.&.g g g h s a a r r 0 r i j @.G.nXnXnX<XL.(.L.L./.(././././././.L./.)._.).).",
"(./.L.'..X`..X/.(.(.(.^./.).(./.x.a.f.i.u.%.e.e.&.&.r.&.G F F s a A q q r r t $.$.#X2X2XhX6XK.L.L././.L.(.L./././._._.).].)././.",
"^./././././.K.L.L./.L.K.L.L.K.L.x.a.i.u.%.%.e.t.y.r.&.r.G F F S y i r r r r j -.$.:X2X2X1X/.L.I.I././.L.K.L.L.P.).'._._.).].'.`.",
"K.(././.).).L.K.^.^.^.(././././.x.k.t.e.&.%.t.t.t.y.r.G G F D a y r r e e t -.-.*.>X2X2X&X/././.L./.)./.(.K./.(.)._._.]._.]._.).",
"/././././././.^.^.^./.)./.K.K./.x.k.t.e.%.e.t.t.k.p.r.g G h s y q r r r r &.;.-.B >X2X1X)././.(./././././.^.(.(./././.).).XX).).",
")./././.(.).{.(.^./.).)./.(././.T.c.y.e.%.%.t.k.a.p.y.G F s a e q r r r j ;.;.-.] >X2XQ. X)././.L.K././.(.(././././././.).'.].).",
"`.)._./././././././././././.^./.{.m.y.e.%.e.i.i.t.t.r.G h a u 8 r r r t :.;.;.' ] >X!.E.6X)..X).L.L.).L.L./.L.K.(.(.^.(.).)././.",
"'.).).'.)././.`..X`.).)././.7XZXFXiXk.e.%.e.t.t.t.y.r.G s a q q e r t *.:.;.9._ } >X{ E.&X).`.`./.).).L././.K.K.L././.K.L.L.K.(.",
"4XFXFXZX7XoX/./.).'.`..X/.|.MXCXGXFXc.y.%.%.t.t.p.y.r.h d t q 9 9 0 *.;.;.>._ _ } | { E.~.'.XXXX).).).).).).K.K././.K.(./././.L.",
"zXJXJXJXLXfXFXzX7X/.|.|.XX.XXXMXVXVXiXk.e.e.e.t.t.y.G h t e 9 9 0 *.-.-.$.) _ D.} [ { E.,X-X%X4X|.)./././.).L.L.^.K.(./.).K.K./.",
"FXJXJXJXJXLXfXDXDX7X X|.XX)./. X9XMXMXm.y.e.e.t.t.r.g j 0 9 9 d -.=.=.$.z _ D.E.} [ { E.,XfXaXaXuX)././.(.).{.^.^./.).)./.L.L.(.",
"KXJXJXJXJXJXJXSXDXAX7X.XXX.X|..X`.6XnX1Xm.r.e.t.y.r.h t q 0 *.#.+.+.@.' _ D.E.E.} [ } Q.:XfXfXfXyXY.).(././.)././././././.(././.",
"KXJXJXJXJXJXJXKXSXSXfX7X`.).XXXXXX/.6X1X<Xt.%.e.y.g j j *.=.#.+.+.@.' ] H.E.W.E.} } ] } #XaXaXdXuX$X_.'./././.).).).)./././.(./.",
"NXKXJXJXJXJXJXJXKXSXNXNX6X'.`.).'.|./. X6X$Xr.e.r.h *.-.-.+.+.+.1.) _ D.E.~.W.E.O.O.[ ] =XdXdXdXaX;X).].).)././.).'.`.`././.(.).",
".XzXLXJXJXJXJXJXJXKXSXNXBX6X/././..X{.`./.^.1.r.g &.1.*.*.@.*.' ] ] _ D.W.~.~.} O.R ] ] gXdXdXaXpXuX).`.).)././..X).).).)./.(./.",
"/.).7XFXJXJXJXJXJXJXKXfXNXBX6X).).|.XX.X.X^.&Xl.' B z B z ) _ F.H._ ) _ W.W.E.] X.yXo.] aXdXaXyXR yX_.XX`.).).`.).)././.)././.).",
"(.).[.4XFXJXJXJXJXJXJXKXAXNXBX4X/.{.`./..X{.R.:X] ] _ ] ] ] D.H.F.) $ o : z l m T X. .] uXpXqXP L 0X X`.'._.)./././.)././.)./.{.",
"/.{.^.K.}.NXJXJXJXJXJXJXKXsXNXjXoX{.(././.4.J.:XQ.H.] ] ] ) ) _ l o @ 9 9 9 0 i q 7 5 ; 7 T < < L 0X4X'.).`.`.{./././.{././././.",
"/./.[.U.K./.zXLXJXJXJXJXJXKXAXkXlXoX[.I.z k o ' Q.Q.E._ ; - - = . @ 9 9 0 0 t t t p 5 ; - # # # P qX%X'.).)././.{././././.(./.K.",
"^././.U.U.^.[.7XLXJXJXJXJXJXKXDXgX-X#X] = X X G.~._ l ; - - ; ; @ 9 9 q t d d d d t 3 7 - # # C R yX$X`.).).)./.)./.L.K.(.L.(./.",
"/.).L./.7.[.{./.4XFXJXJXJXJXJXGX<X:XH.] = X o 3.( ; ; ( ; 5 7 7 O 8 9 e u a a a a a v 4 * # C T 0XpX$X/././././.{./.).L.)./././.",
"{.)./././.[.{.Y.{.4XZXJXJXHXjX:X:X] ] ` Y #X=Xo.( ; ( ( Q 5 ; $ + O 9 e u d a S a a i 6 & L T R pXpXl.(./././././.(.).).'.).).'.",
"|././.)..X.X{.{.{.{.{.ZXJXjX=X#X] ] ` kXHXmX1X<X:X( ` Q 5 - $ . + 8 e u a a a S a S u 6 < L R yXdXpX;X/./.).L.(.L.K./.).`.L.L.`.",
"{./.L.L./.K./.[.4XzXLXJXLXlX=X] ` M NXJXJXGXnX1X3X] 5 5 l n @ . O 8 e y y a a S S S Z v < R yXaXsXpX%X`././.|.)._./.(./././.).'.",
"/.^.K././.(./.&XLXJXJXLXkX=X` M * *XHXHXHXGXmX1X3X] ; l P.m.w O O 9 u y y y a S S S Z w P yXdXsXsXpX%X/.)./.)..X).|./././.L./.).",
"/././././././.-XDXkXgXX. .b > > % CXHXGXGXCXmX<X:X] B Y.).l.w O 8 9 u y Z y Z S S S S A pXdXsXsXAXpXoX|..X/.)..X/.(./.(./.(.).).",
"`./././.^././.m I I I I L : 2 : , BXCXGXVXmX2X:X] ' J.)./.l.w O @ p p w w w i i Z Z Z A sXdXsXsXAXuX).XXXX{././.).L.L.K.K./.L.{.",
"/././.^.^.(./.Y I I I I c : x 3.T.MXmXBXmXhX>X` 5 ! z )./.v : % % 2 2 , > > > > , : v w pXdXsXsXsX;X).|.(.{./././.(.(./.)././.).",
")././.{.^./././.P.G.G.3.3.3.P.(.|.6XmXhXhX3X` M W ^ Q /.$Xc & & 2 2 , > > > > 3 > > > > yXdXdXsXdX$X/./.L._.).L././.(./.).{.{.).",
")./.{.{.[./..X/./././.).XX/.K.K.)./.9XhXhX:X` ~ W ~ ! P...1 & & 2 2 > > > 3 3 > 3 3 3 3 T R pXsXpXY./././.).)./.L.K./.).L.)..X`.",
"/././././.`.{.[.).'.)././.K.K.P.K.)./.&X,XT.` / ^ ^ Q T.Y 1 & 2 2 > , > > 3 3 3 6 6 6 3 X.sXyXsXiX/.).{./.(.(.^././.|./.).XXXX'.",
")..X/.{././.^././.)./.L./.L.L.L./.(./.L.L.P. ./ / / ' %XU , & 2 : : : < : : : : , , > > ..fXsXdX%X|.)././.L././.)././.L.'.`.`.XX",
"|./././.(./.^.(.)./.(.K.K./././././.L.P.K.6...o.! m P.l.v p r y a S S S S S S S S S Z i B  X5X%X/.`.'.'././././.(././././././.).",
".X{././.^./././././.)./._.`.L.)././.(./.(./.K.Y.U.K.K.l.A e t d s h h F F D D D K K D a l././.L.L./.`.XX).)./.(.K././.`.).).|.).",
"|.{./././././.(.L.K./.).].).).'.(././.)././.(.|.K.K.T.n X     o a h F G G G G G G J F s l.).)././././.'..X/.K./.(.^.[.(./.`..X.X",
"`.`.].XX/./.L.(./.L.K./.).).L.).`././././.^.(.L.K.G.Y * = $ X X X E K G G G G G g G G h l.).)././.(./.'..X/./..X/./././.`.XX.X.X",
"/.`.XX`.)./.`.XX).XX/.(.(.L./.).).(.P.L.L.L.)./.3.n M , 1 * $ $ X T P 8 D J F G G G G h l.).).L.(.)..X_.).)././.[.`.`.).`..X.X).",
"/.).XX|.).)./.`.)././.(.L././.).)./.P.K.(./.).P.m m m n x > & & % R w . @ P E J J G h h 3.).I.L.).).).XX|.'.).{./././.|.`.).`.|.",
"/. XXXXX.X`.(.XX).L.L.L.K.L./.).L.(.(./.).).`.G.m m m m n , 3 * % P # @ p E 0XyXyXtXuXY._.).I.I.).).).)..X/./.{./.(.{.`.'.).)./.",
").`.|.`.`.).{.|.L././.L.^././././.^.L././.L./.B m n n n n x 3 * n 3.2.8.N o L R pXaXiX X).]._._.).).).).{.{.[.{.{.)././.|./././.",
".X)./.`.^./.).K./.(./.K././.(.^./.L.).`.).).I.c b n n n n b > U J.I.).L.v % , % % U $XXX).'._.)._.).).{.|.{.[.{././.(.(./.{././.",
"`.)./././.I.XXL./.K././././.K././.).).)./.(.J.x x c c n n M b %XK.L.I.J.% 2 6 6 b , z '.'.'.).).).). X|.[.5.^.^./.^.^.L.L.{.)..X",
".X|.{./././.).{.^././.)./.L.L.).`.).'..X)./.3.1 x x 1 c c b ..).P./.K.B $ & 3 6 b U %X X).).).`.).|.{.^.7.K.^.7.5.^.L.)..X).).).",
"`.)./.).{./.(.^./.L./.)./.).L.'.)./.)././.).B 1 x 1 x 1 x c uX{.(.K.K.I = > 3 4 b Y /./././.L.{./.L.K.7.U.{.{.K.^./.).).).`.).).",
")./.).`./.L.L././.{.L.L.L.L.L./.(././.L././.n c x 1 1 1 1 I uXY.^.K.%X: > 3 4 6 M X.Y.).^.U.5.U.[.[.5.K.K.[.^.^.K././././._.XX{.",
")..XXX'.`.)./././././.L.P.L././.K./.K.L.L.L.@XU c c c x c I *X^./.K.B : 1 > 4 M m *X%X5.5.U.U.U.^.7.K.U.K.^./././././././.). X|.",
")./.).`..X).L.L./.K./.K.K.P.K.P.P.J.4.4.J.4.3.l.R c : : : n J.4.4.4.3.N v x 1 b U uX$X6.6.6.5.5.7.5.7.K.[.{.{.{.(./.|.).|.|.).|.",
")././.{..X).L././.(.L.P.P.P.J.P.J.J.J.4.3.<.,.,.2.2.N V V N ,.N ,.,.2.<.,.,.2.B B @X8.6.6.6.L.K.5.5.7./.|././.{./.{.|.).|.`.|._.",
")./.{././.`././.L.L.)././.I.L.L.L.I.P.P.J.J.4.4.4.4.4.4.4.4.4.4.4.4.4.4.P.P.P.P.6.6.5.K.6.6.5.U.{.[.{.).{././.{././.|. X XXX).)."
};
