/* XPM */
static char *_6c6c38809d148c1a62a948cdaf6416biKzgYax03s1UHIJr[] = {
/* columns rows colors chars-per-pixel */
"64 64 256 2 ",
"   c #35180D",
".  c #183719",
"X  c #312913",
"o  c #352E26",
"O  c #481C0E",
"+  c #492719",
"@  c #552718",
"#  c #563310",
"$  c #773816",
"%  c #6B2E13",
"&  c #532D22",
"*  c #593429",
"=  c #4A352D",
"-  c #693929",
";  c #753C26",
":  c #66392C",
">  c #651C09",
",  c #2A4319",
"<  c #1D4A2B",
"1  c #1F572B",
"2  c #26482B",
"3  c #29552A",
"4  c #2B4D32",
"5  c #295634",
"6  c #375738",
"7  c #355131",
"8  c #2B6638",
"9  c #306A33",
"0  c #1F6A20",
"q  c #4C5016",
"w  c #79441B",
"e  c #6D671C",
"r  c #4E5035",
"t  c #794424",
"y  c #6A4538",
"u  c #784536",
"i  c #6B512E",
"p  c #4B7635",
"a  c #746F2B",
"s  c #57741A",
"d  c #377145",
"f  c #565343",
"g  c #685649",
"h  c #70564D",
"j  c #4B6E4C",
"k  c #6E6953",
"l  c #6A6467",
"z  c #746F70",
"x  c #5E6961",
"c  c #89390F",
"v  c #AE3B2E",
"b  c #973F25",
"n  c #87481A",
"m  c #96571B",
"M  c #944A10",
"N  c #B65B1C",
"B  c #A45114",
"V  c #907317",
"C  c #BA6916",
"Z  c #AF6916",
"A  c #874828",
"S  c #915130",
"D  c #A75826",
"F  c #BA5B26",
"G  c #AB552F",
"H  c #966D2D",
"J  c #A4652C",
"K  c #B96729",
"L  c #BD732A",
"P  c #BC6634",
"I  c #A76F35",
"U  c #C77210",
"Y  c #D35B2B",
"T  c #C56A2A",
"R  c #D7672C",
"E  c #C87528",
"W  c #D7792A",
"Q  c #D66A36",
"!  c #DA7635",
"~  c #C66F36",
"^  c #E47A2B",
"/  c #E77236",
"(  c #DB5A25",
")  c #845A45",
"_  c #947053",
"`  c #AD7152",
"'  c #877B79",
"]  c #887463",
"[  c #A97967",
"{  c #B84942",
"}  c #D17A4A",
"|  c #E8794A",
" . c #1E9E24",
".. c #2B9728",
"X. c #1BA524",
"o. c #1CB62C",
"O. c #21AC2D",
"+. c #1F9A1D",
"@. c #64881E",
"#. c #538939",
"$. c #749923",
"%. c #6A902F",
"&. c #7BA826",
"*. c #7EBB2D",
"=. c #79B629",
"-. c #7DB932",
";. c #77A834",
":. c #5C9328",
">. c #26CD39",
",. c #38A74D",
"<. c #4D8F54",
"1. c #739951",
"2. c #49A65A",
"3. c #719E5C",
"4. c #32F24E",
"5. c #2BD842",
"6. c #48EF55",
"7. c #5CD74F",
"8. c #8B942F",
"9. c #AA972A",
"0. c #84AB28",
"q. c #84BD2B",
"w. c #8ABE2B",
"e. c #87B728",
"r. c #92BC2C",
"t. c #82BE31",
"y. c #89B735",
"u. c #90AE33",
"i. c #A7AA31",
"p. c #D38A17",
"a. c #D38F10",
"s. c #E99919",
"d. c #F69815",
"f. c #EF8D15",
"g. c #DAA416",
"h. c #F7B80B",
"j. c #FBB617",
"k. c #EFA810",
"l. c #D98826",
"z. c #D69822",
"x. c #D9833A",
"c. c #CC842B",
"v. c #E78626",
"b. c #EB922C",
"n. c #D2B431",
"m. c #FCA826",
"M. c #FEB536",
"N. c #FEB22F",
"B. c #85C12D",
"V. c #8CC22C",
"C. c #8CC127",
"Z. c #93C52D",
"A. c #99C62D",
"S. c #95C82E",
"D. c #9AC92E",
"F. c #93C727",
"G. c #85C131",
"H. c #8CC431",
"J. c #8FC438",
"K. c #92C631",
"L. c #95C931",
"P. c #9BCA31",
"I. c #98C535",
"U. c #ACCE35",
"Y. c #FEC70A",
"T. c #FFD70C",
"R. c #FFD018",
"E. c #FFF916",
"W. c #FFE90E",
"Q. c #D3CE3C",
"!. c #FED82A",
"~. c #FDD736",
"^. c #FEC72F",
"/. c #FEF33A",
"(. c #FCEF2D",
"). c #D4E736",
"_. c #87974C",
"`. c #AC9155",
"'. c #92B14E",
"]. c #B38C6C",
"[. c #98B367",
"{. c #A5BB72",
"}. c #9EA360",
"|. c #DB8959",
" X c #D2884A",
".X c #E88759",
"XX c #F38952",
"oX c #FBB344",
"OX c #CE916E",
"+X c #E89666",
"@X c #F6996A",
"#X c #F5976C",
"$X c #D5A77D",
"%X c #F8A878",
"&X c #EFA574",
"*X c #9AC348",
"=X c #9BC45A",
"-X c #A7C868",
";X c #A4CA63",
":X c #FDD046",
">X c #FAED4B",
",X c #FFD570",
"<X c #FFE26C",
"1X c #CAD14E",
"2X c #7D7C81",
"3X c #888688",
"4X c #999698",
"5X c #928D8E",
"6X c #B09387",
"7X c #B2AD96",
"8X c #A9A7A8",
"9X c #B8B7BA",
"0X c #B1AFAF",
"qX c #A09CA2",
"wX c #C39C88",
"eX c #DAA987",
"rX c #DCB291",
"tX c #FBAD81",
"yX c #FEBB8C",
"uX c #FBB585",
"iX c #E9B995",
"pX c #F9BC97",
"aX c #E7AE88",
"sX c #CAB2A6",
"dX c #F7BEA1",
"fX c #BBC697",
"gX c #FCC38E",
"hX c #FFC394",
"jX c #FECB9C",
"kX c #F8C698",
"lX c #F0D39A",
"zX c #C9CCAD",
"xX c #FBC9A4",
"cX c #FEDBAC",
"vX c #FED4A7",
"bX c #FEDCB5",
"nX c #E6CAA6",
"mX c #FFE4B3",
"MX c #FFEDBB",
"NX c #FFE8B8",
"BX c #FEF3BE",
"VX c #F8E2B1",
"CX c #C3D89D",
"ZX c #BDBDC2",
"AX c #C0BFC4",
"SX c #BFC0C5",
"DX c #C2C2C5",
"FX c #C4C5CA",
"GX c #C9CACC",
"HX c #C9C7C9",
"JX c #CFD1D0",
"KX c #FEF7C6",
"LX c #FEFAD3",
"PX c #FFE8C2",
"IX c #ECEDEB",
"UX c #DDDEE0",
/* pixels */
"w.H.V.K.S.C.S.F.r.F.C.w.C.C.F.C.Z.A.A.K.Z.A.S.L.P.n.Q.~././.).).U.r.V.Z.A.S.S.S.D.S.V.V.V.K.S.V.V.H.V.S.S.V.V.e.w.w.e.q.V.q.t.t.",
"*.t.H.A.S.r.Z.Z.F.r.r.r.r.S.S.V.Z.Z.Z.L.P.K.7.=XoXoXoX:X:X:X>X>X/./.).A.Z.S.D.A.S.S.V.V.H.V.V.V.H.V.C.V.Z.V.V.V.*.*.q.V.w.V.*.*.",
"t.G.t.P.S.w.Z.S.A.r.A.Z.Z.S.S.S.K.V.L.P.7.6.7.b.b.m.m.m.N.M.:X<X<X>X>X>X).A.D.A.S.V.V.V.H.C.B.V.w.w.w.B.V.B.B.B.*.=.e.B.V.w.C.B.",
"G.H.H.K.S.A.S.D.A.Z.A.A.A.A.C.w.H.L.K.6.4.6.n.v.f.f.d.d.m.oX,XvXmX<X>X>X/.).U.S.F.S.H.V.V.B.q.V.w.V.C.V.V.q.q.e.e.*.q.C.q.w.V.q.",
"H.L.H.S.D.P.D.D.A.A.D.r.F.S.S.w.H.*X4.4.4.n.^.(.!.j.d.f.d.d.d.m.N.M.M.:X:X!./.U.*.B.S.H.C.S.w.S.V.V.V.V.V.w.V.q.w.e.q.q.q.q.q.C.",
"G.K.H.S.D.P.D.D.D.A.A.Z.S.w.Z.w.'.2.4.4.*XR.(.E.(./.<Xm.f.f.f.d.d.m.N.M.:X:X!.(.Q.q.V.B.w.C.S.D.F.S.L.w.C.C.V.V.B.V.w.q.*.q.V.S.",
"G.L.H.L.D.P.P.D.A.F.w.F.S.V.V.3.<.4.4.6.s.R.W.E.E.(.LX<Xm.v.f.v.v.f.f.d.m.M.^.!./.1XV.C.e.C.A.H.w.C.L.C.K.V.Z.B.B.V.q.V.V.B.w.q.",
"L.K.S.H.D.D.U.D.r.Z.F.S.S.H.3.<.5.5.5.-.h.T.W.E.E.E.>X>Xj.d.^ ^ ^ ^ v.f.d.d.m.j.!.>XU.S.V.B.C.w.r.Z.A.S.w.w.V.w.V.H.q.C.B.*.e.e.",
"K.B.q.G.S.S.S.S.C.F.F.F.Z.3.<.<.5.5.5.9.h.T.W.W.W.E.(./.~.m.^ ^ ^ ^ ^ ^ ^ f.f.d.h.R.:XL.H.V.C.V.w.w.Z.S.V.e.q.V.V.A.w.Z.e.q.e.*.",
"G.G.*.q.C.r.F.V.F.F.F.B.<.<.d ,.>.>.>.a.h.Y.T.T.W.W.!.~.^.N.v.R R R R R W ^ v.f.f.h.~.U.w.w.w.V.w.F.A.C.V.w.V.Z.Z.S.H.V.V.B.V.C.",
"t.t.*.H.F.r.V.S.F.S.y.2.<.j d >.>.>.:.a.k.h.Y.Y.T.T.R.!.^.M.XX+X! Y Q ! W ! W v.v.d.j.:XZ.q.w.q.V.w.V.B.q.w.V.V.V.S.Z.Z.V.V.Z.w.",
"*.t.*.w.C.F.S.V.Z.H.<.<.<.d 9 >.>.o.8.a.k.k.h.Y.Y.Y.R.R.j.m.b.kXyX+XQ R Q ! / ! ^ v.s.~.U.V.B.Z.V.B.B.C.B.S.S.S.V.A.Z.C.V.S.V.Z.",
"B.B.t.B.V.S.V.V.-.2.,.d 8 8 ..o.o.o.V a.a.k.k.h.h.h.h.j.m.b.b.vXbXxX%X|.E R R W ! ^ b.m.Q.B.V.V.V.q.V.V.S.A.S.V.V.C.V.V.H.V.C.A.",
"*.H.H.B.V.L.L.L.3.<.d 8 8 5 X.o.X.O.C U a.a.g.k.h.k.k.k.s.p.x.bXPXlX+X+X@X! ( R / ! x.b.Q.V.Z.H.V.w.S.V.V.S.H.F.C.V.V.C.V.S.S.S.",
"B.B.B.K.V.H.K.H.<.d 8 8 5 < X.X.X...Z U U a.a.s.g.s.s.v.v.W |.cXPX~ C B P @XR ( R ! / v.Q.K.K.V.Z.V.D.Z.S.A.V.w.V.A.w.C.A.A.r.F.",
"G.B.B.S.Z.Z.Z.y.d 8 8 5 < 1 X.X.X.s Z C U p.z.l.v.v.x.l.c.~ %XcXMXNXKXmX$X+X|.F Y ( ! x.n.r.w.w.w.V.V.V.V.V.V.Z.V.V.w.r.Z.F.r.Z.",
"B.H.V.P.S.S.L.#.6 1 1 < < 0 X.X. .a K L L E E p.W W W E ~ |.jXcXMXKXKXVXg vXtXi.K Y ( ! i.V.e.w.w.V.V.w.B.V.V.C.C.A.A.Z.S.S.Z.w.",
"B.V.V.S.K.V.e.j 5 2 1 < < 0 +.+...H K L L E T E T T T ~ P tXvXcXNXBXKXnXo sXxX=Xr.L U p.H.V.w.r.r.H.w.w.e.w.w.w.S.A.A.F.F.A.A.S.",
"B.V.V.V.Z.K.=.6 5 < < < < ..+.....J K L L L T E T T ~ P &XpXjXcXmXBXKXKXX l MX1XD.D.i.i.F.V.C.C.w.w.Z.H.V.e.C.V.Z.F.A.F.A.A.A.F.",
"V.F.V.V.V.Z.;.5 4 < < 2 2 0 +.....F K L L L T T ~ F F +XtXpXjXcXmXMXKXKX= o KXCXS.A.S.S.S.V.w.V.V.w.V.V.V.B.V.V.V.w.Z.Z.Z.D.F.Z.",
"A.V.Z.V.w.K.%.j }.4XfXfX7X{.=X'.a N N P P K P K G } |.#XuXhXjXvXmXMXBXBXk o PXKXF.r.'.{.J.V.V.w.w.q.V.V.V.C.S.B.V.C.V.V.Z.A.F.F.",
"S.A.A.V.V.V.1.pXcXmXVXVXMXVXcXvXNX%XQ P F P F N P | #X%XuXhXjXvXcXmXMXBX6Xo PXLX=X_ ) ) 8X*XL.Z.w.w.V.w.B.V.q.B.V.C.B.C.Z.Z.w.Z.",
"A.A.A.D.S.V.p k uXkXhXgXkX,X@XXXXX@X#X| Y N N N K |.#X%XuXyXhXxXvXmXNXMXBX{.KXLXLXnXg g g 5X=XB.Z.Z.C.w.V.w.e.q.C.V.V.e.V.e.e.V.",
"D.A.S.S.S.P.p 3 r ].yXpXyXyX@XXX/ / Q | Y C U U ~ | #X%X%XuXhXhXjXcXmXmXBXKXKXLXPXkX= f f k 5X7XZ.Z.Z.r.S.Z.q.e.B.B.B.B.C.V.w.w.",
"D.D.D.D.Z.A.9 3 5 4 ] uXyXhXhX%XXX| ( / T U U p.z.x.#X%X%XtXyXpXjXvXcXmXMXBXBXKXbXwX= f f g x _.{.Z.C.V.Z.V.B.B.B.B.C.V.F.w.w.V.",
"S.A.S.D.P.D.6 5 5 4 4 6 $XyXjXxXdX@X| | T p.z.s.g.p.XX#X%X%XtXuXgXjXvXcXmXmXMXmXpX) = f f f k k 3X;XV.V.V.S.V.B.C.V.V.Z.V.w.w.B.",
"Z.A.S.A.S.A.8 5 5 4 4 2 7 `.%XyXpXpXtX#XW p.z.g.g.g.| #X%X%XtXtX%XgXjXjXvXcXvXkX|.h = = * g h l k 3X*XC.V.V.S.V.B.V.V.Z.V.V.B.H.",
"r.A.F.D.K.S.9 5 4 4 7 3 3 5 k `.#XtXtX#XXXp.z.g.g.a.| #X#X#X&XtX%XgXgXgXjXgXjXgXeXf o + : g h h k l 4XS.V.V.V.S.Z.Z.H.V.B.V.V.V.",
"F.S.S.H.H.H.9 5 6 4 4 4 2 4 6 <.k ` } #X} a.a.z.g.g.| | #X#X%X%X%XuX%XuXuXgXgXuX[ z S $X[ h y h h l z {.*X*X'.K.K.S.L.S.V.B.C.H.",
"S.S.B.G.B.H.#.6 5 4 2 4 4 4 7 j <.H D D N a.a.z.z.z.Y | | +X#X&X&X&X%X&X%X%XuX].) aXrX&XbXdX] y g [ wXFXFXGXHXHXJXUXIXCXS.V.C.V.",
"w.Z.H.B.B.B.#.8 5 2 2 4 6 r f j %.8.J B c U a.a.z.p.Q } | | | #X&X&X&X&X%XaX` = ` .X+X` +XdXaX) wXOXwXAXJXJXUXIXIXGXZX=XV.Z.V.S.",
"C.Z.H.B.B.B.:.8 5 4 2 7 1.e.J.H.K.r.J D M U U a.c.L F Q } } | |.|.|.|.OXOXu + o P ` } ` ] ` aXiXeXOXOXsXIXIXUXDX0X0X7XL.H.V.S.V.",
"H.V.G.-.q.V.-.8 4 4 p t.V.S.P.L.H.H.I m M C U E E G G B v b m S J J S y o o o O % ` } P [ dXdXiXeXwX] ' SX9X0X8X0X0X=XH.V.V.V.V.",
"V.V.G.G.*.H.G.%.%.-.Z.S.S.H.L.K.H.H.9.Z M F L T K S 0.e   X X . , . q & + + > > > @ A eXdXxXdXrXqX' z 4XqX8X8X8X8X7XV.B.V.V.V.q.",
"B.V.V.*.G.B.G.B.V.V.H.C.Z.S.Z.H.L.H.r.Z M Z P F D 0.e > > > X , 7 3 7 0 + ; v % : ) wXdXdXdXsX3Xl 2XqX0X0XqX8X8X0X=XB.q.V.w.V.C.",
"V.V.V.B.t.G.H.H.K.V.V.H.H.P.K.V.H.H.V.9.V J K J u.V c c M M % 2 6 3 9 9 9 i b ; { eXtXpXsXqXz z qX9X0XZX0X0XqX8XfXt.H.B.A.Z.V.V.",
"V.K.V.V.V.H.H.t.G.K.S.B.V.S.w.G.B.B.*.t.u.u.J V V c B N J D c o 6 <.<.2.2.2.a ].$X$XeX7Xz x 5X9XZX9XZX9X9XZX0X8X=XC.C.Z.A.Z.A.L.",
"L.V.H.Z.S.S.H.H.H.H.B.B.B.V.V.B.H.t.*.B.G.G.8.H B K K J m M J r d <.<.2.2.3.OXOXOX7X5Xl 3X9X9X9XZXZXZXAXZXZXHXfXw.q.V.Z.S.w.C.F.",
"H.V.V.q.V.B.B.B.B.V.B.q.V.H.V.G.B.t.*.B.H.G.0.B E } F n c M J r d d <.3.[ } OX6X4Xz z 8XZX9XSXSXZXAXAXFXFXCX;XZ.A.V.V.V.V.C.Z.A.",
"H.B.q.V.B.B.V.B.t.*.B.V.V.H.K.q.B.B.*.H.P.K.V C c.|.N % n J H r 5 d k ` ` [ qXz l 4X9XZXZXDXSXSXAXFXGXAX[.K.S.A.A.K.V.C.V.w.w.Z.",
"V.V.V.H.B.H.V.B.B.V.V.V.V.B.B.H.H.B.G.B.H.H.Z C  X XN $ M I H r x ] _ ` 6X3Xl ' ZXZXZXAXSXSXGXJXJX0X{.'.L.V.Z.P.V.w.V.e.V.V.Z.S.",
"S.H.V.H.B.V.B.C.B.B.V.V.Z.V.t.H.G.H.B.G.L.y.B C c.x.M w n H I ' 8X[ [ 5Xz l 8XAXAXAXAXAXSXGXGX-XL.P.S.P.P.H.V.H.V.w.w.q.B.V.w.V.",
"S.V.V.B.B.C.B.B.B.V.V.S.A.F.V.C.G.V.L.V.y.u.m U x.~ M % n m ` h qX5Xz l 4XAXAXAXAXAXAXJXzX;Xu.i.r.V.K.S.V.V.V.V.V.C.V.V.Z.Z.V.K.",
"V.V.H.B.B.V.H.V.w.V.S.V.V.V.B.C.S.V.B.B.q.0.M K  X XS w n m I k 3X2X' ZXAXAXAXAXGXGXzX=XH.9.F Y ` u.V.V.q.A.Z.w.V.H.w.w.V.H.H.Z.",
"S.H.H.H.B.V.D.V.V.V.V.Z.S.C.e.e.S.V.V.V.w.e.} pXbXPXLXOXw m I k z ZXAXFXFXHXAXJX6X` 9.w.u.D N P nX'.r.V.V.Z.Z.V.w.w.C.K.V.Z.L.S.",
"S.V.V.B.V.S.S.H.K.A.A.V.C.C.q.q.w.V.B.B.C.u.aXcXPXLXIXrXw m H _ 2X0XHXHXGXHX6X) b A H U.8.c b D [ u.S.V.H.V.B.B.H.V.K.K.Z.P.L.P.",
"S.S.V.S.S.V.B.B.V.Z.V.B.V.q.V.w.w.C.V.q.C.}.iXvXbXPXKXnX$ n m H ] qXSX0X].A A A A ; t i.e % c b S u.S.V.V.w.V.V.V.C.C.V.P.S.S.P.",
"V.H.V.H.B.C.B.V.K.V.C.e.C.V.V.C.B.V.B.C.e.`.iXxXbXbXPXcXi w n m { z 3X- : g z 1.j ,.<.%.% > $ n A 8.A.A.V.C.V.V.V.V.V.V.Z.H.V.S.",
"S.H.V.B.B.V.V.H.H.V.A.V.Z.A.w.S.H.V.w.F.8.`.eXiXnXlXcXxX` t w n H u . , 4 6 z 3.<.<.x A A > % A A 8.D.D.V.V.V.V.e.V.V.H.S.S.H.S.",
"S.H.S.V.V.V.V.V.C.C.Z.V.S.S.C.S.V.C.C._ [ S eXrXiXnXiXiX`.= w w A I i . . < 4 6 d 8X].S b % ; ) u 0.S.A.A.H.w.V.B.B.G.V.V.S.L.S.",
"S.L.F.L.V.H.V.V.V.V.q.C.Z.S.w.A.K.V.8.S wX- OXeXrXaXrX].r 2 * w t t S i . . . 6 3X8X: ; c % ; A i w.V.P.L.Z.H.K.V.H.V.V.L.S.L.L.",
"H.S.L.D.Z.V.V.L.F.L.V.V.w.w.w.F.Z.t.`.v S $ H wXeX$X_ & 1 3 7 y t w t S i . x 4XqXl > ; % A A u a Z.A.K.Z.L.V.H.G.S.S.F.S.K.L.S.",
"V.S.P.L.Z.F.V.S.S.V.V.C.w.V.V.Z.A.V.0.{ v u y @ @ @ O + < 1 5 5 r y $ t z 5XqXqX3XO : ; ; u h y 8.F.Z.A.I.A.Z.V.V.V.Z.L.S.H.S.S.",
"V.S.P.P.L.L.V.P.Z.w.V.q.e.C.C.Z.B.C.C.u.H @.* O @ @ * * & . 1 1 d l _._._.4XqXqX* & y ; A u ; u F.F.F.Z.P.V.H.H.V.V.V.S.D.S.S.V.",
"Z.L.L.S.S.K.K.Z.V.C.w.w.G.V.C.w.V.B.V.V.H.V.a + @ & : * + O l 3X4X'.F.F.w.y.}.g @ y y u u u u a r.F.S.Z.H.H.G.G.H.K.V.V.K.Z.V.V.",
"L.V.V.L.B.B.S.e.V.V.V.q.S.V.V.B.B.w.Z.L.S.S.u.+ @ : * + +   l }.y.w.S.C.y.0.y.@ @ : : u u u i u.A.A.S.H.H.J.H.H.H.B.V.w.w.H.V.H.",
"L.V.V.V.B.r.P.V.V.q.w.H.V.H.q.B.V.S.S.Z.V.V.r.q & & * + O   $.w.w.w.C.C.r.C.C.C.y.a - ; ; h a V.K.K.L.H.B.t.G.G.V.B.q.q.V.H.Z.L.",
"L.K.K.V.V.V.Z.H.w.V.V.V.Z.w.w.A.S.S.A.S.S.V.w.$.+ & & @   + 8.V.e.Z.e.*.C.C.C.q.F.C.u._._ h 8.S.K.L.H.B.t.t.t.*.*.B.V.L.S.Z.Z.A.",
"S.S.V.Z.H.V.B.B.H.V.V.K.V.K.w.A.V.V.A.V.C.V.Z.w.# & & O O O y ;.V.C.q.e.e.Z.S.C.V.V.V.V.r.u.t.H.B.B.*.*.G.H.G.q.B.V.S.V.Z.A.Z.V.",
"H.K.K.S.H.w.w.V.V.H.w.w.w.w.w.V.V.V.H.w.V.V.V.Z.%.+ & & @ O * H e.B.V.B.V.F.S.C.B.V.S.V.e.q.-.t.B.G.*.t.t.G.G.B.B.V.V.V.V.A.I.K.",
"F.L.D.P.P.K.V.w.V.V.C.w.e.w.w.w.w.w.e.w.w.e.Z.V.e.q + + * & * k q.B.e.*.w.w.w.w.V.C.V.=.*.t.t.t.G.*.t.t.B.t.B.G.H.w.K.V.Z.K.A.K.",
"H.V.S.D.L.Z.V.w.V.q.H.q.e.r.r.w.e.0.0.0.0.&.&.&.$.$.# X X X + q $.$.&.&.&.=.0.e.w.w.=.=.=.=.*.*.t.*.*.B.H.H.G.V.w.V.K.K.K.K.K.K.",
"F.V.H.H.L.Z.w.H.H.B.w.q.w.e.e.e.e.e.0.0.&.$.@.@.@.@.@.s q q q s @.@.:.$.$.&.&.&.*.=.-.-.=.=.B.B.B.t.t.H.H.V.V.H.w.H.A.A.K.L.K.A.",
"S.V.H.V.V.L.V.H.w.w.K.Z.V.Z.r.r.r.r.r.e.e.0.0.=.0.&.&.&.&.&.&.&.&.&.0.&.e.w.q.e.=.*.*.-.=.=.=.t.H.G.G.K.H.H.V.H.B.H.K.K.I.K.A.Z."
};
