/* XPM */
static char *f814d346d61348ded44ae2703eb84736MZWa25wVHTYe0yVG[] = {
/* columns rows colors chars-per-pixel */
"64 64 256 2 ",
"   c #3E1808",
".  c #1A3819",
"X  c #2E2B15",
"o  c #352F25",
"O  c #4B1B0D",
"+  c #472618",
"@  c #54291B",
"#  c #4E3112",
"$  c #783818",
"%  c #6E2F12",
"&  c #552E24",
"*  c #593629",
"=  c #4E3631",
"-  c #683A27",
";  c #753B24",
":  c #673A2E",
">  c #691C0A",
",  c #1D4A2B",
"<  c #1E5A29",
"1  c #27492B",
"2  c #27562B",
"3  c #2B4D32",
"4  c #295534",
"5  c #385839",
"6  c #33532D",
"7  c #2A6438",
"8  c #356638",
"9  c #2B722E",
"0  c #23621E",
"q  c #464916",
"w  c #59481B",
"e  c #7A431C",
"r  c #684F17",
"t  c #72761B",
"y  c #534B34",
"u  c #6C4536",
"i  c #794536",
"p  c #6F4E2B",
"a  c #477237",
"s  c #73712F",
"d  c #55711B",
"f  c #367145",
"g  c #575547",
"h  c #685347",
"j  c #6F574E",
"k  c #4F734E",
"l  c #696659",
"z  c #716B52",
"x  c #7A7575",
"c  c #6E686A",
"v  c #655E61",
"b  c #883711",
"n  c #AA3C2B",
"m  c #864718",
"M  c #954E15",
"N  c #B85B1B",
"B  c #A65313",
"V  c #977118",
"C  c #BA6719",
"Z  c #AF6B16",
"A  c #874728",
"S  c #915230",
"D  c #A65A27",
"F  c #B75B26",
"G  c #A6512B",
"H  c #976B30",
"J  c #B9672B",
"K  c #AE6A31",
"L  c #D4581B",
"P  c #C87511",
"I  c #CB592A",
"U  c #C66D29",
"Y  c #D66429",
"T  c #C77528",
"R  c #D7782C",
"E  c #D76835",
"W  c #DD7535",
"Q  c #C96F36",
"!  c #E3792C",
"~  c #E17936",
"^  c #EE6738",
"/  c #EC5E2E",
"(  c #875B46",
")  c #976B52",
"_  c #AD7353",
"`  c #8A726C",
"'  c #B07B66",
"]  c #BB5143",
"[  c #D17949",
"{  c #E47748",
"}  c #C17E61",
"|  c #2B9727",
" . c #1AA524",
".. c #1EB72E",
"X. c #209E23",
"o. c #62881D",
"O. c #538534",
"+. c #689523",
"@. c #708F2F",
"#. c #6DA325",
"$. c #78A727",
"%. c #7EBB2E",
"&. c #7BB52C",
"*. c #7DBB32",
"=. c #74AB34",
"-. c #5C8C22",
";. c #25CF39",
":. c #1FC631",
">. c #3AAC50",
",. c #3B894D",
"<. c #4E8F55",
"1. c #73964E",
"2. c #46AC5A",
"3. c #759D66",
"4. c #34D044",
"5. c #32F24E",
"6. c #4EEA54",
"7. c #69DB4E",
"8. c #7BC42D",
"9. c #8B8E2E",
"0. c #A98C2B",
"q. c #88AD2A",
"w. c #84BD2B",
"e. c #8ABE2B",
"r. c #87B929",
"t. c #92BE2B",
"y. c #92B22D",
"u. c #82BE31",
"i. c #89B936",
"p. c #96B533",
"a. c #93A62E",
"s. c #A5AB2D",
"d. c #D38E12",
"f. c #EB881A",
"g. c #F28C17",
"h. c #EA9819",
"j. c #F79916",
"k. c #EF940E",
"l. c #DAA216",
"z. c #DCB41F",
"x. c #F4AE0F",
"c. c #D98825",
"v. c #D38F29",
"b. c #E68527",
"n. c #E99428",
"m. c #EE8E2C",
"M. c #D4B02F",
"N. c #FCA625",
"B. c #FEB737",
"V. c #FBB32E",
"C. c #85C12C",
"Z. c #8CC32C",
"A. c #8BC127",
"S. c #93C52D",
"D. c #99C62D",
"F. c #95C92E",
"G. c #9BCA2E",
"H. c #92C627",
"J. c #85C131",
"K. c #8CC431",
"L. c #8DC537",
"P. c #92C631",
"I. c #99C631",
"U. c #95C931",
"Y. c #9BCA31",
"T. c #94C33C",
"R. c #A8CC32",
"E. c #FFD60C",
"W. c #FEC81B",
"Q. c #FECB0D",
"!. c #FFFA16",
"~. c #FFEA13",
"^. c #FDD737",
"/. c #FCCC2F",
"(. c #D4E43B",
"). c #FEE738",
"_. c #FDF530",
"`. c #D4D139",
"'. c #A59150",
"]. c #8EB54B",
"[. c #B2AB50",
"{. c #8E966C",
"}. c #B68B6E",
"|. c #A2B97A",
" X c #929B5C",
".X c #DB8A59",
"XX c #D2894D",
"oX c #E88357",
"OX c #F38752",
"+X c #FBB148",
"@X c #CF9370",
"#X c #EA9968",
"$X c #F79869",
"%X c #F79D74",
"&X c #ED8B62",
"*X c #F8A879",
"=X c #F2A877",
"-X c #D4A27D",
";X c #98C54C",
":X c #9CC16F",
">X c #A6C56E",
",X c #A0C44A",
"<X c #CDDB47",
"1X c #FAD04A",
"2X c #FDEE49",
"3X c #FFE87A",
"4X c #E5D766",
"5X c #7A7C84",
"6X c #827E82",
"7X c #868486",
"8X c #999697",
"9X c #918D8D",
"0X c #A59993",
"qX c #AEAC8E",
"wX c #A8A6A7",
"eX c #B7B6B9",
"rX c #B2ADAC",
"tX c #9FA09C",
"yX c #CD9A83",
"uX c #D6AB8B",
"iX c #E3AB8A",
"pX c #FDAD81",
"aX c #FEBB8C",
"sX c #FAB585",
"dX c #E7BA96",
"fX c #F9BB96",
"gX c #E9B68D",
"hX c #CCB6AD",
"jX c #F8BFA1",
"kX c #B9C89C",
"lX c #FFC494",
"zX c #FDC99A",
"xX c #FAC890",
"cX c #CACFB0",
"vX c #FCC9A3",
"bX c #FFDBAC",
"nX c #FDD5A7",
"mX c #F4D4AD",
"MX c #FFE4B4",
"NX c #FFEBBB",
"BX c #FCE7B9",
"VX c #FEF3BD",
"CX c #FCE2AE",
"ZX c #E6D28E",
"AX c #BDBDC2",
"SX c #C0BFC4",
"DX c #BFC0C5",
"FX c #C2C2C6",
"GX c #C4C5CA",
"HX c #C9CACD",
"JX c #D2D4D4",
"KX c #FEF8C4",
"LX c #FEF8D3",
"PX c #F5EACA",
"IX c #EDEEED",
"UX c #D5E0C2",
/* pixels */
"e.K.Z.S.S.S.H.H.D.t.t.t.e.A.S.A.S.I.D.S.U.S.S.F.G.G.S.U.C.S.C.G.R.(._.2X).^.`.s.D.K.Z.F.C.F.F.F.C.F.Z.F.F.Z.Z.w.w.e.r.w.C.C.w.u.",
"%.u.K.I.S.t.S.S.S.S.t.t.t.H.S.A.P.e.S.I.Y.S.F.I.G.G.S.S.U.R.(.2X_._.2X1X/.+XB.+X+X>X6.K.K.A.C.K.Z.K.C.Z.F.C.Z.C.%.w.C.C.e.e.w.%.",
"J.J.J.I.S.S.S.F.S.t.D.H.t.S.F.S.P.S.P.P.S.S.G.G.G.Y.S.R.(.2X2X2XZX3X1XB.V.N.N.N.m.n.7.6.7.L.C.C.A.C.C.A.Z.C.C.w.r.&.r.A.C.Z.C.e.",
"J.K.K.P.F.S.F.G.D.S.D.S.D.S.H.S.e.S.P.t.S.P.D.S.F.Y.R.).2X2X1X3XCX3X+X+XN.j.j.g.m.n.s.6.5.6.8.F.Z.Z.Z.C.A.C.r.r.%.%.r.A.w.w.Z.w.",
"L.U.K.F.Y.Y.G.G.D.D.G.S.D.S.S.A.P.S.P.t.S.S.F.Z.Z.(.).).^.1XB.B.N.N.j.j.k.g.j.V.^.)./.M.6.5.6.K.S.C.Z.A.Z.Z.S.w.w.w.%.r.w.w.w.Z.",
"C.K.K.F.G.G.G.G.D.D.D.H.S.S.S.e.K.t.I.P.P.G.I.T.(._.^.1XB.V.N.j.g.g.g.g.g.V.3X_.!._.~.W.U.5.5.2.1.D.F.C.Z.Z.A.C.C.S.C.w.w.w.Z.S.",
"J.U.F.Y.G.Y.R.G.D.H.t.H.S.A.S.F.A.S.P.S.P.Y.Y.<X^.W./.N.N.j.k.g.f.b.f.m.V.3XVX!.!.!.!.E.z.5.5.5.<.{.L.F.Z.S.S.C.C.A.e.e.A.w.e.w.",
"U.K.K.K.G.G.G.G.H.t.H.D.S.Z.A.D.I.S.P.I.T.Y.<X1XQ.N.N.j.g.f.b.! ! ! b.j./.2X2X!.!.!.~.E.x.&.;.5.4.<.3.J.w.Z.Z.w.C.S.C.Z.C.%.r.r.",
"U.J.w.w.S.S.F.F.A.S.H.D.H.Z.S.S.S.S.D.D.I.R.2XW.x.k.f.f.b.! R W ^ ! b.N.^.)._.!.~.~.E.E.x.0.;.5.5.f <.2.i.w.e.C.S.S.S.e.e.e.w.r.",
"J.C.u.w.H.S.A.F.S.H.H.F.H.S.P.S.S.S.S.I.R.<XW.x.k.f.b.! R W Y Y E E m.V./.).~.~.~.E.E.Q.l.d.;.;.4.>.k <.<.*.A.Z.S.S.Z.A.C.C.Z.C.",
"*.C.*.C.H.S.A.K.H.H.S.H.Z.S.S.I.D.S.S.S.R.^.x.f.b.! ! W R Y E Y [ %Xm.B.W./.W.Q.Q.Q.Q.x.x.d.#.:.;.:.f k <.2.;X8.A.G.S.Z.C.Z.S.w.",
"u.u.w.w.e.H.F.H.S.S.S.Z.S.A.A.S.P.G.G.S.<XV.h.b.~ W W E E Y W =XfXzXn.V.V.W.Q.Q.Q.Q.x.x.k.d.@.:...:.9 8 f <.<.L.S.S.S.K.Z.F.S.S.",
"C.C.%.C.H.K.F.Z.A.K.F.A.S.C.A.Z.F.S.F.F.<XN.b.~ ~ W E Y E #X*XnXBXvXv.n.N.x.x.Q.x.x.x.l.d.d.9. .....| 7 f f ,.<.A.S.A.C.Z.C.S.D.",
"8.K.K.Z.K.F.F.K.F.F.K.A.e.C.F.H.K.A.S.F.B.n.~ W ~ Y L { #XoXXXCXPXbXR f.n.x.x.x.x.x.k.d.d.P Z  .....X.4 7 f f ,.=.A.Z.C.Z.F.S.D.",
"C.C.C.K.K.F.U.H.K.Z.Z.A.Z.Z.G.S.H.F.K.U.M.m.W W L L E $XD B C XXBXnX.XR b.c.h.h.l.d.d.d.P P Z |  . . .4 7 7 f f <.D.e.H.D.D.H.t.",
"J.C.C.S.F.K.K.K.C.Z.Z.A.F.D.A.Z.K.A.A.K.M.{ W L I F #X#XZXVXVXVXBXbX=XQ R c.v.c.d.c.c.T P C Z d  . . .< , , 7 4 f q.e.t.S.H.t.S.",
"C.S.Z.G.U.Y.U.C.A.C.C.C.H.H.C.A.S.C.A.U.M.R L I K [.*XZXv PXKXKXNXbXvX[ Q Q R R c.T v.T 0.J K t X. .X.< , , < 4 4 <.S.D.S.S.S.H.",
"C.Z.Z.K.S.Z.w.w.w.C.e.e.e.r.e.e.Z.e.F.Z.U.c.I 0.i.[.CX|.o BXKXNXNXbXvX*XJ J U U U T J T T C K H | X. .9 . , , 4 3 a D.D.D.F.G.S.",
"e.C.Z.S.S.S.w.r.C.C.e.C.A.C.e.e.Z.A.U.U.F.s.p.Z.A.4XPXg = KXKXVXMXbXnXaX%XJ I J U U J T T J J K | X.X.9 , , , 1 3 5 L.F.D.D.D.S.",
"Z.Z.S.Z.A.Z.C.w.C.C.A.S.A.e.e.A.Z.S.S.S.F.K.Z.Z.D.CXPXo g KXVXNXMXnXzXfXpX#XF I U U T J T J J F 9 | X.X.1 , , 1 1 4 =.S.S.G.S.A.",
"S.S.A.S.Z.F.K.Z.C.Z.S.S.Z.C.C.H.S.P.Z.Z.;XqX].S.Y.LXcXX {.VXVXNXCXnXzXlXaX%X&X[ N F J J K J F N 9.].:XkXcXUXcXkX{.z O.Z.S.G.F.S.",
"G.S.G.Z.Z.Z.S.Z.C.Z.Z.Z.Z.K.A.K.Z.Z.K.>X0Xj ( ) >XLXcXo uXVXMXCXbXnXzXaXsX%X#X} F F F J F F [ *XbXnXxXCXCXCXbXbXCXlX1.A.H.S.A.S.",
"D.F.G.Y.F.Z.C.S.U.F.Z.F.Z.K.K.Z.U.K.>X7Xh h j mXLXLXBX|.KXNXMXCXbXzXlXaXpX*X%X{ F N N F I { $X$XOXOX$XxX3XlXlXxXsXz a C.C.e.w.e.",
"G.G.S.F.F.D.K.Z.F.G.F.I.S.S.U.S.K.|.x g g y y CXKXLXKXVXVXBXCXnXvXzXaXpXpX%X%X[ T P L P E { / / ^ { *X*XsXaXsX}.8 2 a A.A.A.e.C.",
"G.G.D.G.F.S.A.Z.U.Z.U.S.Y.Y.Y.Y.qXx l g g = = dXNXKXKXVXNXMXbXnXzXlXsXsX*X*X$XR d.d.c.P I E / { $X*XlXfXlX=Xz 3 4 4 8 S.S.w.e.A.",
"S.D.D.G.G.G.S.S.G.F.Y.F.G.F.C.|.3.v z y g = = ) zXBXMXBXCXbXnXlXaXsX*X*X*X$X&Xd.l.l.v.P Y { OX*XzXvXzXfX-Xg 3 3 4 4 7 S.e.r.C.A.",
"A.G.H.G.F.F.F.F.Y.U.U.U.G.G.[.6Xl l z h = = = j @XzXnXnXnXzXzXxXsXsX*X*X$X$X{ l.l.l.v.P W $XpXaXlXaXpX'.3 1 3 5 4 4 7 Z.Z.A.A.S.",
"t.D.F.G.F.F.Z.K.F.F.K.Z.S.;X8Xv l j j : * o = : sXlXzXxXlXlXsXsX*X*X*X*X$X&X~ l.z.l.v.d.oX$X*XpX=X[.a 4 3 3 3 3 3 4 7 Z.Z.Z.C.Z.",
"S.S.F.K.K.K.Z.J.L.T.;X;X,X|.x v j j y ( yXiXi ` '.aXaXsXsXsX*X*X=X=X%X%X$XoX~ l.l.M.d.d.XX&X.X_ a ,.5 3 3 3 3 3 4 7 8 G.Z.Z.C.K.",
"D.S.C.C.C.UXIXJXHXHXGXGXGXSXyX` h g ' fXvX=XgXgXj @XsX*XsX=X=X=X%X%X%X%XOX{ E v.l.v.d.d.N D D H 1.g 5 3 3 3 1 1 4 4 O.K.K.Z.A.F.",
"Z.S.Z.J.C.:XDXJXIXIXJXJXHXhX@X} @X` iXsX.X_ .XXXF = ' iX=X#X#X%X#X#X{ { { [ E v.v.d.P P M B K 9.s k g a 5 1 1 1 4 7 O.J.K.F.A.U.",
"Z.F.K.C.C.L.eXrXrXHXIXIXIXqX@XyXyXfXiX} ` ) XX_ G o + ( @X@X@X.X.X.X[ { I Q I J d.d.P P M B K t.S.D.t.i.@.5 1 1 6 8 +.F.K.K.Z.Z.",
"Z.K.C.J.8.A.>XrXwXwXrXAXFXc {.yXiXdXjXdX_ K _ ] > + + o = ; D D G S m b n n M G T P P C M B K K.A.D.F.G.F.i.a 3 2 8 =.Z.Z.Z.Z.Z.",
"C.C.J.u.*.w.;XrXwXwXwXtX8X8Xv 7XwXdXjXjXvX@XS - @ > > @ o 1 q 1 X . X X O t q.S J Q J J M Z s.A.F.D.H.G.F.F.S.q.@.#.K.A.Z.Z.C.C.",
"C.Z.Z.u.J.C.J.:XwXwXwXtXeXrXtXx v 8XhXjXvXjX@XA : > n % # 2 6 2 6 1 X > > > o.a.B F K D M Z H.A.S.Z.F.F.F.F.F.H.L.Z.C.w.e.e.C.S.",
"A.S.e.C.%.K.Z.T.eXwXwXrXeXeXeXeXwXc x 8XdXfXgXyX) A A a 9 9 7 5 6 o $ M M b % V a.F J D V 0.A.H.Z.Z.F.A.C.C.C.K.K.F.K.A.S.S.A.A.",
"K.P.Z.Z.Z.K.K.u.:XwXeXAXeXeXeXeXeXrX6Xc 6XrXiXyX@X} j 2.2.2.<.k 5 o m D J D B b V V D p.p.F.Z.F.P.Z.Z.Z.Z.Z.Z.H.C.A.S.Z.G.S.D.G.",
"P.Z.Z.S.U.U.K.L.;XkXDXAXDXAXAXAXAXAXAXwXx c 8XyX@X@X}.3.2.2.<.<.f y K M B J C C B 9.a.D.K.K.Z.Z.Y.K.F.K.Z.Z.C.C.e.e.C.S.U.e.e.F.",
"K.K.C.e.Z.C.C.u.C.J.:XcXDXDXDXDXSXSXAXeXAXtXc x 0XyX} } ) <.<.k f y H M b m F [ U B y.K.Z.F.S.Z.H.Y.F.F.K.Z.U.F.D.A.e.Z.A.H.S.D.",
"Z.C.e.C.C.C.Z.C.C.%.C.8.kXDXHXDXSXSXSXSXAXAXeX6Xv 6X0X} _ _ k 8 7 w H M m % J .XT P 9.U.F.F.P.C.C.Y.F.K.F.H.K.Y.F.P.S.A.e.e.e.H.",
"Z.Z.Z.Z.C.Z.Z.C.C.C.A.Z.S.].qXeXHXGXGXGXDXAXAXAXrXx v 9X0X] ) c 6 p H K m e C XXW P D P.G.F.Z.e.K.G.Y.S.U.Z.S.U.A.C.Z.A.e.Z.S.S.",
"U.K.Z.K.C.K.C.C.Z.C.K.S.P.e.J.K.].kXHXHXGXFXFXDXAXAXtXv x 9X_ ' rX` K H m e B v.v.C M Z.G.Z.U.Z.P.G.U.Y.G.Z.Z.S.S.e.e.w.w.Z.e.P.",
"Z.S.C.C.C.Z.C.C.C.A.S.F.P.U.Z.Z.a.s.p.>XcXGXGXGXFXFXFXeX9Xv 5X9XrXj _ M m % M Q Q P B i.F.F.H.Y.S.P.U.Z.C.Z.S.C.A.C.e.e.F.Z.Z.S.",
"F.C.Z.Z.C.Z.K.A.e.C.S.Z.A.Z.e.a._ U J a.w.:XcXHXGXGXFXFXAXeXx 5X6Xv 0.M m % S [ Q F m y.K.F.Z.D.U.Z.S.C.e.D.P.e.P.Z.e.Z.S.K.K.P.",
"K.Z.K.Z.Z.H.U.Z.C.Z.S.F.G.H.A. XhXF F D e.C.0.) uXDXDXGXGXAXAXAXx c H M e @XLXLXMXxX_ D.D.S.F.S.U.K.Z.Z.K.S.S.Z.e.e.Z.S.e.F.F.F.",
"H.Z.F.Z.Z.F.F.J.P.F.S.Z.C.r.e.9.' G M b 9.e.S A A ) wXJXHXGXAXwX` _ V M $ mXIXPXBXnXsXp.I.S.D.S.F.Z.F.K.Z.C.Z.C.K.Z.U.K.S.Y.U.Y.",
"F.U.Z.K.U.Z.C.C.K.S.Z.e.S.r.C.9.A n b % o.a.A e m S A ( 0XhXGX8X` H V e % mXPXPXBXvXdX[.D.S.S.S.S.F.K.K.Z.e.C.S.A.A.A.Z.Y.I.F.Y.",
"F.K.K.Z.C.A.C.Z.P.Z.A.w.e.Z.H.H m b % % r s <.,.k z ` u : : 8Xx K M e e s BXPXBXbXvXiX[.G.D.F.S.C.F.G.G.Z.S.Z.Z.C.Z.Z.K.H.Z.C.F.",
"U.K.H.C.C.Z.Z.K.Z.Z.S.Z.H.S.e.9.A A % > S - k <.<.3.c 5 1 . o H H e e e }.mXbXvXvXdXuX'.9.y.S.e.A.Z.D.I.S.S.C.A.e.C.Z.F.S.F.Z.K.",
"K.K.K.Z.Z.Z.Z.Z.C.w.S.Z.D.S.t.9.i A ; % S S rX9Xa 5 3 , . . y H A e $ * @XdXdXZXdXiXuXS _ 9.S.H.S.e.Z.G.I.Z.e.C.Z.C.K.C.Z.U.F.U.",
"F.Y.F.F.Z.Z.Z.Z.S.A.w.S.S.S.e.y.i i ; $ b ; u rX7X1 . . . p S e e p - 1 g -XiXiXuXuX@X$ uXi a.e.A.A.S.Y.U.Z.Z.U.Z.Z.Z.Z.F.Y.U.Y.",
"Z.F.G.F.S.C.F.I.S.G.A.C.A.e.A.H.p i A A $ ; O x tX9Xg . s A e e p - 6 1 , w }.-XuX-X( ; ( n '.e.A.S.U.I.S.U.K.Z.K.F.F.Z.U.K.P.F.",
"Z.F.G.U.S.F.Z.S.S.Z.S.C.e.A.e.D.t i A i A ; * @ tXwXtX5Xc A $ : = 2 7 < . + O * p @ i u G ] a.e.S.S.H.I.S.I.K.K.C.Z.S.F.F.K.F.F.",
"C.U.Y.U.U.F.C.G.S.e.e.e.w.e.Z.S.q.u i i i : : & h tXtX8X Xs 1.v 4 2 2 . = & @ @ O O w s H a.t.e.H.S.S.S.I.Z.Z.K.Z.A.K.F.G.F.F.K.",
"S.U.P.U.F.S.P.P.Z.A.e.e.C.S.Z.e.i.s i i i i : : O c {.T.J.e.Z.:X8X5Xc   & * : & @ + s G.H.S.S.D.S.S.H.S.K.K.J.K.L.F.S.Z.P.S.A.Z.",
"U.S.Z.U.C.C.S.e.Z.Z.Z.C.Z.Z.e.C.i.9.h i i u : - & & Z.S.K.w.e.C.].{.v   O & * & @ + y.R.D.G.D.F.D.D.S.L.P.L.K.L.S.C.e.C.e.K.Z.K.",
"U.F.Z.Z.Z.t.Y.e.C.e.C.S.A.S.w.e.Z.e.u i ; - - s i.e.Z.Z.S.D.S.w.8.A.t O O O * & & w Y.G.G.G.S.S.F.Z.U.U.J.u.J.C.C.C.C.e.e.K.S.U.",
"U.K.Z.Z.C.C.S.P.K.Z.e.S.K.C.e.P.F.S.9.j ( 9.i.Z.i.S.Z.S.S.r.G.S.r.H.@.+   @ & @ # @.F.G.D.S.Z.U.K.P.L.J.u.8.u.*.%.C.C.S.U.S.S.F.",
"U.F.S.S.P.C.C.C.Z.e.C.S.K.t.e.G.S.Z.P.p.].Z.Z.Z.r.S.A.A.e.e.F.A.A.@.: O   + & + w e.A.Z.A.t.w.K.K.C.%.%.J.K.J.C.C.C.F.S.S.G.S.S.",
"F.K.P.D.K.e.e.Z.C.P.e.e.e.e.e.Z.A.K.Z.e.C.P.Z.S.Z.S.Z.A.C.e.A.A.A.z & @ + & & + o.C.U.Z.e.u.%.J.C.C.*.w.*.C.w.C.w.K.S.Z.A.D.I.L.",
"Z.U.Y.G.I.Z.S.C.Z.Z.Z.e.r.e.P.e.r.C.e.e.e.e.Z.S.e.e.e.e.A.r.A.w.e.j & @ & & + q e.C.e.&.&.8.8.*.u.%.8.u.u.J.C.K.e.K.P.Z.S.S.I.T.",
"F.Z.F.F.U.F.C.e.K.C.A.w.e.t.e.S.t.e.e.e.S.H.e.C.e.r.r.$.$.$.$.$.+.w + + o   # #.$.$.#.#.#.#.=.&.&.*.&.w.C.J.C.Z.e.A.P.P.P.P.S.S.",
"F.Z.Z.K.G.Z.e.S.Z.Z.K.C.e.t.t.S.S.D.D.D.t.e.r.q.q.q.q.$.+.+.+.o.o.d q q q d d o.o.o.+.-.+.+.$.$.=.&.&.u.K.e.K.K.e.K.P.D.P.U.U.I.",
"K.H.K.Z.C.F.S.K.C.C.P.P.S.D.S.S.D.D.D.S.t.t.Z.e.e.e.r.r.q.q.q.$.$.$.$.+.#.q.#.$.#.#.#.&.#.=.$.r.u.u.e.P.K.e.C.K.C.K.S.T.I.P.S.S."
};
