/* XPM */
static char *_f3ca9c024e7472788cdd87d329115f51h5grobBwNOYOECw[] = {
/* columns rows colors chars-per-pixel */
"64 64 256 2 ",
"   c #0D0B0A",
".  c #1B1510",
"X  c #240D06",
"o  c #28120A",
"O  c #251C14",
"+  c #381A0C",
"@  c #16341E",
"#  c #332D1A",
"$  c #1B3A24",
"%  c #353328",
"&  c #491E0D",
"*  c #472718",
"=  c #562A18",
"-  c #56331B",
";  c #492810",
":  c #6F2F17",
">  c #4A3728",
",  c #563727",
"<  c #463731",
"1  c #663725",
"2  c #743A28",
"3  c #1D4C2A",
"4  c #1B4528",
"5  c #1D532C",
"6  c #23482D",
"7  c #25552D",
"8  c #275933",
"9  c #315034",
"0  c #266735",
"q  c #356638",
"w  c #1C602F",
"e  c #494B19",
"r  c #72561B",
"t  c #514D2D",
"y  c #6D5033",
"u  c #6B702C",
"i  c #5F6624",
"p  c #3B5A44",
"a  c #515150",
"s  c #78594C",
"d  c #736756",
"f  c #6C6B73",
"g  c #74747D",
"h  c #666D70",
"j  c #5B6360",
"k  c #923B18",
"l  c #8A3515",
"z  c #B03F13",
"x  c #FC3939",
"c  c #98451B",
"v  c #975B1A",
"b  c #B84C19",
"n  c #A6561C",
"m  c #BA551B",
"M  c #A84818",
"N  c #974B2B",
"B  c #A94B25",
"V  c #AD5429",
"C  c #B45627",
"Z  c #B05934",
"A  c #907031",
"S  c #B4662F",
"D  c #806219",
"F  c #C65817",
"G  c #C34B18",
"H  c #D5690D",
"J  c #D66717",
"K  c #DA6E11",
"L  c #E67A15",
"P  c #E0770E",
"I  c #D05229",
"U  c #C86939",
"Y  c #D56A2F",
"T  c #E37533",
"R  c #ED3E48",
"E  c #D23D4E",
"W  c #8A6F58",
"Q  c #A86846",
"!  c #B8704B",
"~  c #A74A5F",
"^  c #F94247",
"/  c #EF4A57",
"(  c #C77954",
")  c #D27246",
"_  c #F17845",
"`  c #CE506F",
"'  c #E55367",
"]  c #DB4657",
"[  c #388D28",
"{  c #728E2F",
"}  c #7DBC2D",
"|  c #7BB82B",
" . c #7FBD31",
".. c #71AB2D",
"X. c #50932D",
"o. c #72C232",
"O. c #7A8E54",
"+. c #AC8E37",
"@. c #84BD2B",
"#. c #8ABE2B",
"$. c #87B62A",
"%. c #92BD2B",
"&. c #99B52F",
"*. c #81BE31",
"=. c #8BBB32",
"-. c #94BA32",
";. c #8EA831",
":. c #AFB234",
">. c #8F9031",
",. c #ED8317",
"<. c #F38B19",
"1. c #F9941C",
"2. c #D98B39",
"3. c #F99926",
"4. c #EF8C35",
"5. c #FCA628",
"6. c #FFB92B",
"7. c #FAAD36",
"8. c #CFBB34",
"9. c #85C12C",
"0. c #8CC32C",
"q. c #8CC127",
"w. c #93C52D",
"e. c #98C62D",
"r. c #95C82D",
"t. c #9AC92E",
"y. c #92C627",
"u. c #8DC431",
"i. c #85C131",
"p. c #92C631",
"a. c #95C931",
"s. c #9BCA31",
"d. c #97C535",
"f. c #AACA35",
"g. c #C7D838",
"h. c #FDC636",
"j. c #FFD42D",
"k. c #FFF92D",
"l. c #FFFB34",
"z. c #FFE72D",
"x. c #D0E235",
"c. c #90B150",
"v. c #ADB147",
"b. c #8D9274",
"n. c #96AC70",
"m. c #9B9963",
"M. c #D7865C",
"N. c #CB8551",
"B. c #E5875A",
"V. c #F18E4B",
"C. c #FEB546",
"Z. c #FEB74C",
"A. c #DB8D62",
"S. c #E99668",
"D. c #F6996A",
"F. c #E99468",
"G. c #FBA877",
"H. c #F6AB76",
"J. c #D5B06A",
"K. c #97C549",
"L. c #AACC4C",
"P. c #A6C971",
"I. c #F9CF4C",
"U. c #FDFD46",
"Y. c #FEFA55",
"T. c #F9E750",
"R. c #CED273",
"E. c #EDC97B",
"W. c #FBF967",
"Q. c #F4F776",
"!. c #D2D860",
"~. c #7A7B83",
"^. c #797B88",
"/. c #647497",
"(. c #5772AE",
"). c #6E76AC",
"_. c #66539D",
"`. c #3759C8",
"'. c #365BD0",
"]. c #3C63E2",
"[. c #4A5AC2",
"{. c #4A6CD2",
"}. c #4D72EC",
"|. c #6A70D9",
" X c #945592",
".X c #B76699",
"XX c #A868A7",
"oX c #9A619D",
"OX c #C26C9D",
"+X c #7E818E",
"@X c #7288B6",
"#X c #5889D0",
"$X c #718ECF",
"%X c #578EF0",
"&X c #6D8BED",
"*X c #74B2F2",
"=X c #70ACD1",
"-X c #78C5FD",
";X c #83838C",
":X c #89898F",
">X c #898994",
",X c #949699",
"<X c #AF968B",
"1X c #9CA98F",
"2X c #A5AE8D",
"3X c #999AA7",
"4X c #8C94AC",
"5X c #9EA1A9",
"6X c #9BAAB7",
"7X c #A2A4AB",
"8X c #B3B5BB",
"9X c #ABB1B1",
"0X c #FEB582",
"qX c #FDBC86",
"wX c #EBBB8C",
"eX c #DBB498",
"rX c #B0C891",
"tX c #B8D2B2",
"yX c #FFC28C",
"uX c #F5C28C",
"iX c #FECB94",
"pX c #FCC692",
"aX c #FFD59C",
"sX c #FCD397",
"dX c #EACA91",
"fX c #FCF593",
"gX c #FFDCA2",
"hX c #F3DAA1",
"jX c #EFD3A6",
"kX c #FEEBAD",
"lX c #FDE4A9",
"zX c #FFEDB1",
"xX c #FFF3B4",
"cX c #FEF9BA",
"vX c #FAF1AC",
"bX c #CEE0A4",
"nX c #B9BCC5",
"mX c #AFACD2",
"MX c #8D9AF3",
"NX c #96A9D9",
"BX c #B7CCCF",
"VX c #88D5FC",
"CX c #8AC6F7",
"ZX c #AED4F2",
"AX c #93E2FE",
"SX c #A3D9E0",
"DX c #C8CBD5",
"FX c #D3D3DC",
"GX c #C6C9CD",
"HX c #FDF7CD",
"JX c #D9DBE5",
"KX c #C1DBF6",
"LX c #DAE8F3",
"PX c #E6E5EB",
"IX c #F2F3F7",
"UX c #E2CEC7",
/* pixels */
"#.u.0.p.w.w.y.w.w.%.y.%.#.q.y.q.w.d.e.r.w.p.r.e.t.t.r.e.0.0.0.y.0.q.y.y.r.e.r.r.r.w.0.0.0.u.u.u.y.u.0.r.a.0.9.@.#.#.@.$.q.9.*.*.",
"} *.u.e.w.%.w.w.y.e.%.%.%.y.y.q.r.q.y.d.d.r.t.t.s.t.e.f.x.x.x.x.g.f.0.0.e.r.t.e.r.a.0.0.0.0.0.u.u.0.q.0.w.0.0.q.@.| 0.@.#.#.@.} ",
"*.i.*.s.w.w.y.r.w.w.w.%.%.w.r.r.p.0.r.%.y.e.d.s.f.g.U.l.k.k.k.k.k.z.h.8.f.e.e.t.r.0.0.0.u.0.9.q.#.#.@.9.0.9.0.#.@.| $.q.i.#.#.9.",
"i.u.u.p.r.r.r.t.d.y.e.e.e.e.w.0.0.w.p.w.w.r.t.g.Y.Y.l.l.k.k.z.z.j.j.6.7.7.:.r.w.r.r.y.u.y.9.@.0.#.0.0.0.0.@.@.| @.| @.@.@.#.0.@.",
"p.a.u.r.s.s.t.t.e.e.t.r.e.r.r.#.0.w.s.e.s.f.T.Y.Y.l.z.z.z.j.j.h.6.7.7.3.4.V.v.@.0.#.p.u.0.w.#.w.q.0.0.0.0.#.0.#.#.@.@.| @.@.9.y.",
"i.p.u.r.t.t.t.t.e.e.e.q.r.q.y.#.r.0.p.L.W.Q.Y.k.z.z.j.j.h.6.5.5.3.3.<.,.,.V.N.{ *.=.0.#.#.y.r.t.w.e.a.#.q.q.q.0.0.q.0.@.| @.q.e.",
"i.p.u.a.t.s.s.t.e.y.%.y.w.q.w.p.u.a.!.fXW.U.z.j.j.I.h.6.1.1.<.<.,.L P K K J V.7.g.| 0.#.$.q.r.r.#.#.t.w.p.0.w.9.9.0.@.0.0.@.#.@.",
"p.a.a.u.t.t.f.t.y.w.y.e.w.w.#.e.f.Q.W.Y.z.j.j.sXiX7.1.1.<.,.P P K K H H J J T C.T.f.o.r.w.9.q.q.q.w.r.y.#.#.0.@.#.0.#.0.9.@.| $.",
"p.u.@.@.r.r.r.r.#.y.y.y.r.q.w.e.Q.Q.T.j.j.6.E.C.1.<.,.,.P H H H H F H F F F ,.7.T.T.d.u.0.0.y.q.#.#.y.r.q.$.@.0.u.r.#.y.#.$.@.| ",
" .i. .@.#.y.0.y.y.e.r.r.y.e.0.Q.W.T.j.h.7.5.1.<.P P H H H H F F F G G b m F ,.3.6.I.I...@.q.@.9.0.w.p.q.0.#.q.r.w.e.u.0.i.q.q.0.",
" .i. .#.y.y.y.0.y.y.e.y.u.0.L.W.h.h.Z.C.3.,.P P K H F F F G m m b m b F ) T L 1.5.h.I.;.o.@.9.9.w.#.0.9.9.#.0.0.#.r.w.w.0.0.w.#.",
" . . .#.#.y.r.0.w.w.0.0.r.9.I.h.6.7.3.<.L K J F F F m b b b b C U F.H.qXyXD.J ,.1.5.C.2...9.9.a.0.@.0.9.0.0.w.r.0.t.w.q.u.a.0.w.",
"9.} 9.9.0.y.a.u.9.p.0.q.0.p.I.5.5.<.L K J F m b b b M b U M.D.0XiXaXaXaXiXqXJ K ,.<.4.7.X.i.y.0.0.@.q.q.r.r.w.0.0.0.q.9.0.0.0.e.",
"9.u.u.u.u.r.r.u.a.w.r.#.@.:.3.1.,.J I F F b b z l C F.H.yXgXlXlXiXJ.N.N.uXpXM.J K L ,.,.>.| u.0.0.@.a.u.w.w.0.r.y.q.0.q.0.y.r.r.",
"9.9.9.0.u.r.r.u.u.u.w.q.#.:.<.L J I G b b V : : : l S gXlXkXlXJ.n n V S ! pXD.F F H K 2.S o. .0.w.0.t.w.r.t.w.#.0.w.#.y.e.e.%.w.",
"9.9.9.r.r.u.u.y.9.0.0.#.q.:.Y F F F z b ( M.S.qXpXdXJ.sXzXxXlXwXdXeXlXsXiXyXH.Y F F F Y S [ 9.9.#.q.0.0.0.#.0.0.#.p.#.%.y.w.%.w.",
"9.p.0.t.r.r.a.q.q.q.9.9.q.q.;.&.1.J G U F.0XqXzX<Xa dXkXxXzXlXlX<X% wXaXiXpXqX( b b m m I [ ..#.#.0.0.@.q.#.q.q.0.r.e.r.e.e.q.q.",
"9.0.w.u.u.0.#.@.9.y.0.@.#.#.#.-.<.J G _ 0XqXHXzXt   b.kXzXkXvXhXa   s aXiXqX0XD.C C m C S [ X.#.-.p.#.#.#.#.q.#.y.e.w.w.y.e.t.a.",
"9.0.0.0.w.w.@.@.9.9.9.9.q.q.#.%.T I I D.iXlXzXjX.   W xXxXvXvXdX.   y iXiXqX0XG.) V C C S [ q 0.0.0.q.u.9.@.0.0.w.w.e.e.e.t.e.y.",
"0.0.0.w.0.0.9.@.9.} q.0.0.@.@.0.2.Y Y 0XlXzXzXbX    b.cXzXxXkXdX    a iXiXqX0XG.F.V B n S q 8 ;.=.-.p.0.0.9.0.q.q.0.y.w.y.a.r.y.",
"r.y.0.w.0.r.u.0.#.0.L.R.R.R.L.L.N.T T iXzXxXHXlX.   n.cXcXxXvXaXO   W iXqXqX0XG.D.U B B B A m.D.qXyXyXE.-.p.0.q.0.0.0.0.w.e.e.y.",
"e.r.t.0.0.0.0.0.0.d.hXlXsXqXiXgXG.T ) gXzXcXxXxXd t cXHXHXkXkXlXm.> wXpXqX0X0XG.D.U b C ) _ ) I _ D.D.H.v.w.#.@.q.q.9.q.w.w.q.0.",
"r.e.e.t.p.0.q.p.e.r.R.sXyXV._ D.0XV.Y gXzXxXxXcXcXcXHXHXgXiXaXlXgXaXiXyX0X0X0XD.D.U C U / I I I _ D.S.v.q.#.$.#.q.0.9.@.#.#.$.q.",
"t.e.r.r.r.e.0.u.r.e.t.E.sXG.V.T _ T U aXlXxXxXcXcXHXHXxXaXyXiXaXaXiXpXqX0X0XD.D.D.C b Y G I I ) B.S.v.y.r.0.@.@.*.0.@.q.q.q.0.i.",
"t.t.e.t.r.r.q.9.r.u.r.a.E.aXyXH.V.V.G iXlXlXzXHXzXcXcXgXuXwXyXyXyXyX0X0X0XG.D.D.V.c F 2.I ) _ F.S.:.0.u.w.0.0.@.0.@.q.0.w.#.@.#.",
"e.e.e.t.r.r.r.a.r.r.a.r.f.R.sXgXI.3.F D.aXlXlXlXlXlXdXA.A.A.( F.0X0X0XG.G.D.F.F.) l C 4.V.B.F.( d w.w.0.q.w.0.9.9.0.w.w.0.#.0.q.",
"y.e.r.e.r.r.r.a.s.r.a.r.s.t.J.H.Z.3.m U qXaXgXgXgXgXpXiXyX0XG.H.G.G.G.G.D.F.F._ C l n 2.V.( y 6 w y.w.0.u.0.w.0.9.0.0.u.0.0.0.0.",
"y.e.y.t.a.a.r.9.a.p.0.p.r.r.s.f.7.4.F M G.jXqXqXqXpXqXqX0XG.H.D.D.S.S.S.F.F.B.( c l M T 4.t $ 6 3 r.t.t.u.0.0.w.r.w.w.0.0.9.0.0.",
"w.r.0.0.p.p.a.9.u.a.a.p.a.r.p.d.7.4.G Q UXPXIXqXD.H.0XG.D.D.S.S._ eXF._ A.A.M.( Z k c F 2.A @ @ 3 e.w.e.r.w.0.u.r.t.a.r.u.9.0.u.",
"w.e.9.u.9.u.u.r.a.0.r.r.r.u.u.i.3.V.eXPXFXPXIXPXeX! ( M.F.( A.A.( ( A.( M.( ! Z c k k m U T u X...t.e.e.w.e.q.0.r.0.r.y.y.0.q.u.",
"0.w.0.9.9.u.u.0.u.a.a.u.r.u.r.u.R.PXPXDXnXPXIXIXIXUX~ Q Q ! ! ! ( ( ( ( ( Z Z N k c v M U U +.u.e.r.e.t.r.e.0.a.r.r.u.q.0.r.0.y.",
"0.p.u.9. .0.u.u.u.y.9. .0.0.L.bXJX6X4XPXIXIX:XDXLXPXJXm.~ N Q Q ! ! ! Z Z B k k c M >.v n C +.y.y.e.e.t.t.r.w.u.q.0.p.r.0.y.u.u.",
"0.u.9. . .u.u.0.p.0.w.q.K.tXPXFX+X#XVX@X+X/.=X-XNXFXJXPXUXW N N B N l l l l l k c B w.%.v n S 0.y.t.r.t.r.r.r.u.0.0.0.u.0.0.0.0.",
"9.0.i.9.} 0.0. .9.9.d.bXPXJX6X(.-X-XAXtXSXAXAX-X*XNXDXJXJXFX7XN l : + & : k k N M +.e.y.-.v A y.y.r.y.t.t.a.0.0.u.0.0.0.0.0.#.@.",
"9.0.u.9. .9.i.0.0.u.tXPXPX8X#XVXSX-XtXU.bXAXAXKXVX*X$XBXDXDXDXDX<XQ > % & l c c n &.r.r.a.w.;.#.0.e.d.r.r.y.a.y.r.0.9.@.#.#.q.i.",
"0.0.q.9. .u.u.u.u.K.FX9XBX4X*XLXAXtXW.l.l.SXAXLXZX-X*X6XnXDX8X8XmX5Xt 6 # = c n ;.e.r.y.t.a.w.w.w.u.u.q.9.9.9.u.u.u.y.0.r.0.y.0.",
"u.w.0.0.u.9.u.i.i.P.LXDX3X#XCXLXFXtXSXSX6XrXVXLXCXCX*X3X7X>X>X5X3X,Xp 9 9 ; r w.w.r.w.u.0.r.0.w.r.9.9.9.y.u.0.0.0.9.w.w.e.r.e.e.",
"a.u.0.w.r.r.p.i.u.P.FX3X(.AXLXSXfXbXZX-XbXU.SXZXKXCX*X@X3X6X5X3X,X>X8 8 q > 1 ;.a.w.w.r.r.u.0.p.r.u.r.a.0.0.q.0.@.#.q.w.r.#.#.y.",
"u.0.0.9.9.9.9.9.} rX5X(.%XZXCXvXfXfXSXbXl.U.R.*XLXJX#X%X/.+X3X,X>X;X0 8 q 9 = u p.p.w.0.0.r.p.0.y.r.s.r.0.u.p.r.e.0.#.q.q.0.r.e.",
"u.9.@.9.q.9.0.q.} 2X3X%X*X%X6X9XtXrX9XrXn.P.g.=X%X$X%X%X#X(.>X:X:Xh 0 8 q q ; 1 >.r.a.u.r.p.u.u.0.a.s.u.r.y.u.r.w.p.0.#.0.#.y.%.",
"0.u.0.u.9.u.y.9.#.1X4X%X&X&XMXmXNXCXmX*X&X&X}.%X%X%X%X%X#X$X:X+X;Xj 0 0 0 p 9 = 2 ;.t.s.a.a.w.#.0.r.s.u.r.u.a.a.0.q.0.9.#.q.r.r.",
"r.u.0.0.9.9.q.9.u.1X4X}.XX/ ' ' MXmX^ &X%X` XXoXoXoX].{.{.4X+X+X;X0 0 0 0 q 9 * = y p.w.a.w.p.0.$.>.#.a.s.0.0.0.y.i.0.$.@.0.#.u.",
"y.u.0.9.9.0.9.9.u.,X4X}.).` R OXMX' ^ oX}.` R R x ~ '.{.{.:XoX+Xh w w 0 0 0 q # ; 1 A 9.w.w.=.u > > y 0.9.u.0.0.#.#.0.#.w.w.0.p.",
"u.0.0.u.9.0.u.9.=.,X4X}.|.R R OXMXXXOX}.}.R R E _.[.'.`.$X;XO.+Xp w w w 8 8 8 # * = A 0.0.;.> * = > > $.9.e.r.9.p.i.#.q.0.0.u.p.",
"r.u.0.y.0.y.r.u.i.,X3X$X|.` R ' MXMX|.}.oXR R R ~ '.'.[.oX~.~./.7 3 5 5 5 7 7 # = N ! v.=., * , > < u p.i.r.y.9.9.@.q.w.#.a.a.a.",
"r.u.i.0.0.r.u.0.a.2X,X,X|..X] ' / ' OX` R R R _.[.).(.).O.f ~.j 4 4 3 5 3 3 6 # : N Q ( u * - , < u u.a.y.y.0.0.0.0.u.q.w.s.a.a.",
"r.a.0.u.u.y.9.9.0.2XnX6XNX}.MXOX` R R R [. X X`.).;X~.f /.^.^.< $ $ # # e e y * : k Q ! = ; - < a a j d O.:Xb.b.b.n.n.n.n.d.a.s.",
"y.u.u.a.9.q.9.0.%.P.7X Xf }.` ` |.R [. X X_.`.(.^.nX^.~.f ^.a O # D r r r r r & = : N N * = , h j j j h g +X:X:X,X3X,X,X5Xb.0.r.",
"u.u.0.9.0.0.0.u.u.d.7X;Xj ]. XoX&X' ]._.E _.`.(.j h h ~.^.f % * * D * # * + r * X - N & & = a g :X,X,X3X,X,X>X>X,X3XnX8X3X,Xc.%.",
"a.u.u.0.9.0.0.9.@.#.2X5X@X}.}.}.}. X].].'.'.'.(.f ~.^.^.f < * % , r # * * + r + = : : + ; , % f :X,X7X8XGXDXJXFXJXJXDXnXGXnX9XP.",
"r.r.r.t.0.u.0.0.q.q.c.7X3X$X}.}.}.}.].'.'.{.(.+X;X+X^.f < % % % > r * * * - r # r A - + , * < h O.oX,X7X8XBXDXFXJXJX9X7X9X5X2Xd.",
"0.r.t.r.w.0.w.a.r.a.0.n.3X6X$X#X6X3X(.{.[.).oX+X>X^.j % % % % % > r r r i t 9 3 X.u.e = s < a { O.O.b.,X7X8XGXFXJXJX9X,Xn.K.p.w.",
"u.r.t.a.r.r.0.w.r.0.0.=.,X3X3X3X3X;X~./.+X+XoX^.^.j $ $ $ $ 6 6 6 4 4 4 3 3 5 3 q y.u 1 s s O.#.i.w.w.d.c.c.n.9XBXGXn.d.w.w.a.a.",
"0.r.s.a.a.r.0.t.w.#.0.@.c.1X3X6XBX>Xg ^.+X>X+X~.p $ $ $ 6 8 6 6 3 3 3 5 5 5 5 5 6 %.$.y s s %.%.q.r.w.w.a.a.i.p.u.p.a.a.t.p.0.w.",
"w.r.r.a.r.w.u.u.#.w.#.#.u.c.3X5X9X+X+XoX,X+X~.h $ @ @ 4 6 6 8 5 3 7 7 5 3 3 7 7 ..e.y.u t , -.y.e.w.w.p.i.i.i.i.u.r.q.w.p.w.0.w.",
"a.u.0.a.9.0.w.#.0.#.0.0.u.y.n.3X4X+X+X4XO.a < ^.^.a 9 % 6 6 6 6 3 4 4 $ $ # O u e.t.t.t.u ;.r.e.e.y.r.u.a.d.u.u.a.9.#.#.0.=.0.u.",
"r.p.0.0.0.%.t.#.0.#.q.0.w.u.@.c.,X>X+XO.O.y * + % a j < i ..{ % O . X o o X O > u ;.-.a.t.t.w.p.a.a.a.p.i. . .9.9.9.9.@.q.u.w.a.",
"a.p.0.0.0.#.r.u.i.#.#.w.0.#.0.a.d.c.y.w.c.d < + o X . # $.#.=.< X X o X X X o + = 1 y >.e.w.y.a.p.p.u.9.i. .9.}  .9.0.u.r.r.w.r.",
"a.r.w.w.u.9.#.9.0.i.0.p.0.-.#.t.w.q.e.%.W s , & + X X > $.@.=.< o X X X o o + & , 2 2 s ;.p.i.u.9.@.} } i.u.u.9.9.0.r.y.w.e.w.0.",
"u.p.r.a.0.i.*.0.0.u.#.0.0.#.#.0.q.0.=.c.W s 1 = * & o t #.#.$.% O X X X + + + & = - 1 y u u. .i.i.i.}  . .9.i.9.9.0.0.0.0.t.d.p.",
"w.r.t.t.p.w.0.0.q.0.q.@.$.#.0.u.#.#.@.W N 2 : = = = * < #.9.#.{ e # O O o + + # * * = > u  .i. . . .9.i.i.i.9.i.#.#.w.0.w.w.d.p.",
"u.0.r.t.r.r.0.#.u.9.u.q.#.%.y.%.#.#.#.y s s 1 : 1 = * i q.#.0.u.0.q.#.$...{ u i t i i { ..| }  . . . .9.u.i.i.0.i.0.p.r.p.p.w.p.",
"y.u.u.u.a.w.0.u.0.0.0.9.#.%.%.w.e.e.p.y , , - = = * % { q.#.y.9.9.y.#.#.q.0.y.q.0.q.i. .}  .9.0.i.i. .9.p.u.u.u.#.u.p.r.p.r.a.d.",
"a.y.r.9.0.w.0.0.9.#.p.p.p.w.w.w.p.e.e.#.u y e i t i $.y.y.0.0.0.0.y.y.#.w.r.q.9.@. . . .| | } i.i.i.u.w.0.u.0.u.0.u.r.d.d.d.r.y."
};
