/* XPM */
static char *_7ca42e909704361e8643849cae0d6f6A2NJl78ZgMjO4NnQ[] = {
/* columns rows colors chars-per-pixel */
"64 64 247 2 ",
"   c #1A0D0D",
".  c #021514",
"X  c #021B16",
"o  c #03151A",
"O  c #031C1A",
"+  c #091A1C",
"@  c #121111",
"#  c #25140E",
"$  c #2A180D",
"%  c #251212",
"&  c #2A1514",
"*  c #2C1A13",
"=  c #271915",
"-  c #341C13",
";  c #361C17",
":  c #042315",
">  c #03231B",
",  c #072A1A",
"<  c #05361A",
"1  c #0E3615",
"2  c #33210D",
"3  c #2B2413",
"4  c #3D2215",
"5  c #3A2616",
"6  c #283316",
"7  c #333017",
"8  c #061C21",
"9  c #062D22",
"0  c #082821",
"q  c #093823",
"w  c #153929",
"e  c #132A23",
"r  c #223E35",
"t  c #422416",
"y  c #432519",
"u  c #452A19",
"i  c #46331D",
"p  c #443622",
"a  c #064717",
"s  c #085918",
"d  c #13581C",
"f  c #0E4912",
"g  c #2D4A1B",
"h  c #06621B",
"j  c #0B6B1D",
"k  c #07681B",
"l  c #08771C",
"z  c #1A631E",
"x  c #0A4C23",
"c  c #0A4723",
"v  c #15472A",
"b  c #0C5424",
"n  c #0D5926",
"m  c #165626",
"M  c #125F33",
"N  c #234B28",
"B  c #2A4E36",
"V  c #0C6C23",
"C  c #0E6C2C",
"Z  c #0A6426",
"A  c #14652C",
"S  c #146929",
"D  c #0B7223",
"F  c #0B7B23",
"G  c #0D732A",
"H  c #0D7D2B",
"J  c #057524",
"K  c #13742B",
"L  c #127C2C",
"P  c #167929",
"I  c #0B6C34",
"U  c #196B33",
"Y  c #0C7535",
"T  c #147432",
"R  c #147A32",
"E  c #1A7737",
"W  c #286A39",
"Q  c #24763A",
"!  c #277234",
"~  c #50552B",
"^  c #5A6831",
"/  c #686837",
"(  c #667434",
")  c #536521",
"_  c #197843",
"`  c #297A45",
"'  c #37754A",
"]  c #326D47",
"[  c #437B53",
"{  c #487753",
"}  c #486F53",
"|  c #667A6C",
" . c #07831C",
".. c #0C9F1D",
"X. c #0B8424",
"o. c #0A8B24",
"O. c #0D842A",
"+. c #0C8B2A",
"@. c #068726",
"#. c #13832E",
"$. c #128A2C",
"%. c #17882B",
"&. c #0A932C",
"*. c #0B9729",
"=. c #11942C",
"-. c #14972C",
";. c #0B8832",
":. c #158432",
">. c #1B8435",
",. c #158B32",
"<. c #1A8C34",
"1. c #1A883B",
"2. c #0E9233",
"3. c #0C9A32",
"4. c #149334",
"5. c #1A9335",
"6. c #189A37",
"7. c #248B3C",
"8. c #2A8B3B",
"9. c #24843A",
"0. c #23953C",
"q. c #259538",
"w. c #31893F",
"e. c #17A637",
"r. c #11A928",
"t. c #24A63B",
"y. c #30A93F",
"u. c #739237",
"i. c #4EAB37",
"p. c #7EBC2D",
"a. c #7FB927",
"s. c #7DBC34",
"d. c #61B337",
"f. c #449C30",
"g. c #198647",
"h. c #1E9C44",
"j. c #288A44",
"k. c #338C4B",
"l. c #348A48",
"z. c #299747",
"x. c #33934B",
"c. c #37974B",
"v. c #368C56",
"b. c #3A9C53",
"n. c #399953",
"m. c #2A8F57",
"M. c #1CA644",
"N. c #28A54B",
"B. c #38A94A",
"V. c #2AA358",
"C. c #38A558",
"Z. c #299E67",
"A. c #379D6B",
"S. c #3B9E70",
"D. c #2AA568",
"F. c #39A467",
"G. c #3AA671",
"H. c #478A4C",
"J. c #458B58",
"K. c #53865E",
"L. c #45945B",
"P. c #469A5C",
"I. c #479758",
"U. c #53985D",
"Y. c #4D9549",
"T. c #70934D",
"R. c #45AB45",
"E. c #43A35B",
"W. c #4AA85B",
"Q. c #53A45B",
"!. c #57B256",
"~. c #4CB050",
"^. c #77B84A",
"/. c #6DB251",
"(. c #478B60",
"). c #598B64",
"_. c #4A9864",
"`. c #549B63",
"'. c #599766",
"]. c #459E72",
"[. c #5B9C71",
"{. c #66876C",
"}. c #67966C",
"|. c #679B72",
" X c #779779",
".X c #6F8D75",
"XX c #46A764",
"oX c #55A866",
"OX c #47A575",
"+X c #54A475",
"@X c #5BA67C",
"#X c #5AA976",
"$X c #53B266",
"%X c #69A977",
"&X c #77A87D",
"*X c #69B277",
"=X c #6DAD74",
"-X c #7CC451",
";X c #829F3B",
":X c #84BD2B",
">X c #8ABE2B",
",X c #86BB28",
"<X c #91BF2B",
"1X c #81BE31",
"2X c #8ABC36",
"3X c #8CB13A",
"4X c #85C12D",
"5X c #8CC32C",
"6X c #8FC227",
"7X c #93C52D",
"8X c #99C72D",
"9X c #95C82E",
"0X c #9BC92E",
"qX c #91C427",
"wX c #85C131",
"eX c #8DC432",
"rX c #8DC33A",
"tX c #84C23B",
"yX c #93C632",
"uX c #95C931",
"iX c #9ACA31",
"pX c #98C637",
"aX c #A0CC2F",
"sX c #859542",
"dX c #8AB448",
"fX c #88C247",
"gX c #90C745",
"hX c #5EB181",
"jX c #67AC85",
"kX c #7BA88A",
"lX c #69B186",
"zX c #74B387",
"xX c #7AB392",
"cX c #819F81",
"vX c #84B58A",
"bX c #8ABA95",
"nX c #95B89A",
"mX c #95AC93",
"MX c #98BEA4",
"NX c #A7BBA7",
"BX c #92C395",
"VX c #9BC4AA",
"CX c #A7C7AB",
"ZX c #AAC7B1",
"AX c #B8CBB7",
"SX c #B8CFB5",
"DX c #CCD9CA",
/* pixels */
">XeX5X7X7X7X7X7X8X<X<X<X,X<X7X6X7X8XyXyX7X7XuXiXiX9XeXpXfXfX/./.^.^.^.gXpX8XyX0X9X9X5X5X5X9XuX9X5X9X5X9X7X5X5X:X>X>X,X:X>X4X1X1X",
"p.1XeXuXyX<X6X7X7X7X<X<XqXqX5X6XyX<X7X8XiXyXgXfX-X$XXXV.Z.Z.D.C.D.V.Z.V.D.XX$X/.-XgX5X5X5X4X4X5X5X4X5X5X7X5X5X6Xp.p.>X>X>X4X,Xp.",
"1XwX1XiX7XqXqX0X7X7X8X<X7X7X8X7X5X7X7XyXyXfXXXV.M.D.D.D.Z.Z.Z.Z.Z.Z.D.D.D.D.V.V.V.W.-XeX9X4X4X5X>X>X:X4X5X4X>X>Xa.p.,X>XwX>X>X4X",
"4XeXeXyX8XuX7XuX8XqX8X8X8X7X7X5XeX7XeXeX^.XXG.F.D.D.D.D.Z.Z.Z.Z.Z.Z.Z.D.D.D.D.D.F.F.F.-X5X4X4X5X>X5XqX4X4X:X:X,X,Xa.p.>X:X>X5X:X",
"yXuXeX9XiXaXiX0X8X8X0X8X8X7X7X5XeX5XiXfXC.V.F.D.D.G.G.G.G.G.A.A.S.S.S.G.G.G.G.D.D.F.C.C.fX7X6X7X5X5X5X4X5X5X5X>X:X,X:Xa.:X,X4X5X",
"wXeXeX0X0XaX0X0X8X8X8X7X7X6XqX>X7X7XpX!.N.C.XXF.G.G.G.G.OXG.].].].].].G.G.D.G.G.F.XXV.N.!.yX7X8X7X7X8X>X6X6X5X5X4X6XeX:X,X:X5X7X",
"eXyX7XuX0XaXiX0X8XqX<XqXqX5X7X7X5X5X-XB.V.XXF.D.hXhXlXhXhX].G.S.].].G.hXlXlXhXOXF.F.$XV.B.-XyX8X>X>X0X7XeX6XyX4X4X5X>X>X4X>X>X:X",
"eXuXeXeX9X0XaX0XqXqXqX7X7X7X5X8XuXgX~.M.C.XXF.OXG.hXxXlXjXhXhXS.].OXhXlXzXxXlXG.G.F.F.XXM.B.eX4XqX7X7X7X>X>X4X>X4XeX>X4X>Xp.,X:X",
"yX4X:X4X7X7X9X9X>XqX9X8X8X5X7X7XuX^.N.C.XXC.#X#XOXxXMXMXMXbXhX+X].hXbXnXbXMXbXG.#X#XC.F.C.N.^.6X>X>XqX7X<X,X4X4X7X7X>XqX>X,X,Xp.",
"wX4Xs.4X6X6X6X9X7X7XqX9XqXqXuX7XrXE.N.XXM.$X*X+XhXMXAXMXnXxX+X].+XhXxXnXVXAXMX@X#X*X$XN.XXV.E.tX5X8XyX6X6X4X6X9X7X8XeX5X4X5X5X5X",
"1XwXp.4X6X7X5XqXqX8XqX9X5X5X7XuXfXm.z.P.M.$X*XkXnXMXVXZXNXjX+X%XhXhXjXNXZXCXMXnXxX#X$XM.b.z.z.^.6X4X4X5X4X4X7X4X5X8X7X7X4X5X7X:X",
"p.1X1X4X6X7XuX5X7X7X7X7X7X5X7XuXoXz.C._.XXC.*XjXxXxXDXDXVXjX+XjXhXhXjXVXDXDXxXvX*X*XC.XXXXXXz.Q.yX4X4X5X>X7X7X7X6X0X7X4XeX7X7X7X",
"4X4X4X4X5X9X5X5X5XeX5XqX5X5XwXH.6.C.XXXXE.N.bX#XMX+XhXxXjX@X].@XS.S.@XzXxX@X@XnX%XbXN.E.XXXXN.h.Y.2X>X5X8X8X7X5X4X6X5X4X5X6X5X8X",
"p.eXeX4X5XuXuXuXuX7X8X>X5X2XU.E 2.M.C.$XC.N.SXAXZXmXjX+X+XA.m._.].` A.].[.jXmXZXAXSXN.E.$Xb.M.6.E H.pXyX7X8X5X7X7X6X5X5X5X7X7X8X",
"eX4X4XeX4XuXuX5XeXeXeX2XdXU.] Q 6.B.W.*X#XC.nXbXAXMX|.v.m.v._.`.(.(.m.m.v.|.MXAXbXnXB.oX%XoXN.0.` ] /.dXrXpX5X>X6X7X<X6X8X8X<X7X",
"4X4X4X7XuXuX5X5X1X-XR.I.'.).).Y.M.~.=XvXvX%XZXzXCXvX[.(.[.[.[.`.[.[.|.[._.[.vXCXzXZX#XbXzX=X~.e.H.(.).).I.B.-XrX5X5X>X<XqX7X<X7X",
"4X5X5XuX0X8X7XtXB.e.e.I.'.).K.y.r.~.*XzXQ.zXCXzXoXoX'.'.oX_._.oX_.XX_.oX`.`.oXoXvXSXzXW.zX*X~.e.t.).).'.P.0.t.B.rX0X8X9X9X9X7X6X",
"4X5X5XyX5XyX>X^.t.e.e.I.'.}.).Y.5.6.x._.z.BXBX=Xb.z.c.n.x.j.z.P.C.z.j.l.n.c.x.b.=XBXvXz.b.n.6.1.l.).}.'.c.e.r.t.fX9XqX9XqX8X9X8X",
"4X4X5X5X7X7XwX!.0.3.5.j.K.).K.{ [ j.}.(.6.c.c.x.7.>.E l.L.x.1.6.5.<.k.L.l.R E j.x.z.c.h.J.[.j.{ { | K.U.j.4.3.0.!.uX0X9X0X8X9XqX",
"5X7X5X7X5XgX!.C.oXW.P.L.U.K. X{.{.(.kX(.1.L 8.I.H.v.v.J.J.v.7.+.X.9.J.L.J.J.l.H.J.w.>.E (.vX(.{.{. XU.K.I.I.oXXXW.!.fX9X6X0X8X6X",
"7XqX7XeXrX~.B.$XoXXXn.'.l..X X X[ (.kX).l.l._.}.'.U.`.U.L.L.L.>.E I.P.L.P.`.`.`.'.U.k.l.'.kXJ.J.&X X}.v.'.b.XXoX$XN.~.rX7X0XuX5X",
"uX0XuXeX!.t.B.N.b.z.E.oXU.&XcX{.' ' ' ] ] ` 7.U.U.I.H.k.k.L.n.:.9.n.P.j.k.Y.U.'.U.q.` ] ] [ ' ' | dX X`.oXQ.z.b.B.B.t.!.7X7XqX5X",
"8X8X8XpXB.e.e.C.c.B.=Xc.oXmXNX{ U ' {.B X v #.x.U.I.l.R 1.k.>.T E 1.k.1.E l.I.U.x.#.a o B | ' M } NXmX[.n.=Xb.x.C.M.e.B.2X>X4X5X",
"uX0X9XpXY.#.z.P.0.E.oXE.bXCXAXmX] ] {.B o O K $.8.7.A D H O.D A n D O.F G S 9.8.$.K o o B | W } MXAXNXbXb.oXC.z.E.z.#.Y.eX6X5X4X",
"0XaX8X0X^.1.N.E.z.0.h.C.vXnXNXNX.X] {.r @ o x P D b : b j s , v v , s j s : b K L x 8 o B {.] .XNXNXnXbXC.M.j.z.E.N.,.^.eX:X>X>X",
"7X8X7X0XpXe.0.R.I.z.6.N.*X&XvXmX.X] N e e e , a 1 O O : : . . O O o . : > o : < q 0 e + 0 N W  XMXbXdX#XN.6.z.b.b.t.6.gX>X>X>X>X",
"qX0X9X8X8X~.$.=.:.;.3.e.n.oXU.%X}.}..X| | {.} r + > + X o o o o o o o o O X O + r ] {.| | {.}.}.jX(.`.b.e.3.;.:.o.%.d.yX6X5X5X7X",
"qX0XqX0X0XaXY.n x Z @.&.4.q.6.Q.%X&X X XNXmX XK.w O O O O o o . X o o X X O O w | dXmXNX XkX X=X`.6.0.4.+.@.Z x b Y.yX7XeX4X5X5X",
"7X7X5X5XeXuXT.B , q I k J &.3.5.:.9.H.|.I.=XU.E a > O > O > : , , > > O O > > c ! U.=XI.|.J.9.:.5.3.@.J j G w , B T.0X8X5X5X4X7X",
"8X7X4X5XtX^.H.] v A ` _ T O.+.>.l.U.bXnX8.8.P S ] v 9 0 9 w q v N q w 9 0 9 v W V P q.8.nXBXU.x.9.+.O.T _ ` M v ' H.^.rXeX5X6X5X",
"6X5XeX^.c.R R Q q _ _ v.j.5.b.E.z.5.q.9.w.K K c.U.] c q x U A W U U U c < c W '.c.E S 9.9.q.5.z.P.b.5.j.J.g.I q Q #.>.l.fX5X5X5X",
"5XyXgXx.j.,.o.T w I g.m.1.3.b.q.=.O.#.8.l.w.<.0.I.x.A b Z L V V S D L A b A x.P.0.<.w.l.8.%.O.+.q.B.3.g.v.g.I q T +.;.j.z.gX7X7X",
"eXwXW.h.8.,.*.+.A Y g.g.X.r.e. .X.$.q.l.l.<.o.3.-.4.L G j j k E E k j l S P 4.5.3.o.%.l.x.7.$.o.o.-.r.o.g._ _ A ;.*.4.j.4.~.2X7X",
"4X^.+.5.z.4.o.o.:.T T ' P .. .a $.-.%.9.=.O. .@.O.j C V j P 9.R R 9.K j V G l F @.@.#.,.q.%.-.o.f  ...P ' E H ;.*.o.1.z.4.2.^.:X",
"4Xs.-.3.6.5.2.2.j.1.U..XW d , X  .o.o...l j Z s h P >.>.1.j.<.H #.<.j.7.>.>.P h h h k l  .=.*. .+ : h W |.U.9.1.&.+.4.6.3.=.s.2X",
"<XyXi.3.&.;.2.4.0.%.Y.).N + o o l o. .l s a A T E L K L =.5.O.H H O.<.=.L T H E U V a s  . . .l . o + N ).Y.%.7.4.2.;.&.3.i.5X<X",
"eXeXeX^.,.+.3.,.@.=.q.W w > o . s  .l f : X b Y ` T I C o.+.X.F P  .$.o.C C T ` Y b : X s l  .f . + > q W q.&.O.,.3.&.%.^.yX7X0X",
"yXeX6X7Xc.@.@.:.H l l d < > : X : f 1 . o . > Z G I b < l  .k k j j  .l < b I I M : o . . < f , O X > < d l l F :.+.o.c.8X>X6X9X",
"eXeX4X>X!.O.#.7.9.$.5.x.T a c , X . . . O O O , a < X + a s < < a < s a O > < a , X + O . . . X 1 w a R x.5.,.j.7.#.@.Q.eXqX7X8X",
"5X4X>X4X/.&.q.z.7.@.-.8.j.D U W , , w 1 O O o o O + o o o X X o X . O o . + o o X X O X e 1 9 < W U D j.8.-.@.7.0.q.&./.<X>X>XqX",
"5X4X5X5Xd.r.6.0.<.+.&.5.j.X.+.9.! ! { } + O O O o O X O X X O O o o : X o X o o O O o > } } W ! 9.+.F j.5.o.X.q.z.q.3.d.4X5X7X7X",
"uX7X5X5XtXN.-.3.*.*.3.4.x.#.o.$.l P H.K.w O > > O o o 8 O 0 o X X O 8 O 8 O X O > > > w K.H.P l o.+.#.z.6.3.*.$.-.-.y.s.:X5X5X5X",
"7XeX4X4X4XeX/.f.f.*.-.6.z.#.l J <.l.I.J.w 0 0 O 0 > 0 > > > > O O O > > > 0 0 0 0 0 9 w J.I.x.,.l l $.x.5.3.&.y.f.!.5X4X7X7X5X5X",
"5XeX7X5X4X5X5X5X5XR.-.6.,.H Z F 2.z.c.k.n q q 9 > 0 9 9 , q < 9 , q < < 9 9 0 9 0 , q M k.x.j.2.F Z L ,.5.r.i.<X7XeX6X5X5XeXeX5X",
"9XeXeX5XeX9XuX4X4XyXR. .J T ` O.2.4.5.>.I x q q q q c a x s h f a n n x < c q q q q x C :.5.2.3.H ` E J X.R.8X>X:X>X6XyX5X7XuX0X",
"5X5X5X5X5X9XuX4XyXuXdXd I _ ` T @.&.+.J Y C b b n b n n Z F l h h  .l k n n n n x b T G D +.&.o.G ` _ I d ^.5X4X4X4XuXeX7XiXuXuX",
"9XeX5X9X9XqX4X5XeXuXsX7 Y Y E T l F G C Y V A n n G R K j l l s h l l j K R K s n Z C G C G F k E _ Y I 7 sX4X5X7X6X6X5XiXuXuXaX",
"9X9X4X9X4X5X4X4XyXyX/ 5 Y ;.Y I b h D T Y V J n V H :.>.L j f j V f k P >.:.H C n J G Y G G h b I I ;.H y / eX6X5X5X4X7X7X5X5X9X",
"eX5X5X4X5XeX5X7X5XfXi - N N f 6 3 m l J H #.#.L L o.:.>.:.L A H P S K >.>.%.O.%.R #.#.H D J m 3 6 v d g ; i 3XeX>X4X5XuX7X7X7XeX",
"uX5X4X5X4X5X5X5X<X/ - - - $ * - 4 6 d k @.+.$.#.P +.$.$.H V K P L K D O.$.$.%.F F $.$.@.k d 7 ; = = * ; - ; / >X5X4X4X4X5XuXuXuX",
"9XuX9XiX5X5X5X5XsX* * $ % # # & ; ; 3 n l o.X.V j X.O.F j j J V h H h j F X. .z j F @. .s 3 ; ; & # % & $ * 5 sX5XeX5X5X9XuXuXuX",
"5X9XiX9X7X5XeXiX;X* $ $ % # & ; = % ; 3 V l j d g F F V s I C n Z A C n j F P g d j l V 3 ; % = - # % % $ $ 3 u.4X7X0X7X9XuXuX9X",
"5X9XaX9X5X9X5X7X7XeX3X;X( p & %   % ; & 6 f g u u g d g 5 N I I I I N 5 g S g u i g f 6 & ; %     - p ( dX3XeX5X4X5X5XuX9X7XuXuX",
"5XiXaX9XuXuX5XiX7X4XeX>X,X2XsX/ = * & = u u u u u u t 4 ; 3 c a a a 3 ; ; t u u u u u t = * * % / sXpXyX8X7XeXeX5X5XyX7X9X9X7X5X",
"9XuX9XuX9XuXeX5X5X5X>X>XwX7XeXrX/ - $ 2 t t u y u t t - $ - * # % * ; * - t 4 u u u t t 2 - * / 8X7X7XyXeXwX>XeXeX8X5X7X8X5X5X7X",
"9X5X5XuX4X4X8X4X6X5X5X4X6X5X4X>X2Xp $ 5 t t t t t t t - & ; & % % & ; & * 4 t t t u t 5 5 - p pX8X7X7XyXrXyXrXeXeX4X>X5X4XeX4XeX",
"uX7X5X5X4X<X0X>X4X>X6X5X5XeX>X>XyX^ ; t t t t t t - & & $ *         & # # - - t t t 4 t 4 - ) uX7XeXpXuXwXp.wX4X5X4X4X>X5XeX7XuX",
"uXeX7X5X5X5X7XeX4X4X4X7X7X4X>X7XuX^ ; ; 4 4 t t ; - $ % % &         %   % & - ; t t 4 4 4 - ^ 9XeXuXeXwX1X1X4Xp.p.4X5XeX7X7X7X7X",
"uX7X7X7XyX4X5X4X7X>X5X5XeXyX>X0XeX) ; y ; 4 t ; - 2 $ & ~ ^ u.u.u.u./ ~ = * 2 $ 4 4 2 5 4 - ~ eX5X4Xp.p.wXeXwX4X4X5X7X7X7X8X7X7X",
"9XeX7XyXeX>X>X4XeXeX>X>X>X>X>X4X5X~ ; y 2 2 4 2 # # i ;X2X,X6X5X6X4X>X>X;Xi # $ - 4 2 2 t ; ~ 1XwX1Xp.p.p.wXwX4Xp.5X7X5X5X0XiXeX",
"7XuXuXaXuX5XyX5X5X4X6X>X,X<X>X<X>Xu.7 ; 2 2 3 # # ~ 3X<X5X>X5X5X4X4X4X>X5X3X~ # # 3 2 2 5 7 u.1X4Xs.4Xp.4XwX4X4X>XeX7X5X5XyX8XyX",
"7X5X9X9X8X7X4X>X5X4XeX4X>X<X>X7X<X<X^ 3 2 $   3 ) 3X<X,X>X>X6X4X5X6XqX>X5X6X3X) 3 @ $ 2 3 ) s.4Xs.4Xs.4XeXwXeXwX>X5XyXyXyXuXyXyX",
"uX5X5X9XuX5X>X5X6X5X5X4X<X<X<XyX7XuXyXu.^ ) ( 3X7X7X8X<X>X>X6X>X>X5X>X>X<X>X<X<Xs.( ) ~ T.s.4X4X1X1Xp.wXyXeX5XyX4XeX8X7XyXyXyX8X",
"9X5X5X4X5XuX7X5XeX4XyXyX7X8X7X7X8X8X0X9X9XqX7X7X8X7X7XyX7X5X6X>X7X6X<X>XyX8X>X<Xp.p.p.s.p.s.p.wXwXeXeX7X5XeX5XeX4XeXyXyXpXiX7X7X"
};
