/* XPM */
static char *wall_sun_2[] = {
/* columns rows colors chars-per-pixel */
"64 64 129 2 ",
"   c #7D3E1E",
".  c #7F401D",
"X  c #9E540B",
"o  c #81431F",
"O  c #874B1F",
"+  c #894D1F",
"@  c #904E17",
"#  c #8F511E",
"$  c #A55707",
"%  c #A65906",
"&  c #AF5D01",
"*  c #A25609",
"=  c #A45909",
"-  c #A85D0C",
";  c #B05F03",
":  c #A45F16",
">  c #AF6007",
",  c #AF620A",
"<  c #B06106",
"1  c #B1640B",
"2  c #B2680F",
"3  c #AC6412",
"4  c #B06712",
"5  c #B36B14",
"6  c #B36E1A",
"7  c #B7731D",
"8  c #B8731B",
"9  c #BA781F",
"0  c #804220",
"q  c #864922",
"w  c #8A4E24",
"e  c #8A5027",
"r  c #8E572D",
"t  c #945722",
"y  c #945927",
"u  c #9C5D23",
"i  c #925B2E",
"p  c #945E31",
"a  c #9D6124",
"s  c #9B6328",
"d  c #966232",
"f  c #996434",
"g  c #9C6A34",
"h  c #9E6D3B",
"j  c #A76B27",
"k  c #A96D27",
"l  c #A06A2D",
"z  c #B16F20",
"x  c #AC732E",
"c  c #B57523",
"v  c #B87621",
"b  c #B77825",
"n  c #B87925",
"m  c #B3762A",
"M  c #B67929",
"N  c #B87C2A",
"B  c #A06F3A",
"V  c #A2713C",
"C  c #AE7F3E",
"Z  c #BC7F30",
"A  c #A67B47",
"S  c #AB7D42",
"D  c #BE832E",
"F  c #BB8334",
"G  c #BF8934",
"H  c #B2813C",
"J  c #BB873A",
"K  c #BC8A3E",
"L  c #C08225",
"P  c #C1852C",
"I  c #C4892B",
"U  c #C28C35",
"Y  c #C0893F",
"T  c #C99232",
"R  c #C4923D",
"E  c #CD9B3D",
"W  c #AF8446",
"Q  c #B08546",
"!  c #B38846",
"~  c #BD8D43",
"^  c #B38A4B",
"/  c #BE8B4A",
"(  c #BE9046",
")  c #B7904F",
"_  c #BE9249",
"`  c #BF8E54",
"'  c #BA9452",
"]  c #BE9954",
"[  c #C18C43",
"{  c #C59644",
"}  c #CD9E42",
"|  c #C1954E",
" . c #C99D4A",
".. c #C08F58",
"X. c #C29551",
"o. c #C49B55",
"O. c #C2925C",
"+. c #C99D5B",
"@. c #D3A543",
"#. c #D4A847",
"$. c #D6AC4A",
"%. c #D8B14E",
"&. c #CBA553",
"*. c #CDA856",
"=. c #CCAB5C",
"-. c #D0AF5E",
";. c #DAB451",
":. c #DEBB57",
">. c #D3B25E",
",. c #DFBD59",
"<. c #C49864",
"1. c #C3976C",
"2. c #C69C6B",
"3. c #C89E6E",
"4. c #C69D72",
"5. c #CBA465",
"6. c #CDAE61",
"7. c #CCA56B",
"8. c #CEAA6E",
"9. c #CFB163",
"0. c #D2B565",
"q. c #CAA475",
"w. c #CFAC71",
"e. c #CDAB7C",
"r. c #D0AE73",
"t. c #D3B57D",
"y. c #D4B780",
"u. c #D5BB86",
"i. c #D7BE8A",
/* pixels */
"& , F ~ , , & & & & & & & & & ; ; ; ; ; ; & ; & & ; & & ; & & ; & ; & & & ; & ; & & & & & & ; & & ; & ; & & 3 , 1 ~ ( ( ( & , & ",
"4 6 F ~ c 6 & < & < < & < < ; < ; ; ; ; ; ; ; & 1 ; ; ; ; & < ; ; ; < & < ; ; ; < ; < < ; < ; ; < ; ; ; & & 6 4 1 K K K K > 6 1 ",
"> 4 N J 4 3 & 7 b N n N b c b N c N N c N b n N N n N N b N N v N N b N N n N N v N b c N n b N n n N n 5 & 1 & 1 J J J F > 3 1 ",
"& 3 F ~ 4 , & & & & & & ; & ; & & ; ; ; & ; & & & & & & & & & ; & ; & & & & & & ; ; ; ; ; & & & & & & & & & 6 4 & F _ ( _ & , & ",
"4 z ~ _ m 6 & & & & & & ; ; ; & ; ; ; ; ; ; ; ; & & ; ; & ; ; ; & & & & & ; & & ; ; & & & & & & & & & & & & 3 1 & J | ] X.< 6 4 ",
"& 4 K _ 4 , & & 5 1 1 4 1 < 5 1 1 4 < 1 4 1 1 4 1 1 5 1 1 5 1 2 5 < 5 4 < 1 5 < 2 5 < 2 5 < 2 5 1 1 5 < 1 & , & & J | _ ] < 3 > ",
", 3 F _ 6 3 & c c c M b b M c c m m m m b c m m m m b m m b x m b m m c M b c N v c b v c b b 7 b b 7 M 1 ; z 6 & F ~ ~ ~ & 2 > ",
", 7 F _ c 6 & & > & & , & & < % & & - & 1 % & ; & % - & & - & % & - & , & ; < ; ; < < < < < ; > ; ; < & ; ; 1 & & F ~ K ~ , 6 5 ",
"& 1 N ~ 1 & ; ; & & ; & & & & & ; ; ; ; & ; ; ; ; ; ; ; & & ; ; & & & ; & & & & & & & & & & & & & > & > & & 4 , & N K K K > , > ",
"4 z M F z 6 & $ % % % = $ * = * * * * * $ * * = * $ * * * = * * = * * % * * = * * = * * = * * = * X = X & > 6 4 & N F F F > 2 1 ",
"> 4 b F 4 3 % O o   o o   o o   o o   . o   o o   . o   w B / ^ ) ^ h e   . 0   o o   o o   o o   . . . X & , > & N J J J > 6 , ",
"& - k B + w 0 0 + o o + o o + o o + o o O o o O o o g ` 9.0.0.0.0.0.0.9._ f e 0 o + o o + o o O o o q . @ X 3 4 & F ( ( ( & , & ",
"o   o o   o .   o o   o o   o o   o o   o 0   q d ^ 0.0.8.&.U 8 8 G &.0.0.0.^ f 0 o o   o o   o o . . . . . q s = F _ _ _ < 7 3 ",
"  o o   o o   . o   . o   o o   o o   o o   q X.0.0.0. .v 2 ; ; 1 1 1 9  .0.0.0.' q   o o   o o   o 0   . . .   o r C J ~ > 3 > ",
"o o + o o + o o + o o + o o + o o + o o w g 6.0.0.{ n 1 1 1 1 1 < 1 1 5 1 v { 0.0.9.g o O o o + o o O o q q . O w o o i A - 5 & ",
"o   o o   o o   o o   o o   o o   o o   V 0.0.-.P 1 1 5 1 2 ; 1 1 1 5 | 1 1 1 P =.0.0.V o o   o . . o o . . . . . . . . .   t 3 ",
"  . o   o o   o . . . . . . . . . . . d 9.0.*.6 1 1 6 +.5 ; 1 1 1 1 +.t.8 < 1 , L *.0.9.H . . . . . .   . . . . . . . . . . . . ",
"o o + o o + o o r . . e . . r . . e i 6.0.=.5 5 1 2 Z 7.Z 2 1 1 n K t.i.o.D 6 < = 2 *.0.6.g . . . q e . . e . . r . . r . . i . ",
"o   0 o   o o   . . . . . . . . . . ] 0.-.5 2 o.2 ; ; v ; 1 ; 1 [ r.i.i.u.| L < < < 6 6.9.' . . . . . . . . . . . . . . . . . . ",
"  . o   o o   0 . . . . . . . . . W 0.0.9 z 6.i.+.5 4 1 2 1 1 1 1 6 8.i.F 2 1 < < 2 - L 9.0.d .   . .   . .   . . . . .   . . . ",
"o o + o o + o o e . . e 0 . # 0 . ! 9. .1 , 5 8.5 1 ; 1 1 < 1 1 1 1 U 2.5 1 1 1 < 2 < 2  .0.d . . q e . q + . e . . . d . . . . ",
"o   o o   o o   . . . . 0   . . . Q 9.9 2 1 , 8 1 1 1 1 1 1 1 1 < 1 1 n 1 1 < 1 , , , 2 G 0.p . .   . . . . . . . . . . . . . . ",
"  o o   o o   . . . . . . . o   . Q 9.9 5 1 , , 1 1 ; 1 1 1 6 n b 7 1 1 , , , , , , 2 2 G 0.g .   . .   . . . . . . . . . . . . ",
"o o + o o + o o + q . + q 0 + o . ^ >.9 5 5 1 1 1 1 1 1 8 N F F F F N 8 1 , < 2 < 2 2 5 G 0.d . . q e . . e . . d . . . . . d . ",
"o   o .   o o   o 0   o .   o o . W 9.n 5 5 5 1 1 1 1 N F F F F F F F F N 4 1 1 2 5 5 5 G 0.p . . . . . . . . . . . . . . . . . ",
"  0 o   o o   . o   o o   o o   . Q 9.n 5 5 5 5 1 1 N F F F F F F F F F F N 1 1 2 5 5 5 G 0.g . . . . . . . . . . . . . . . . . ",
"o o w o o + o o + o o + o o w o . ! 9.9 5 5 F _ 5 b F F D F F F F F F F F F n 2 5 5 5 5 G 0.d . . . . . . h . . . . . d . . . . ",
"o   o o   o o   o o   o .   o . . Q 9.9 5 c 5.8.v F F F F F F F F F F F F F Z 8 5 5 5 5 G 0.i . . . . .   . . . . . . . . . . . ",
"    o   o o   o o   o o   . o   . Q 9.9 5 5 9 D 6 F F F F F F F F F F F F F F 8 5 K L 2 ^ 0.h   . d     . . . . . . . . . . . . ",
"o o + o o + o o + o o + o o + o . ! 9.n 5 5 5 5 6 F F F F F F F F F F F F F Z v ^ u.) 6 ! 0.h . . . . . . h . . . . . . . . W . ",
"o   o o   o o   o o   o 0   o o . Q 9.7 5 5 5 5 6 F F F F F F F F F F F F F Z c L 0.H L H 0.h   . . . . . . . . . . . . . .     ",
"  o o   o o     o   o o   o o   . Q 0.n 5 5 5 5 8 F F F F F F F F F F F F F F 6 L H - L U 0.A . . . . . . . . . . . . .   . .   ",
"o o e 0 o + o o + o o + o o + o o Q 0.7 5 5 5 8 6 F F F F F F F F F F F F F F 6 5 5 5 5 U 0.p O o o q o . r . . e . . e . . e . ",
".   o .   o o   o o   o o   o o   Q 0.7 5 5 5 5 6 F F F F F F F F F F F F F F 6 5 5 5 5 U 0.p o o . o o . . . . . . . . . . . . ",
". . o . o o   . o   o o   o o   o Q 0.7 5 5 5 5 8 Z F F F F F / ..F F F F F F 8 5 5 5 5 G 0.d o   . o . . . . . . . . . . . . . ",
"o . + o o + o o + o o + o o O o o ! >.9 5 5 5 5 6 F F F F F F ~ ~ Z F F F F F 6 5 5 5 5 G 0.p O . O O . . r . . r . . e . . e . ",
".   . .   o o   o o   o o   o o   Q 0.7 5 5 5 5 6 F F F F F [ 2.O.F F F F F F 8 5 5 5 5 G 0.p o .   . . . . . . . . . . . . . . ",
". . q . o o   . o . o o   o o   . Q 0.7 5 5 5 5 6 F F F F F ~ 1.7.J F F F F F 5 5 5 5 5 G 0.p o . . .   . q . . . . . . . . . . ",
". q q . o + o o + o o w o o + o o Q 6.7 5 5 5 5 8 F F F F F F 3.1.<.Z F F F F 6 6 5 5 6 G 0.p + . q q . q e . . . . . i . . r . ",
".   . .   o .   o o   o o   o o   Q 0.9 5 5 5 2 6 F F F F Z [ 4.e.<.U F F F F 6 5 5 5 4 G 0.i o . . . .   . .   . . . . . . . . ",
"  . . . . . . . o   o o   o o   . Q >.7 5 5 5 5 8 F F F F F ..4.q.[ J Z F F F 8 2 5 5 5 F 0.d o . . . . . . . . . . . . . . . . ",
"q . e . . e . . + o o + o o + o o ! 0.7 5 v 5 5 6 F F F F F { O. .$.[ J F F F 6 5 5 5 5 U 0.p w . . . . . . . . d . . . . . g . ",
".   . . . . . . o o   o o   o o   Q 6.9 8 2.7 5 6 D F F F R $.T @.;.R F F F F 6 5 5 5 5 F 0.p o . . . . . . . . . . . . . . . . ",
"  . q   . . . . o   o o   o o   o Q 0.N 7.i.5.v 6 F F F F U ,.:.:.,.R F F F F 8 5 5 5 5 U 0.p o . . . . . d . . . . . . . . . . ",
". . . . . r . . + o o + o o O o o ! 0.9 8 5.7 5 8 F F F F R ,.%.,.,.R F F F F 6 5 n 5 5 U 0.p O . d . . . g . . . . . . . . . . ",
". . . . . . . . o o   o o   o o   Q 6.7 4 7 5 5 6 F F F F R ,.%.;.,.{ F F F F 6 v r.n 5 F 0.p o . . . . . . . . . . . . . . . . ",
". . . . . . . . o . o o   o o . . Q 0.7 5 5 5 5 6 F F F F R ,.%.#.#.F F F F F 6 7 8.v 5 U 0.p o   . . . . . . . . . . . . . . . ",
". . r . . r . . O o o O o o O o o ! 0.v 5 5 5 5 8 N N D N R %.#.@.@.N N N N Z 6 5 v 5 5 U 0.p q . . d . . . . . g . . W . . . . ",
"k # . . . .     . . . . .   . .   Q 0.7 5 5 5 5 2 1 1 1 5 E %.@.@.@.L 8 1 1 1 2 5 5 5 5 G 9.p . . . . . . . . . . . . . . . . . ",
"1 6 , W i .   . . . . . . . . . o Q 6.9 5 5 6 1 < 1 1 1 T #.@.@.@.@.@.I 1 1 1 1 1 5 5 6 G 0.d o . . . . . . . . . . . . . . . . ",
"> 4 > K J H d . e . . e . . e . o Q 0.D v v 9 7 8 9 8 v E T U E @.@.P v 8 8 7 8 8 8 b b R 0.d O . . p   . . . . . . . g . . . . ",
"4 6 < ' _ ( F % s q . . . . . .   Q 0.0.0.0.0.0.0.0.0.0.0.0.0.0.#.@.>.0.0.0.0.0.0.0.0.0.0.0.p o . . .   . . . . . . . . . . . . ",
"> , < K _ _ D % 4 , X @ . . e . . i B V B B V B V V B B B S } S H @.C B h B B h V V h V V h e o . . . . . . . . . . . # ^ H = = ",
", 6 < J J J D % > , > X . . e . o O 0 o q o 0 O o o O . 0 a E q l @.y O o o O o O O o o q 0 o O . . . . . . . . + = 3 3 ) D 2 > ",
", 4 > F F G D > 4 z > % X X : X X * * * * * * * * $ * * * - 5 $ - 5 = * * * * * * * * * * * * * l . L = L = = = > > 6 z H D z 3 ",
"> , > K J K D % > 4 & & & > > > & & & & ; ; & ; ; ; ; ; ; ; ; ; ; ; ; ; ; & ; & & & & & & & & & L = = = = , > > > > > < K D , > ",
"4 7 1 K K K F & > , & > & > > ; < ; ; ; ; ; ; ; < < > & , & & - ; ; - ; & - ; & - ; & - & - & & & - & > > > > > > > 6 z ( F z , ",
"> 1 > ~ ~ ~ F & 6 z > , M 7 n b c n N c b b v n b c M M c M m b m m c m m m M m c m m c M M c m c c M n 7 M c c z > 4 4 ( F 4 > ",
"> , > | ] | J & & , & 4 < 5 2 < 5 1 < 5 5 ; 5 1 < 5 1 1 4 5 < 5 4 ; 5 1 < 5 1 1 5 1 1 5 1 1 5 1 , 5 1 1 5 1 1 5 > > > 4 ] J 4 > ",
"4 6 , | | | J & , 4 > & & & & & & & ; & ; ; ; ; ; ; & & & & & & ; ; ; ; ; & & ; & ; & & ; & & ; & & & & & & & & > > z m _ K z 4 ",
"& , > _ _ ( F & 3 6 ; ; & ; ; ; & & ; & & & & & ; ; ; & & & & & & & & & ; ; & & & & & & ; ; & & & & & & & & & > & > , 2 ( F 3 > ",
", 4 > J J J J 1 & 1 ; 1 M b v b N n n N b N N n b N b N N n N N b N N n b N b N N n N N c M N n N N n M N n M b 8 > 4 5 J D 4 > ",
", 6 > K K K K 1 4 6 & & < ; < < ; ; ; ; ; < ; ; < ; ; < ; ; < ; < < ; ; < ; < < ; ; ; & < < ; < < & > < & > > & > > z z K F 3 4 ",
"& , & ( ( ~ ~ 1 1 3 & ; & & & ; & & ; & & & & ; & & & & & & & & & & & & & & & & & & ; ; ; ; & & & & & & & & & & & & > 4 ( F > > "
};
