/* XPM */
static char *wall_sun_4[] = {
/* columns rows colors chars-per-pixel */
"64 64 55 1 ",
"  c #7C3E1E",
". c #7F401D",
"X c #9E540B",
"o c #81431F",
"O c #874B1F",
"+ c #894D1F",
"@ c #904E17",
"# c #8F511E",
"$ c #A55707",
"% c #A65906",
"& c #AF5D01",
"* c #A25609",
"= c #A45809",
"- c #A85D0C",
"; c #B05F03",
": c #A45F16",
"> c #AF6007",
", c #AF620A",
"< c #B06106",
"1 c #B1640B",
"2 c #B2680F",
"3 c #AC6413",
"4 c #B06712",
"5 c #B26A13",
"6 c #B06D1C",
"7 c #B6731E",
"8 c #8E4F21",
"9 c #8E572D",
"0 c #945722",
"q c #9B5D24",
"w c #915B2D",
"e c #905830",
"r c #9E6023",
"t c #956032",
"y c #9E6C38",
"u c #A76B27",
"i c #A96D27",
"p c #B16F20",
"a c #AC732E",
"s c #B57524",
"d c #B77825",
"f c #B87A27",
"g c #B2762A",
"h c #B67929",
"j c #B87B2A",
"k c #A67B47",
"l c #AB7D42",
"z c #BA8334",
"x c #BB873A",
"c c #BC8A3E",
"v c #BD8D43",
"b c #BE9046",
"n c #BF9249",
"m c #C0964E",
"M c #C09750",
/* pixels */
"&,zv3<&&&;;;;;;&>&&&&&;&&&;&;;;;;;;;;;;;;;;;;;;;;;;;&&4;;mvmv;1;",
"46zvs6&<;;;;;;;;>>>>>><;<<;<<;;;;;;;;;;;<;;;;;;;;;;;;;64;vvvj;p1",
"&5jx5,&7ffsfdshh7jdsffdjfsffsffsfddfdsfhsjfsfdsfdshd4;;;;xxjx;41",
"&3zv5,&&&;;;;;;;>>>>>&;&;&;;;;;;;;;;;;;;;;;&;;;;;;;;;;p3;xmmm;-&",
"5pvngp&&;;;;;;;;>>>>>>>%;;&;&&;;;;;;;;;;<;&;>>>>;&;;;;51&mmmm;p4",
";3cn5,&&51;5;15;,5>15<1-<<5<25<25;45;25;22<22<25;15;1&;;&jmmm&4;",
"<5zv6,&ssshsshsggsizzpzzhgshgsagsggshfsfd7f77z77hdsh;;p6&jmxm;4;",
"46xv76&&;;;;;;-&%>>>>%>,-&-&&-&--&;;;;;;<<<<<>>>;;;;;;1;;jzmx1p3",
">,zx1>>>;;;;;;;&21,>>>1>,,--=Xz:;;;&>>>>&>&&>>>>;;;;&&3,;jmmj;1;",
"16dz66%>%$%%$*$*.z=X=X-5X==zXz.r%$*$XX%*****=XXX****&<65;jjjj141",
",4zz53:Oo .o .. ..............  o .. .. oo o.... .o X&,>&jmjx;p1",
"%>iy++..+oo+8o+o.y.............++oo8..8.oOoo9..8oo+o+X34&jmmm;-&",
"o... .. .. .  .............. .. oo oo 8 .o  ....o oo 8 r-jbbm;p4",
"...... .. ..  8 ............   .o oo 8. oo  . .. .o     .ekvx;4;",
"..+..8..9. 88 8 ....y........w+.+ooO .8.o+o88..9oo+o 88 8.8ek;4;",
".... 8.... .    ............ .  oo o  . ...... .8 o.    8.  o.0:",
".... .... ...........  . .+ .. ..  . ..  .......  8 ............",
"8.w..9..y......w.t..t .w..+..w.+w..w..++.w..w..w .O .9..w.....t.",
"  .............. .. .. .  .. .. .. ..... .. ....8 . ............",
"  . .. ............... . .+  . ..  + .. .. .. .. .. ............",
".....9..y.....y..w..w..w..w. w+.++.w..w..w.....w .8..9.....t....",
".......... .. .. .. .. .  .. .  ..  . ....... ...   ............",
".................. ..... ..  . ..... ........ .   . .. .........",
"..9..9.....t.....w. w..w+.+. w +w..+..w..w..w..w.88..8........y.",
".... .. .. .. .. .. ...+. .. .. .. +  .. . . . .................",
".... . ........... .. .. .. .  .. ..  +    .. ..................",
"..t..t....e...y..w..+..w..w..w+.++.+ ++..w..w..w.....y..z ..y...",
"............. .. ..... .. .. .  .. .. .. w.........   .    . ...",
"........................ .  .. ..     . .. ..   ... ........ ...",
".....y..y........w..w..w.++ .w +w ++.+++ w..w..te.t....ty.......",
".......... .. .. .. .. .. .  ..    ++   ... .....   ... .. .....",
".............t. .. .. .. .w  . ..    .. .. .. .. .. .. ..  e....",
"+.++ w+.+.++..w........y........w .+.++..+.++ ++ ++ ++.++ ++ ++.",
"   . .  .. .. ..... .............  .. .. +. ..  . .. .. .     . ",
"  .  . .+ .. .. .. .............+ ..  +  . .+     +  .  + .  .w ",
"+.+ ++ ++..w..w..y..y...y....y..+ .w. w  w..+ ++ ++ .w.++ +++.. ",
"  .. .. .. +. .............. .. ..  . .. .. +.  .     . ..    ..",
" .+  + .. .. .........t. ..... .+ .  .+    +  .  .+  w .+ .  .+ ",
"  + .+..w..w..w..............y..+  w. + +++.w +++++  w .+ ++ w+ ",
". +. ..  .  .  ........t........+. +. +. .  .  .     .  .     . ",
" .   . ..... .. ..... ..........  .+  + .      . .+     + .. .. ",
" +w+ + ++..w..w..y..t.....t.....+. + ++ .w+.w+ +..+.++ w+  +.+w+",
". +   . . ...... .. w...........+  .. .  +   . ..  .  .  .. .   ",
" .   w .w.......................   +  +  . .+ .  ++ ..  . w     ",
"..+. +..w.....w..w....w...w..8..w .+.++ .w.++ ++ w  ++ ++..w.++ ",
". .. .. .. ..... .. ........ 9. .     +.  . ..  . .  .   . .... ",
"...    .. ........ ........ .. ..  + .+  . .+   ..+  . .. .. .+ ",
" +w..+ ww..w.....w..w..w.....8. w .+..+ .++.+ ++..+ ++..++. w.+ ",
"w...... ........ .     .. .. .. .  .  ..  . o. o.  .............",
"z::cw. .. ......   88 ... 8 .. .8 ..  8. 8 oo.oo.++ ............",
".zzzxxw....#..w. 8. 8. 8.... 8.... 8..O.o8oo8 o+. w .......y....",
"z:zvnnzXy.... .. 8.  . ..... 8.... 8. oo .o oo o.   ............",
"=-<cncz>43X@.....o. . .o.....O..9... oo... .o oo ...........nz@=",
"=z1xccz>>>>X..w..O.88 8O..+..+.....9ooOo.8..O.o+ w.......-2-bz3,",
">3>zzzz>56>%XX:XX*XXX*$$3X=XX$X*XX==***X$*X=***$#.z=z===1<6zzzz-",
">>1cccz%>1>>>>>>&&;&&&;;3>>>>>>&>>>>&&&&&>>>&&;;:z==--,><<>,xz>-",
"46;zcxj;>1>>&>>>;;;;;;;;;<;&&;;->>>>%>->;&-;-;-;-&&<>&>>>>67bzp3",
";4;mmmz;6p>,d77dsdfdffsffsfhsggsgisddsgssggshgghsshssfsds>35bz4>",
";4;mmmz;>>>1<52,51;52;51<52;55;52>21,54,51;51;5<15<15<15>>>4nx4>",
"4p;mmmx;>4>>;&&>;;;;;;;;;;&;;;;;>>>>>&&&;;;;;;;;&&;&&>&&>>6gncp4",
";1;bmmj;46&;&&;&;;;;;;;;;;;;;;;;&;&&&&&&;;;;;;;;&&&&&&&&&>15nz3>",
"14;xxxx<&;&2fjsffsdfsdhsffddfsffffjffjdjjddhsffsjjdfjdff7>15cz1>",
"-p;vxxc14p;&;;<<;;;;;<;;;;;<;;<;<<&<<<><&;;;<<;<<&<<&>>&>&6pcz63",
";;;vmcm1-4&&;;;;&;;;;;&;;;;;;&&&&&&&&&&&;&;;;;&&&&&&&&&&&&>5bz>>"
};
