/* XPM */
static char *wall_sun_3_1[] = {
/* columns rows colors chars-per-pixel */
"64 64 69 1 ",
"  c #AF5D00",
". c #B05F03",
"X c #AF6006",
"o c #AE630B",
"O c #B06106",
"+ c #B0640B",
"@ c #B2680F",
"# c #AC6613",
"$ c #AD6816",
"% c #AE6B1B",
"& c #B06712",
"* c #B26A13",
"= c #B06D1C",
"- c #B5721D",
"; c #9C6B24",
": c #967132",
"> c #987336",
", c #9A763A",
"< c #9C793E",
"1 c #A16C23",
"2 c #AD6F22",
"3 c #B06F20",
"4 c #B47323",
"5 c #B77826",
"6 c #B87927",
"7 c #B37629",
"8 c #B77A2A",
"9 c #B87C2A",
"0 c #A47636",
"q c #AA7631",
"w c #AA7836",
"e c #A37B3F",
"r c #A87B3C",
"t c #B67E32",
"y c #B87F32",
"u c #9E7B42",
"i c #A07E46",
"p c #A17F48",
"a c #B98234",
"s c #B6823A",
"d c #BB8639",
"f c #BC8A3E",
"g c #A28047",
"h c #A2814A",
"j c #A98649",
"k c #AB894D",
"l c #BD8E43",
"z c #BE9046",
"x c #B7904D",
"c c #BE9249",
"v c #A68652",
"b c #A78854",
"n c #A88956",
"m c #AB8D5B",
"M c #B08E51",
"N c #AD905F",
"B c #B5975C",
"V c #AD8F60",
"C c #AE9162",
"Z c #B09466",
"A c #B29669",
"S c #B3986B",
"D c #B69C72",
"F c #B99F77",
"G c #B9A076",
"H c #BBA27A",
"J c #C0964E",
"K c #C09750",
"L c #C09850",
/* pixels */
" oaz@X          ........ ........... .. ..... .  ..   &.&JJJf ..",
"&=al4= O OO OO O.................................... .*&.dfdd.3.",
"X&9d&& -66566566569466496486499495596496569495565566&...+Jyyl.&+",
" &al&+          ..................... ........ .  ....3&.yJJJ...",
"&4lc73  ...O    .  .............................  ....*+ lJJJ.3&",
" #dK&+  *+O&@O&@@&O+&O@*.+*++&O+@.@*.&@.@*.@&.+*.@*.+ .. yJJJ &.",
" &az&& 55597686ty8yy6yy8yy8yy6sy6y969649949555546546+.33 yllz.&.",
"&3dz4=  O. OoXoO+++++O+O+.+++.++&.+@O....................ylllo3&",
" @yloo  ..      .     ..        ....        ..      ..&..9fff.&.",
"#=9a3% ##.#o#####&==%##3$%24422%334333$3%#$333%$1$## .=%.6aya.*.",
".&8s&$#u<>:<uuummZAZpvZACDDZCCZCFCCCAFmVAbiVAZVVbuuu2 .. 9dyJ.=&",
" #txiphhu<:<huvVVmvhmAVVFSCmhmZvmVimACFCnAmppmCCVii,;#%& yJJd...",
"pppuuhhuhu::uuuuuuvZZmmFZmvCZCVbmNZCpmmDmbCAmi0piuu::,pw.yJJJ %&",
"<<,,uuuuuuu:::>uhmZmvCSVpmDFmnVupCbCDmimCZnnCmpiu:,:,iu,iilJJ &.",
"hhhhhhhhhuuu>,ubpvmAAZnvVFFVbAubjmmnSFAppCSAmnpvp,:>,ipppppMZ.& ",
"hhhhhhhhhhhhuuuVVVASAviSFFSmuuZHFbivCFFAvpVASAVVbipppvpvppppppi3",
"hhhhphhhhhhhhhvCCCAAmumFFFCmnhDmZAunCZGDmgvCSACCVpvphhhhhhhhhhhh",
"hhhhhhhhhhhhhhvCCCAbhmAFSVCVAvDmZDvDmDCDSmgnVACCVppphhhhhhhhhhhh",
"hhhhhhhhhhhhhhhCCVmbhAAAAVmDhpAHGbhmAmZVCAhgnVCCVvpvhhhuhhhhuhhh",
"hhhhphhhhhhhhhvVCbmuVZVmvADDDFvvhVFDFDmbnmCghmmVVppphhhvhhhhhhhh",
"hhhhhhhhhhhhhhvVnvghZnbAAZZDHHGgmHHDZCZZnvmvuvvmVpvuvuvuhhhhhhhh",
"hhhhhhhhhhhhhhvVngumnnnADHDSZHHmDHDZDGGDmngmugvbVvppuvuvhhhhhhuu",
"huuhphhhhhhhhhhmb,vmhCZCDSVSGDHDHHDDmAGZCAvvnuhbvuppvuvuhhhhhuhh",
"hhuuhhhhhhhhhuhbhuShvZVnbhuuSSHHHASuughnmCZgAhhhbupvuvuvhhuuuhhh",
"<uhhuuhhhhhhuuhbunCvuhuubvhuvZDHHCnunbvuuhhuVmuvvuuhhhhhhuuuhuuu",
"hu<<hhuuu,uuuuhhvVmvmZbvCmmCbhZHHhuvSmSmgCAvvAbubuhu,uuuuuhuuuhu",
"uugg>uhhhhhhhuuhVVnhnCmvvnnnVCZHHnAnbbbunCmnhCChuh,hhhuhhuuuhuuh",
">::uuu,hhhuuuuunCmmbVZSDADgCHHZHGDHDvmFZASmSgVCVu,huuhhhh,u,:::u",
"gg,::,>u,uuhg>hVCnmbZCSGFFZVHHZHDDHFvDFFSSmShbCCm>uhhuuu>>::>uvh",
"hhhu,:::uhhh,,vCCbbhAmSGFFSZHHAHDDHFVFFFSAnCuvCCVu>uhhu>:::uhhhh",
"hhhhgu:::>>>uhbCCnbuSvSGFFFHHHSHSDFFFFFFACbVuhCCChu>:>:::uhhhhhh",
"hhghhhhu,>,hhhvCVhmhChCGFFFFHHAHDDFFFFFFAVnnvbbCVhhhu,>uhhhhhhhh",
"hhhhhhhhhhhhhhvVvnCnnnmFFGGGHHDGDHHDFHFDAhmhmnbCVhhhhhhhhhhhhhhh",
"hhhhhhhhhhhhhhhVnmmCvbvFFFFGHHHHHHHHFFFFVnvnmmnVChhhhhhhhhhhhhhh",
"hhhhhhhhhhhhhhbVmnCCmpnSFFGGHHDZAGHDFFFFVnhAmmmnVhhhhhhhhhhhhhhh",
"hhhhhhhhhhhuhhbumnVCAnmVFFGGHGZCZZGHFFFDVuCSmnChmhhhhhhuhhhhhhhh",
"hhhhhhhuhhhhhhuvVnZVSVnVSFFFHSmCVmFFFFFVCbASVnCbhhhhhhhhhhhhuhhh",
"hhhhhhhhhhhhvuumCnZmSZbZnFFFHHHHHHFFFFZmbmSSmmCVuhhhhhhhhhhhhhhh",
"uhhhhhhhhhhhuuuVVnVZSSVVmVFFHHDmVDFFFFuZhASSmnVCnuuhhhhhhhhhhhhh",
"hhhhhhhhhhhhuubVCnCCSSSnApAHHHDpbHFFFnvCVASAmVmCC,hhhhhhhhhhhhhh",
"hhhhhhhhhhhu<uvVVnZCSSSmDppVHHFubHHDbuZCCSSSmCbCmh>hhhhhhhhuhhhh",
"hhhhhhhhpvh<<ubCmmmZSSAZVZppmDFpbDAhuvFbSSSSVZnVVh,>hhhhhhhhhhhh",
"hhhhhhhhpu>>uunVbCmSSSSFVDhipubuhvuhpZDCSSSSCVVVVhh::uhhhhhhhhhh",
"hhhhhhhhu>>uuvbmmCmSSASFnFmpiipihuhupDSZSSSSZnVnmhhh::uhhhhhhhhh",
"hhhhhhuu>:uhhhvbCmCSSSSFvFSphpppuhhvVFSSSZSSSnCVnhhhu::,uhhhhhhh",
"hhuuu>::>uphphumCbASASSFvFFhmmnbuVShCFSSSSSZSVnCbhhhhu>:::,uhhhu",
":::::::>uhhhpuhCmmASSSSFvFFmvHHHHHSvDFSZSSSSSZbVmuhhhhh,::::::::",
"::>>,uhuhhhhpuvmmCSSSSSGvFFChGHHHHmmDDSVSSSSSZVvCuuhhhhhhuu>>::,",
";,uhphhhhphppphnCCSSSSSSvFFSpmHHFApAFFDpSASSAACmbhhuuhhhhhhhhuhu",
" #oBvpphpp<<pipVCCASSSSnVFFDppbbnppCFFDpCSSSAACCmuhhuhhhhhhhhhhh",
"O&XllxkipipiupvVCCASSSApDFFDmnCnAbCAFFFmmAASSACCVuuuhuuuhhhhhhhh",
"$3Occcaoq,,pphvCCCSSSSmbFFFSDiVbApAAFFFAiASSAACCChhuuuu>uhhhhhhu",
".O.lcly.##%0ppvCCCASSZiVFFFFSinppvFAFFFDivAAAACCVhhhhhhhhggsbq#X",
"O=Odfd9. o %hhvCCCASSviDFFFFApVnApHCFDFFviZAAACCVhhhhhhh<#$$sa@X",
"o#.aaa9.$=Xo$$$%%%23=&&343333&333&33233=&#&=%=%=%######## %-a83@",
".@.dldy.o&           .... .       .. ....... ...X         o+faoX",
"&=.dffy..+..................+.&...+.&&.&++++.++.o+....OOX =-zd%@",
".&.JJJy.==..84584695694565999yy6tl9yy8yy9yy4yy9yt88979947 $*za$X",
".*.JJJa. +.@.&&.@@.*@.@@.*@.*&.*&.&+.*&.@+.&+.*.O*OO*OO*  o&cd& ",
"&3.JJJd.+#. ....  . ...... ... .  ......................  27cf4&",
".+.JJJy.&%.......  ...  ...... .... .................  .  @&ca$.",
".*.yyya+...+49646559566569569569466569469469466449559549= +&f6&.",
"+$.JdJJ+&=....OO.................+.....+ ....+ ...OO ...O.24ld=&",
"   JfJf+.&......  ....  ....  . ..  ....  .... .....  .... @laO "
};
