/* XPM */
static char *wall_sun_1[] = {
/* columns rows colors chars-per-pixel */
"64 64 93 2 ",
"   c #7D3E1E",
".  c #7F411D",
"X  c #9E540B",
"o  c #81431E",
"O  c #864A1F",
"+  c #894D1E",
"@  c #914F16",
"#  c #8E521D",
"$  c #9A5A16",
"%  c #91551D",
"&  c #955A1D",
"*  c #995D1D",
"=  c #A55707",
"-  c #A65806",
";  c #AF5D01",
":  c #A25609",
">  c #A45909",
",  c #A85D0C",
"<  c #B05F03",
"1  c #A35E16",
"2  c #9D621C",
"3  c #AF6007",
"4  c #AF620A",
"5  c #B06106",
"6  c #B1640B",
"7  c #B2680F",
"8  c #BF7708",
"9  c #A56016",
"0  c #AC6413",
"q  c #A1661C",
"w  c #A56B1B",
"e  c #A96F1B",
"r  c #B06712",
"t  c #B26A13",
"y  c #B06D1C",
"u  c #AD731B",
"i  c #B3741D",
"p  c #B37B1A",
"a  c #B87F19",
"s  c #8E4F21",
"d  c #8E572D",
"f  c #945722",
"g  c #9B5D24",
"h  c #915B2D",
"j  c #905930",
"k  c #956032",
"l  c #9E6C38",
"z  c #A76B27",
"x  c #A96D27",
"c  c #B16F20",
"v  c #AC732E",
"b  c #B57524",
"n  c #B77825",
"m  c #B87A27",
"M  c #B2762A",
"N  c #B67929",
"B  c #B87B2A",
"V  c #A67B47",
"C  c #AB7E44",
"Z  c #BC8419",
"A  c #BF8819",
"S  c #BF8421",
"D  c #BA8334",
"F  c #BB873A",
"G  c #BC8A3E",
"H  c #C38B19",
"J  c #CB9517",
"K  c #CF9917",
"L  c #C79018",
"P  c #CA9418",
"I  c #CE9918",
"U  c #D39E17",
"Y  c #D29C18",
"T  c #D6A117",
"R  c #DAA517",
"E  c #DEAA16",
"W  c #D9A318",
"Q  c #E3AF16",
"!  c #E4B017",
"~  c #E6B41A",
"^  c #E8B71C",
"/  c #E9BA1E",
"(  c #C5983E",
")  c #ECBE21",
"_  c #EEC224",
"`  c #F0C527",
"'  c #F1C728",
"]  c #F3CB2B",
"[  c #BD8D43",
"{  c #BE9046",
"}  c #BF9249",
"|  c #C0964E",
" . c #C09750",
/* pixels */
"; 4 D [ r < < < < < < < < < < < ; ; ; ; ; < < ; ; < < ; < < < < < < < < < < < ; < < < < < < < ; ; < < ; ; ; r < 6 | | [ [ ; < ; ",
"r y D [ c y < < < < < < < < < < 5 ; 5 5 ; 5 < < < 5 < < < < < < < < < < < < < < < < < < < < < < < < < < ; < y r < F F | F ; y 6 ",
"5 t B F r 6 < i n n b n n b m m n B m n B m m B m b B B b B n b B n b m n b B m b B m n m n n m n b m m r < < < < F F B F < r 6 ",
"; 0 D [ r 6 < ; < < < < < ; < < < ; ; ; < ; ; < < < ; < < < < < < < < < < < < < < < < < < < < < < ; < < < < c 0 < F | | } ; 6 ; ",
"t c [ } M c ; ; < < < < < < < ; 3 ; ; 3 ; 3 3 3 < < < < < < < < < < < < < < < ; < < < < ; ; < < < ; < < < < t 6 ; F | |  .< c 0 ",
"< 0 G } t 4 ; ; r 6 < t < 6 t < 4 t 5 6 t 4 4 t < 6 t 5 6 r 6 r t < 7 t < 7 t < 7 t 5 6 t 5 7 t < 6 t < 6 < < < ; B | |  .; 0 < ",
"5 t D [ y t ; b n b m b b m b M M b M M b M M c M M b M M n M M b M M b m m n n n i m n n m n b m b b m < < c y ; B | | | < t < ",
"6 y F [ b 0 < ; < < < , < < , ; 3 4 - ; 3 3 3 3 ; , , < < , ; - < < < , < < < < < 5 < < 5 < ; 3 < < < < < < 6 < < B B | F < c y ",
"; 6 B [ 6 5 ; < < < < < ; ; ; ; 3 3 3 3 3 ; 3 3 3 3 3 3 3 3 3 3 < < < ; < < < ; ; ; ; ; ; ; ; ; ; ; ; ; < < r , < B | B | < 6 ; ",
"0 c B D y y < - - - - - = : : : > > X X = X X 4 3 > > > X > : 5 , : : : : = ; : : : : : > : : > : : : : ; < y t < B [ B B < 0 6 ",
"5 t B D t 0 - @ O     .   . o   . .   . . . . . O Z . . . . . I e   . o   + p   s o   . o   o o     o   X ; 6 < < B | B ( < c 6 ",
"; , x l + u U Q R H O + o o + o h 2 .   + . . + . U & . . + * Q K o o + o H u o   + o o + # & O o o + . $ 8 r r < B | [ | < , ; ",
"o   o o 2 Q Y Q Q Q E & .     & Z T Z . . . . . w ! w . . & I Q Q y + o o L W +     .   w Q u # s     % Y Q Q S , B | | | , c r ",
"  o o   i w   # e E Q E w s .     Z R s . . . . A ! J Y R Q Q Q Q Q Q U H U Q + o .   o W H s o     2 T Q Q a s s d ( G B < t < ",
"o o + o # + o o + q Q Q E & s o . & E 2 # . . u Q Q Q Q Q Q Q Q Q Q Q Q Q Q Q a + + o # Q % o O o # E Q Q w   s o . s j V < t ; ",
"s   o .   o .   o . H Q Q W O . . . E R & 2 I Q Q Q Q Q ~ ) ) ` ` / ~ ! Q Q Q Q R w & U Q %   o s L Q Q H . . . . o   o   . f 1 ",
"        . .   . . . % ! ! ! Z . . . A ~ ! Q Q Q ! ! ) ` ] ] ] ] ] ] ] ' ) ~ Q Q Q Q Q Q E % . . # Q Q Q w . .   .   . . . . . . ",
".   s . . s . . h . . ^ Q Q T # . . 2 Q ! ! Q Q ) ] ] ] ] ] ] ] ] ] ] ] ] ] ) ~ Q ! Q Q A . . . L Q Q Q f s . s s . . d . . s . ",
".   s     . . . . .   P Q Q Q Z . . I Q ! ! ~ _ ] ] ] ] ] ] ] ] ] ] ] ] ] ] ] ' ^ Q ! Q R . . w Q Q Q T . . . . . .   . . . . . ",
"  .     . .   . .   . e Q ! Q E q Z ~ ~ Q ~ ` ] ] ] ] ] ] ] ] ] ] ] ] ] ] ] ] ] ' ) Q ! ~ E & T Q Q Q e . .   . .   . .   . . . ",
". . s . s d . . % . . # Z Q Q ! Q Q Q Q ~ ] ] ] ] ] ] ] ] ] ] ] ] ] ] ] ] ] ] ] ] ] ) Q Q Q ! Q Q Q K O o + o O # . . h . . d . ",
". . . .     . . . . . . . e E ! Q Q Q ~ ] ] ] ] ] ] ] ] ] ] ] ] ] ] ] ] ] ] ] ] ] ] ' ) Q Q Q Q Q u o o . o . . . . . . . . . . ",
". . . . . .   . . . . . . . * E Q Q ! ` ] ] ] ] ] ] ] ] ] ] ] ] ] ] ] ] ] ] ] ] ] ] ] ' ~ Q ! Q u o o   . o   o . . . . . . . . ",
". . + . . d . . h . . . . . & E Q Q ) ] ] ] ] ] ] ] ] ] ] ] ] ] ] ] ] ] ] ] ] ] ] ] ] ] ` ! Q Q e o + o o + o o d . . . . d . . ",
". . . . . . . . . .   . . . Z Q Q ~ ] ] ] ] ] ] ] ] ] ] ] ] ] ] ] ] ] ] ] ] ] ] ] ] ] ] ] ) Q Q T . . . . . . . . . . . . .   . ",
". . . . . % e * . . . . . . T Q ! ) ] ] ] ] ] ] ] ] ] ] ] ] ] ] ] ] ] ] ] ] ] ] ] ] ] ] ] ' ! Q Q h . . . . . . u e . . . . .   ",
". . d . I ! ! ! Q A . h . w Q Q ! ] ] ] ] ] ] ] ] ] ] ] ] ] ] ] ] ] ] ] ] ] ] ] ] ] ] ] ] ] ) Q Q e % . . e I ! Q Q R q . . . . ",
". . . A T T R ! Q ~ A 2 . A Q Q ) ] ] ] ] ] ] ] ] ] ] ] ] ] ] ] ] ] ] ] ] ] ] ] ] ] ] ] ] ] _ Q ! Y . . w E ! ~ Q U T R k . . . ",
". . q w . . d * A ~ Q Q I E Q Q ` ] ] ] ] ] ] ] ] ] ] ] ] ] ] ] ] ] ] ] ] ] ] ] ] ] ] ] ] ] ] ! Q Q T T ! Q Q Z 2 . . k A . . . ",
". . h . . d . . . Z T Q Q Q Q ~ ' ] ] ] ] ] ] ] ] ] ] ] ] ] ] ] ] ] ] ] ] ] ] ] ] ] ] ] ] ] ] ~ ! Q Q Q ! Y . . . . . . . . % . ",
". . . .   . . . . . % A Q Q Q ~ ] ] ] ] ] ] ] ] ] ] ] ] ] ] ] ] ] ] ] ] ] ] ] ] ] ] ] ] ] ] ] ~ Q Q Q Q & . . . . . . . . . . . ",
". . . . . . . . . I Q Q Q Q Q ~ ] ] ] ] ] ] ] ] ] ] ] ] ] ] ] ] ] ] ] ] ] ] ] ] ] ] ] ] ] ] ] ^ Q Q Q Q ~ Y h . . . . . . . . . ",
". . s . . d . . # . % Z T Q ! ! ] ] ] ] ] ] ] ] ] ] ] ] ] ] ] ] ] ] ] ] ] ] ] ] ] ] ] ] ] ] ] ~ ! Q T A w . . . h . . h . . . . ",
". . . . . . .   . .   o * Q ! Q ' ] ] ] ] ] ] ] ] ] ] ] ] ] ] ] ] ] ] ] ] ] ] ] ] ] ] ] ] ] ] ! ! Q e . . . . . . . . . . . . . ",
". . . . . . . . . . . o o L Q Q _ ] ] ] ] ] ] ] ] ] ] ] ] ] ] ] ] ] ] ] ] ] ] ] ] ] ] ] ] ] ' ! Q T . . . . . . . . . . . . . . ",
". . s . . s . . s . o O O P ! Q ~ ] ] ] ] ] ] ] ] ] ] ] ] ] ] ] ] ] ] ] ] ] ] ] ] ] ] ] ] ] ) ! Q E Z . . . . . . . . h . . h . ",
". . . .   . L U T T p 2 P ! ! Q ! ` ] ] ] ] ] ] ] ] ] ] ] ] ] ] ] ] ] ] ] ] ] ] ] ] ] ] ] ' ! Q Q Q Q Z 2 A T T Y k . . . . . . ",
". . . . s P Q Q Q Q Q Q ! E T ! ! ~ ] ] ] ] ] ] ] ] ] ] ] ] ] ] ] ] ] ] ] ] ] ] ] ] ] ] ] ) ! Q E A Q Q Q Q Q ! ! ^ Z . . . . . ",
". . d . p Q I Z E Q Q Q T & p ! Q Q _ ] ] ] ] ] ] ] ] ] ] ] ] ] ] ] ] ] ] ] ] ] ] ] ] ] ' ! Q Q Z . Z Q Q Q Q A P T E . . . . . ",
". . . . L 2 . . + e P A #   O R Q Q ! ' ] ] ] ] ] ] ] ] ] ] ] ] ] ] ] ] ] ] ] ] ] ] ] ' ^ ! Q E % . . 2 I Z & . . . A H . . . . ",
". . . x * . . . o . . o . . . w Q Q Q ~ ] ] ] ] ] ] ] ] ] ] ] ] ] ] ] ] ] ] ] ] ] ] ] ) Q Q Q A . . . . . . . . . . . A . . . . ",
". . h . . . . . + o o + . o O O R Q Q Q / ] ] ] ] ] ] ] ] ] ] ] ] ] ] ] ] ] ] ] ] ] _ ! Q Q R 2 . . h . . . . . . . . . . . . . ",
". . . . . . . . o o   o o   .   p Q Q Q Q / ' ] ] ] ] ] ] ] ] ] ] ] ] ] ] ] ] ] ] ) ! Q Q Q q . . . . . . . . . . . . . . . . . ",
". . . . . . . . o   o o . . s   L Q Q Q Q ! ~ ' ] ] ] ] ] ] ] ] ] ] ] ] ] ] ] ' / Q Q Q Q Q J . . . . . . h . . . . . . . . . . ",
". . h . . h . . + o o O o o + u Q Q Q Q Q Q Q ! / ] ] ] ] ] ] ] ] ] ] ] ] ] _ ~ ! Q ! ! ! ! Q Z . . . . . . . . . . . D . . l . ",
". . . . . . . . o o   o . O p Q Q Q Q E Q Q Q Q ! ! _ ' ] ] ] ] ] ] ] ' _ ^ ! Q Q Q ! ~ Q Q Q Q P . . . . . . . . . . . . . . . ",
". . . . . . . . o   o * p U Q Q Q Q T % 2 Q Q Q Q Q Q ! ~ _ ` ' ] _ ) ~ Q Q Q Q Q ! Z . A Q Q ! ! T I l . . . . . . . . . . . . ",
". . k . . . . . + w W Q Q Q Q Q Q Q 2 o + + J Q Q ! Q Q Q ! Q Q ~ Q Q Q Q Q ! Q A q . . 2 Q Q Q ! ! ~ / ~ D . . . . . . . . . . ",
"e # . .   . .   u E ! ! ! ! ! ! Q L .   o .   u Q Q E Q Q Q Q Q Q Q ! Q T Q Q W     .   o p Q Q ! ! ! ! ~ Q Z . . . . . . . . . ",
"4 u > [ j s   f P 2 2 2 2 L T ! Q &   . s . . H Q T + + i H Y Q Q L p *   i Q Q * s     o # U Q E H Z 2 q e I q . . . . . . . . ",
"3 e 3 G D v h w s . o s . . # u & s s . s   o Q Q a + o o + * Q K o o O . o Q Q u + . s + o & p . . .   . . . Z . . . . . . h . ",
"6 e 3 } | | F = g o . . . . . .   .         % Q R % o o   o + W u .   o o   A Q i o o   o .   . .   . . . . . . . . . . . . . . ",
"3 4 5 [ { { D < r 0 X @ . . s . . o . o o q Y Q & o o   o O   J 2 . . o   . o L Q H # o o . . o . . . . . . . . o   O # F q 2 3 ",
"4 e 5 F F F B ; 3 4 ; X . . s   . O . o q i # # o o O o o O . O O . o O o o + O + q e o O . o s . . . . . . . . + = 0 0 G D w 3 ",
"4 t 3 D D D m ; r u 3 - X X X X X : : X : : = = : : : : : : : : : : > > : : : : : : : : : : : : Z X > > 6 > > > - < u i D m u 4 ",
"; 4 3 G G G D ; 3 r ; ; ; ; ; 3 ; ; ; ; < < ; < ; ; ; ; ; ; ; < ; ; ; ; ; ; ; ; ; ; ; ; ; ; < < $ w , 4 6 6 5 3 < < 4 6 G D 4 3 ",
"r c , [ [ { B ; ; 6 ; < ; 5 < < < < < < < < < < < < < < , < < , ; - 3 ; - 4 - 3 < < < < < , < , < < < < < < < < ; ; y c | F y r ",
"< r < { [ | B < 0 b < 6 N b b m n n m n n n b n B b n B b M M b N v b M N b N M b M M M M M M B M b M n M m M n b ; 6 y [ B t < ",
"< r <  .| | B < ; 4 ; r < t 7 5 t 7 < t t < t 7 6 t 6 5 t 6 < t 7 5 t 7 5 t 6 6 t 6 < t 6 < t < < y < 6 t < < t < ; < t | F t ; ",
"r y <  . .| [ < 6 t ; ; < < < < ; < < ; < ; < < < < < < < < ; < ; ; 5 ; < ; ; ; < < < ; < < < < ; < < < < < ; ; ; ; c M | G x t ",
"< 6 < | { { B < r y < < < < < < < < ; < ; < < < < < < < < < < < ; < ; < < < ; < < < ; < ; < < ; < < < < < ; < < ; ; 6 r | B t < ",
"6 r < B [ B [ < < , ; 6 n B b n m n m m n m m b n B n n B b n B b B B n m B n m B n m m n m m n M m n n m n n m y < 6 y B B t , ",
", c < | [ [ ( 6 r y < ; < < < < < < < < < < < < < < < < < < < < < 5 < < 5 ; 5 5 ; < < < < < < < < < < < ; < < < < < c c F B y t ",
"< < ; [ [ [ [ 6 < r ; < < < < < ; ; < ; < < ; < < < < < < < < < < < ; ; < < ; ; ; ; < ; < < ; ; ; ; < < ; ; < < < < < < | ( , < "
};
