/* XPM */
static char *wall_sun_3_2[] = {
/* columns rows colors chars-per-pixel */
"64 64 70 1 ",
"  c #AF5D00",
". c #B05F03",
"X c #AF6006",
"o c #AE630B",
"O c #B06106",
"+ c #B0640B",
"@ c #B2680F",
"# c #AC6613",
"$ c #AD6816",
"% c #AE6B1B",
"& c #B06712",
"* c #B26A13",
"= c #B06D1C",
"- c #B5721E",
"; c #9C6C26",
": c #967132",
"> c #987336",
", c #9A763A",
"< c #9C793E",
"1 c #A26B21",
"2 c #AD6F22",
"3 c #B06F21",
"4 c #B47423",
"5 c #B77826",
"6 c #B87927",
"7 c #B37628",
"8 c #B77A2A",
"9 c #B87C2A",
"0 c #A47736",
"q c #AA7632",
"w c #AA7936",
"e c #A47B3D",
"r c #A87B3C",
"t c #B57E32",
"y c #B87F31",
"u c #9E7B42",
"i c #A17E46",
"p c #A17F48",
"a c #B78033",
"s c #B98234",
"d c #B68239",
"f c #BB8639",
"g c #BC8A3E",
"h c #A28047",
"j c #A2814A",
"k c #A98649",
"l c #AC8A4F",
"z c #BD8E43",
"x c #BE9046",
"c c #B7904D",
"v c #BE9249",
"b c #A68652",
"n c #A78854",
"m c #A88955",
"M c #AB8D5B",
"N c #B08D50",
"B c #AD905F",
"V c #B5975B",
"C c #AD8F60",
"Z c #AE9162",
"A c #B19466",
"S c #B29669",
"D c #B3986B",
"F c #B69C72",
"G c #B99F77",
"H c #B9A077",
"J c #BBA27A",
"K c #C0964E",
"L c #C09751",
"P c #C09851",
/* pixels */
" osx&....... ..... ..... .. ........ .. ..... .  ..   &.&KKfK . ",
"&=sz4=.............................................. .*&.fKfs 3.",
"X&9f&&.=55455455566466566596496566666496496466565566&...+Kyyf.&+",
" &sz&.. ............... .... ...................  .. .3$.yKKK.+.",
"*3zv73............ .....  ............. ........  ....&+ fKKK.3&",
".$fL&+..&+O*.+&.+=.+@.+=.+*++@.&*.+*.@@.@*.@@.+&.+*.+ .  yKKK &.",
".&sx*#.455y7589yy8yy5yyyyy9yy5dy9yy9y656666646749549..4=.yKKK.&.",
"+3fx4=........++++++++..&..&+.++@..+........O.........+..yyzz.3=",
".+yz$.  ..      .. .. .. .      ..  .                 &. 9fKf...",
"&=9s3% ##..#$#$#&$$=$#$3$$24424%43333=*3$&%333%$2###..3%.6ssy.=.",
".&8d$$#u<>:<uuuMCZDZppDAAFFAZZZZFAAADGMBSnpMDACCbuuu1 .. 9fsK.=+",
" $tciijjp,:,jubCZMnpMDZCGSAMjMDkMCimAAGZmDMppCCZCppu;#&& yKKK...",
"iiiipjpupu>:uuuui,bAAMmGAMbAZZZbMZAZpMMFmnAAmi0ppuu::,pw.sKKK.3&",
"<<,,uuuuuuu::>>ubmAMjADZpMFFMMZjjZmZFMpmSSnnSCpiu:>:>ii,iizKy & ",
"jjpjjjjjpuuu>uunpbmDDDmbZGGZkZjmkmZmDGDppADSmnpnp,>>iibppppNA.& ",
"jjjjjjpjjjppuuuCBZDDAbiAGGDMiiAJGmibZGGDppCDDSCCmuppppppppppppi2",
"pjjjjjjpjjjjjjbZZZSSMuMGGGAmmjGmZSumCAGGZubCSSZZZppbjjjpjjjjjjpj",
"jjjjjjjjjjjjjjbZZZSmjMDGDZACSbHMAFbFCFCFDCuMCSZZCpppjjjjjjjjjjjj",
"jjjjjjjjjjjjjjbZZZMbuSSASMMDkpSJJnpCSCACZSppMCCZZppppjbpjjjjpjjj",
"jjjppjjjjjjjjjbZZbMuZACMbSGFGGjnjCGDFFCbmMAppnCZZppbppppjjjpjjjj",
"ujujjjjjjjjujjbCmnuuSmnAAAAFJJHjCJJGSAAAmbMbujnCZppppbbpjjjjjjjj",
"jjbbjjjjjjjjujbCmbuCCnMSGHGDAJJmFJFCFGGFCbuCuunnZpbpppppjjjpjjpu",
"jubujjjpjjjjjjbMnujCuZDGHHFAHHJFJGFFDGGGDDnbMujnMuppppppjjjjpuuj",
"jjuuujjjjjjjjjunuuSbnDDDDHHAmAHJJAACDGDDDDSuDjpbMuppbppbjppuujjj",
"uujjuujjjjjuuujnumCbbAbFFGGGHMHJJZSGHGGFnAAuCCujbuupjppjjuuupuuu",
"juuujuuuuuuujjbubCCbnbuuubZZZjAJJbZZZmbuuuMbbAnunujuuuuuupuuuupu",
"uuuu,ujjjjjjuuuuCCmpMCCnbpubbjZJJjnnjubunAMmjACjpuupppppjuuujuup",
">>>uuuuujjuuuuuMCCCbCASFDFjZHDSJGAHHbMGZSDMSuCACuupuujpupuuu>:>u",
"juu::,:uuuujjujZCmCbACSGGGZCJJSJDGJGbFGGDDMDpmAZM>ujpuuu:u::uujj",
"jjju>::>uujj>,nZCnnbSMSGGGFSJJSJDGJGMGGGDSMCubCZCu>ujpuu::>uupjj",
"jjjjju>>>::>uunZCbbuSbSGGGGGJJDJFGJHGGGGDCnCpjCCCjuu:::::upjjjjj",
"jjjjjujuu,uujjnZCbCuApAGGGGGJJSJDFHGGGGGDMMnbnmCCjjuu>uuppjjjjjj",
"jjjjjjjjjjjjjjnCnmZlMnMGGGGHJJFHFHHHHGGGDjMjMmnZCjjjjjjjjpjjjjjp",
"jjpjjjjjjjjjjubCnnCZjbnGGGGHJJJJJJJHHHGGZmbmMMmCCjjjjjjjjjjjjjjj",
"jjjjjpjpjjjjjjbCMmZZMjnFHGHHJJFADJJHGGGGMmbSMMMmAujjjpjjjjjpjjjj",
"jjjjjjjjjjjjjjnuCmZZDmnZGGHHJHABZZJHGGGFMuZDMmZjCjbujjjjjjjjjjjj",
"jjjjjjjjjjpjjjubCmACDMMZDGGGJDMVMMGGGGGMCbSDMmCmjjjjjjjjjjjjpjjj",
"jpjjjpjjjjjjjuuCZmAMDAbAnGGGJJJJJJHGGGSMmMDDMMACujjjjpjpjjjpjjjj",
"jjjjjjjjpjjjbuuZCmCZDDMZMCGJJJFMCHHGGGpZbASSMMCCn,ujjjjjjjjjjjjj",
"jpjjjjjjjjjju,bZCmCADDDMDpAGJJGimJGGGnbZCDSSMCMZZujjjjjjpjjjjjjp",
"jjjjpjjjjjjj,ubCCmCZDDDmFjjAJJGimJHDmpACZDDDMAmCCu>ujjjjjjjjjpjj",
"jjjjjjjjpbj,,ubCMCCADDDSMCppmFGhmGSkubGmDDDDMAmCAuuuppjjjjjjjjjj",
"jjjjjjjjju>:ubbCmCMDDDDGAGjiiimikjpppAFCSDDDZCMMCjj>>upjjjjjjpjj",
"jpjjjjpju>>ububMCCMDDDDGlGBiiihiujiipFSCDDDDSMCmCjju:>uujjpjjjjj",
"jjjujuuu>:ujppbbCMCDDDDGbGDjkiiijpjkMGDFDDSDDMZCnjjjp>:uupjujjjj",
"pppuuu::>upjjbuCZbDDDDDGbGGjMBmbjMDbAGSFDDDDDMMZnpjpju>:::uujppp",
":::::::>ujjjjppCMCSDDDDGbGGmnJJJJJSmFGDASDDDSZmZCujjjjuu::::::::",
"::::uuppjjjppubMMCDSDDDGbGGAjGJJJJmMFGDCDDSDDSMbCpupjjjppuu>>::u",
";,ubjjjjhjjuijjmZZSDDDDDpGGFpBGJJDpAGGFpDDADDAZCbppujjjjjjjjjuuj",
" $oVbjjjjjuujujZZZDDDDDCAGGFikbMnppZGGGpZDDDDSZZMujpuujjjjjjjjjj",
" & zgcliieiiuubZZZSDSDDpFGGFMlAmAmAAGGGmmDDDDAZZAuuujuuujjjjjjjj",
"*3ocxKsoq,<ijjbZZZDDDDMpGGGFFiZmDpDSGGGSiDDDDAZZCjjpuuu,ujjjjjju",
" o.xxzy.#$$,jjbZZZSDDDpCGGGFFimpkpJAGGGFipDDDAZZCjjujjjjjjhhmd$ ",
"o=.ffg9..o %jjbZZZDDDpiFGGGGSpMmApJAGGGGbiZDDAZZCjjjjjjjeo&&d9$X",
"o$.sss9.*=oX$$$%3%333&&433333$=33$4=3333%o$3=%%=;###$###oX=-s9=#",
".+.ggz9.+#           . .  ..            .  . ...          O@gaoX",
"&3.fgfy..+..................+.+...+.@.@++.+.+&+.++..+...X =4xf=+",
".&.KKKy.=3.+8458-99569-9949y9ss9si9ss9ss9yy7yy6yt88558555 &*xs*X",
".&.KKKs. ..+.&&O@@.@@.@@.*+.*@.*@O*@.*+.@++*..*+.=.+*++&  o&vf#.",
"&=.KKKf.+#......  .   . ..  ..    . .... ......... .....  27vz3*",
".&.KKKy.&%......            .     . .. .................  +&zs& ",
"+*.yyys+...+59459999599699599699599699669466495455459445=.&*g8$O",
"o&.KfKK+&=. ................... .. ..... ....O .........O.=4zs=&",
"   KgKg+.&......    ..  .  .  . ..  . .. ..... ..... .....O&zsO."
};
