/* XPM */
static char *wall_sun_3[] = {
/* columns rows colors chars-per-pixel */
"64 64 66 1 ",
"  c #AF5D00",
". c #B05F03",
"X c #AF6006",
"o c #AF630B",
"O c #B06106",
"+ c #B1640B",
"@ c #B2680F",
"# c #AB6614",
"$ c #AD6816",
"% c #AE6B1B",
"& c #B06711",
"* c #B26A13",
"= c #B06D1C",
"- c #B6731E",
"; c #9C6B24",
": c #967132",
"> c #987336",
", c #9A763A",
"< c #9C793E",
"1 c #AC6E21",
"2 c #B16F20",
"3 c #B47322",
"4 c #B77825",
"5 c #B87A27",
"6 c #B37628",
"7 c #B77B2B",
"8 c #B87B2A",
"9 c #A97632",
"0 c #AA7936",
"q c #A47A3C",
"w c #A87B3D",
"e c #B67E32",
"r c #B87F31",
"t c #9E7B42",
"y c #A07E46",
"u c #A17F48",
"i c #B78033",
"p c #BA8234",
"a c #B58339",
"s c #BB8739",
"d c #BC8A3E",
"f c #A28047",
"g c #A2814A",
"h c #A98649",
"j c #BD8D43",
"k c #BE9046",
"l c #B7904D",
"z c #BF9249",
"x c #A68652",
"c c #A78854",
"v c #A88956",
"b c #AB8D5B",
"n c #B08D50",
"m c #AD905F",
"M c #B5975B",
"N c #AD8F60",
"B c #AE9162",
"V c #B09466",
"C c #B29669",
"Z c #B3986B",
"A c #B69C72",
"S c #B99F77",
"D c #B9A077",
"F c #BBA27A",
"G c #C0964E",
"H c #C09750",
/* pixels */
" opj&O    ..... .. ....  .. ...........       ......  &.+GsGG . ",
"&=pj3= O O............................... OO O ..... .2&.jGsr 2.",
"X&7s&+ -88358385388388388388388384388388585588585384& ...Grrr.&o",
" &pj&+    ...   ..... ... ..... .....  .      ..  .. .2& rGGG o ",
"&3jz62  .......... ...... ... .........     ......   .*+ sGGH+2&",
".#sH&o..*+O*OO*O&*.+*.+*.+=.@@+*@.@*.@*.@*O@@.@*.@*.@ .. sGGH.&.",
".&pk=+ 644766787rrrr8rr7rr8rr8rr8r888835838438635338+.3* rGrG.& ",
"&=sj-=  O..OO ++.+++&.&.@..&.++.+.+@............ .... @. rGrj+2&",
" +rj+.  ..      .. .  .         ..                   .&. rssG @ ",
"&=7s2% ##..######===$#&2%=22323%333222$2%&%222%$1###..2% 5prr *.",
" &7e&=#y<>:<tttbbBZBuxVCBAABBBBBSBBBZSbNZuybZVBbuttt1 .. 5spG.=+",
" $elyyggu>:<gtcBBbxgbCNBSZCbgvCxbNybVBSBbZbuubBBVuyt;#&& pGGG...",
"yyyytggtgt>:t,tgy<xVVbbAVbxVCBNxbNVBuNNAbcBZvyquutt::,y0.pGGG.=+",
"<<,<ttttttt::>>tgbVbxBZBuvAAvvNyuBcBAbuvVVvcCbuyt:,:>yy,yyjGp &.",
"gguuggggtttt>,tcuxvVCCvxBSSBxBucubbvZSCuuVZCbcucu,:,yyuuuuunV.&.",
"gggggggggxggtttNNBZZCxyCSSZbyuBDFcyxBSSCuuBZCVBmctuuuucuuuuuuuy1",
"ggggggggggggggxNBBCCbtbDSABvvxSvNCtbNCSSBtxmZCBBNuuugggguggggugg",
"ggggggugggggggxBBBCvxxZDANBNVxSbCZxAbAbSCbfbNCBBBuxugggggggggggg",
"ggggggggggggggxNBBbxtCCCCbbZxuCFFcgbZbBNBCggbbBBVuuugguugggggggg",
"ugggggggggggggxNBxbtBCbbxCSAAAgcxbSZSAbxvbBtgbbBBuxugguxgggggggg",
"ggggggggggggggxBbxfgCbxBCVVAFFDgbFSSCBCCbxbxtgxNNuuxuuuugggugggu",
"ggggggggggggggxNvgtbbvbCSSAZCFFvAFABZASAbxtmtgvxVuuuxuuxggggggtt",
"ttuggggugggggggbx<xbgBCBvggVDSFZFFAAvggmBZxxb,gxctuxuuxuggggutug",
"ggttuggggggggtgxttZggxttbBCgbZSFFBSgbBBfffmfCggxctuuuuuugggttggg",
"ttggttgggggtttgvtbBgucubZbbbyNSFFBggZNVNgxNtNbtxxgttgtgguttttttt",
"gu<<ggttttttgggtxBbxbVbcVVZBbyVFFgtbANCbxNCxxVxtxtgttttttuttttgg",
"tttg>tggggggttgtNBvgbVbxgvvvbVVFFbBcvbctvCNvgBBgtgtggggggtttgttg",
">::tt<tgggtttg,bBbbcbVZAZAumFFVFFZFFgvSVZZvCfNBNtttttggttttt>:>t",
"gg<::>:ttttgg>gBBbbxCbZDSSVBSFVFASFScASSCZNCtcBBN>tttttt>>::>tgg",
"gggt>:::ttgg><xBBxvgZbZSSSACFFZFASSSbSSSCCvBtxBBNt>tgttt::>tgggg",
"gggggt::::>:tgxBNvctZgZSSSSSFFZFZAFSSSSSCBxNggBBBgtt>>>>>tgggggg",
"gggggggt<,tgggxBNgbuVgCDSSSSFFCFZSSSSSSSCNNcxccBBggtt,,tgtgggggg",
"ggggggggggggggxBcvmvvcvSSSSFFFASAFFSSSSSCgbgbbxBBggggtgggggggggg",
"ggggggggggggggxBcvBNxccSSSSSFFFFFFFSSSSSmvgbbbvmBggggggggggggggg",
"fgggggggggggggxbvvBVvgvASSSSFFACCFFSSSSSbvgCbbbvbggggggggggggggg",
"ggggggggggggggxgNvbVZvvNSSSFFSCNBBFSSSSZbgBZbvBgbggggggggggggggg",
"ggggggggggtgggtxBvVbZNvNZSSSFZbNbbSSSSSbBxZZNvNcgggggggggggggggg",
"gggggggggggggg,bBvCbZCxCcSSSFFFFFFSSSSVbvbZZbbBNgggggggggggggggg",
"gfgggggggggggttBBvBBCZNNNNSSFFANNFFSSAtVxCZZbvNBc<gggggfgfgggggg",
"ggggggggggggg>xBBxBVZZZvZtCSFFAycFSSSvcBbZCCbNbBB>gggggggggggfgg",
"gggggggggggg,txBBvBVZZZvAuuBFFStcFFZvtCBBZZZbVcNNf>gggggggfggggg",
"ggtgggggggg<>gxBvbbCZZZCBBuubAAycAVxtcSvZZZCNVcNNg,>gggggggggggg",
"gggggggggg>:tgxBvBbZZZZSBAxyyyxyxctttCANZZZZBNbbNgg::tgggggggggg",
"ggggggggt>:tggxbbBbZZZCSxSbyyyyyttgtuAZNZZZZCbNcbggg::tgggggfggg",
"ggggggg,::tgggxvBbBZZZZSxSZuuyyytttxNSZAZZZZZbNNcgggg::,tggggggg",
"gggt,>::,tgggggbBxZZZCZDvSSubbvvgNAgBSZZZCCZCNbNcggggt::::,tgtgg",
":::::::>tggggtgBvbZZZZZSvASvvFFFFFZcASCVZCZZCVcNbtggggg,::::::::",
"::>:>tggggggttxbbBCZZZZSvSSNuSFFFFbbASZNZZZZCCNcbgtggggggtt>>::>",
";9fguffggggytggvBBZZZCZZuSSAyNSSSZuVSSAuZZZZZCBbcggtgggggggggttg",
" #oMcyfgggttgtuBBBZZZZZbBSSAyucbbuuBSSAyBCZZZCBBbtggtggggggggggg",
"X$XdslhyytyyttxBBBZCZCZuASSAbxBxBbBVSSSbvZCZCCNBbgttgttggggggggg",
"&=ozGGso9<<yggxBBBCZZZbxSSAAAyBcCuZVSSSCyCZZZVBBBggttt,,tggggggt",
" oOGdGp.#$$qggxBBBZZCCyBSSSSZybyuxSCSSSAyvZZZCBBBgggggggggfaxi#X",
"+%Ossp8. o %ggxBBBZZCxyASSSSCybcBuSVSSSSc<BZCVBBNggggggg<##@a7#X",
"+*Xapp8.== o$#$1%==23&*322222$=2=&22222=&##=%=$%%######## =-pi%&",
" o dsdp.oo       ..  .  ....  . . .. ..........           X+dioX",
"&2.sGsr .+...O.....O .O .O..++@O..+.&.&&++.+.&+++O..O.O.  =-ka=+",
".&.GsGr =2OO7345348358-5838888r8ej8rrrrr7rr5er7re77437446 $*kp&X",
".&.HGGs  o +.*+O@@.@@O*@O*+.@@O*&.*+.*&.*+.*O.*OO*O+*+O*X o*zs&X",
"&=.GGGs.o&  ........    .. ...    . ....................  %6zj3&",
"...Gkzr.&%..........    ....     ..... .............O...  &*zp$ ",
".%.ssss+...+48348548488588348388388388348355355348347355- o&s7#X",
"o2.jjsj.&2. ...O.OO .O OO .O.....O.....+.....O ...OO OO O =3jp=&",
" . jjjG+.& .....             .....  .... ..... .....      O+jpO."
};
