/* XPM */
static char *wall_moon_3_1[] = {
/* columns rows colors chars-per-pixel */
"64 64 123 2 ",
"   c #010102",
".  c #03060A",
"X  c #06090C",
"o  c #090B0D",
"O  c #030A13",
"+  c #0A0D11",
"@  c #020E1B",
"#  c #0E1115",
"$  c #03101F",
"%  c #0B121B",
"&  c #101317",
"*  c #11161C",
"=  c #14191E",
"-  c #031122",
";  c #0A1523",
":  c #04172D",
">  c #04182F",
",  c #101720",
"<  c #121A22",
"1  c #191E25",
"2  c #151E2A",
"3  c #041A34",
"4  c #091E36",
"5  c #051C38",
"6  c #1B2127",
"7  c #17222F",
"8  c #1D242D",
"9  c #0A213C",
"0  c #1C2631",
"q  c #18283B",
"w  c #20272E",
"e  c #21282F",
"r  c #232A33",
"t  c #242E3A",
"y  c #26303C",
"u  c #2A323C",
"i  c #0D2644",
"p  c #1C2E44",
"a  c #1F3045",
"s  c #1D3149",
"d  c #1D3858",
"f  c #233245",
"g  c #2C3641",
"h  c #2E3844",
"j  c #23364C",
"k  c #25384F",
"l  c #2A394B",
"z  c #313B46",
"x  c #333E4B",
"c  c #203651",
"v  c #243A54",
"b  c #2B3D53",
"n  c #243D5A",
"m  c #283E5A",
"M  c #313F50",
"N  c #243F63",
"B  c #36414E",
"V  c #38434F",
"C  c #26405F",
"Z  c #2D425B",
"A  c #364352",
"S  c #3A4552",
"D  c #3D4956",
"F  c #32455B",
"G  c #35485E",
"H  c #3E4B5B",
"J  c #274162",
"K  c #294365",
"L  c #2B4769",
"P  c #2D496B",
"I  c #314760",
"U  c #354B64",
"Y  c #3B4E64",
"T  c #344D6E",
"R  c #384F6B",
"E  c #3F5065",
"W  c #37506E",
"Q  c #3A516C",
"!  c #2F4E73",
"~  c #344F71",
"^  c #335074",
"/  c #3D5574",
"(  c #3F5876",
")  c #32537B",
"_  c #3C5778",
"`  c #414E5D",
"'  c #43505F",
"]  c #455364",
"[  c #495767",
"{  c #43566C",
"}  c #495768",
"|  c #4B596A",
" . c #405772",
".. c #425976",
"X. c #4A5D74",
"o. c #445C7A",
"O. c #485F7D",
"+. c #47607D",
"@. c #4A617E",
"#. c #55667B",
"$. c #596B7F",
"%. c #365984",
"&. c #3C5C83",
"*. c #375C88",
"=. c #3D6391",
"-. c #425F82",
";. c #4E6481",
":. c #4E6886",
">. c #516682",
",. c #566B86",
"<. c #586D87",
"1. c #576C88",
"2. c #596E89",
"3. c #5D728B",
"4. c #406694",
"5. c #61758E",
"6. c #637790",
"7. c #667A92",
"8. c #6B7E95",
"9. c #637C99",
"0. c #6D8097",
"q. c #6E8199",
"w. c #72849A",
/* pixels */
"  @ .   -   . @   @ .   R  .o.1.,.,.6.5.5.5.5.8.8.8.5.3.5.2...-. .2.7.2.2.8.8.8.5.5.5.5.5.3.<.,.,./ / R . . @   @ .   -   . -   ",
". 3 - @ 5 @ - 3 O 3 - ; / / o.1.,.,.5.5.5.5.5.8.6.8.8.6.8.5.;. .;.3.2.,.2.2.3.2.3.3.5.5.5.<.,.,.<. ./ / ; - 3 O 3 - $ 5 @ - > . ",
"n d s v L J n N d p s n ~  .o.1.,.,.3.>.>.,.,.8.8.8.3.3.8.6.;...,.3.3.7.2.8.8.8.<.,.>.>.<.3.,.,.,./ T T n s s c N N N P v s n n ",
") P J ! %.%.! ) P n n &...T / O.o.;.<.5.5.5.5.8.8.2.8.8.8.8.7.-.;.8.8.8.8.3.7.8.5.5.5.5.3.>.>.;.-./ .. .-.v N P ! ! %.%.! J L ) ",
"% 9 ; % i % ; 4 @ 4 ; U / / O.1.,.<.5.5.5.5.5.7.<.8.8.8.3.,.;...2.>.,.3.8.8.7.2.5.5.5.5.5.3.,.,.,./ W  .U ; 4 + 4 ; % i $ $ 9 % ",
". > @ O 3 @ @ : X 3 ; R _  .o.1.<.,.5.5.5.5.,.7.8.8.2. .>.>... .-.;.;.-.;.7.8.8.>.,.5.5.5.3.,.,.,. .-. .W ; : X : @ @ 5 @ @ 3 . ",
"                    # /  ./ o.1.,.<.5.5.3.>.3.8.8.;.o.8.8.,.,.;.,.5.7.7.;. .6.8.5.,.>.3.5.3.,.<.,./ ../  .# . .                 ",
"  ` f   g # p w r % U / _  .o.1.,.,.5.,.;.5.5.5.-.<.5.,.,.8.8.>.8.8.,.;.6.,.;.3.5.5.3.;.3.3.<.,.,./  ./ -.m + r e p & u   y `   ",
"= t @.  . S b r   % ~ /  ./ O.1.,.,.>.<.5.5.,.-.5.5.,.6.w.w.8.;.2.w.w.8.>.3.3.o.o.3.5.5.>.>.,.,.1./ / / _ P %   r b S .   @.t = ",
"B X j ' X , 3.X   + I ^ / ( O.>.;.o.3.5.3.;. .7.3.>.7.8.w.w.8.O.8.8.8.8.8.,.,.8. .-.<.5.5.,.;.;.1. ._ / T J +   . 3.= X ' j X B ",
"u w o.&   # 3.X   % N T T T / ;.,.,.5.,. .o.3.3.,.7.7.2.5.3.3.<.8.,.3.2.5.8.>.>.5.-. .>.3.3.<.>.O.T ~ R L N %   . 3.%   # X.w u ",
"  ` /     V b r   % N L / / o.,.,.>.o...>.3.,.,.8.5.3.>...;.3.o.>.,. .>.3.3.8.,.;.3.;. . .>.<.3.,./  .~ N J %   r b V     / `   ",
"  [ Z . D 0 p z y * K N L P ~  .T T o.3.3.>.;.8.3.;.o.,.3.<.,.;.>.,.<.,...;.;.5.;.o.3.5.;.N N -.^ T T N J P < u x q 8 `   Z [   ",
"  x Y   * D Z z X , / K K K K T o.;.3.>.;.1.5.,...;.7.8.;.;.7.<.8.3.;.>.7.;. .;.2.2.>.>.3.3.;.N T K L K P / * o x Z D *   Y z . ",
"V o F h X t 9.+   * / _ ~ P ~ >.,.o.>.5.5.5.;...1.8.8.1.,.8.5.8.3.5.6.;.5.8.5.-.o.,.5.3.,.,.,.,.o.P T W / ..%   # 9.r . z G o V ",
"D = S t   % q.o   ,  ./  ./ o.1.,.,.5.5.3.o./ 5.8.8.5.>.3.5.8.8.8.8.7.;.,.8.8.5... .,.3.5.3.,.,.>./ / / / / *   + q.&   t F = D ",
". z M   . S U u   *  ./ _ ..O.,.,.1.5.5.@.^ #.8.8.8.<.;.8.<.5.-.,.8.<.>.<.3.8.8.>.~ -.:.5.2.,.,.1. ./ / /  .,   u U S X   M z   ",
"  [ Z . ` t p A g ,  ._ / / o.,.<.<.5.@.o.@.6.8.7.,.<.,.8.,.o.8.3.>.3.8.>.7.,.8.5.>. .;.,.5.<.<.,. .../ _ / , g A a t `   Z }   ",
"  V G   # S Z z . , /  .../ O.<.,.,.;.O./ 5.5.2.3.,.>.8.8.<.;.8.3.;.5.8.5.>.3.,.,.5. . .>.>.,.,.1./ / / o./ * . z Z S &   G S   ",
"S 1 { 6   < #.+   <  . ./ / O.,.1.O.;.T >.5.>.>.o.5.8.8.8.8.o.o...>.8.8.8.8.;.-.;.;.1. . .>.>.,.1./ / / / / *   + #.<   6 { 1 S ",
"V X F D X , 3.+   ,  ._  ./ o.1.-.o./ / 3.>.o.2.5.3.3.8.w.w.8...;.w.w.8.5.3.3.3.;...>.-.~ o.-.>.>. ._ / ../ ,   o 3., X D Z X A ",
"# l ;.    B Q 1   ,  ./ / _ o.>.;. .~ >.>.O.;.5.8.8.8.5.5.w.8.>.7.8.7.3.8.8.8.7.;.;.R >.T  .;.o.,._ .. ._ / *   6 Q x     ;.z # ",
"  $.F   z g v S r ,  ./ _  ...;.O.T o.>. .2.5.8.8.8.8.8.8.8.w.8.w.8.7.8.8.8.8.8.5.5.;.o.-.T  .;.O._  ./  ./ , r S v f x   F <.  ",
"  ' Y . 0 ] j H # , _ / / / / O./ W 3.o...5.6.6.2.8.8.7.8.7.8.w.w.5.8.3.8.8.8.,.5.5.3.W 3. . .o.O.T  ._ _  ., # ` j ] r   Y `   ",
"D = ..r   u ;.&   , ../ T W  .o.T -.2.o...3.;.;. . .-.>.>.3.8.w.w.5.,.;. . . .;.;.2.3.W ,.,.T ..o./ T / _  .1   & :.u   r o.= D ",
"D # U S . g :.X   % T ^  .^ o./ ..1.>.o.;.,.o.O. .W T ;.>.8.5.8.w.3.;.>.~  . .>. .@.3.o.O.3.-.T o.T / ^ T ~ %   X :.g   S U # D ",
"X u /   . { +.#   ,  .( ^ R / ^ ,.<.;...;.3.3.3.>. . .-.<.8.7.w.w.3.7.;. .~ -.;.2.2.;.@. .1.<.../ R T / / / ,   % @.{ .   / u o ",
"  ] l & H * m ] & * / T / Q P >.<.>.;.o.,.3.6.8.8.6.,.7.w.8.5.w.8.7.8.8.5.>.8.7.5.5.>.5.W ,.,.,.T T / T ~ / , * ] v * ` & l ]   ",
"  D G   t x W h . , T ../ P / 1.,.@.;.O.3.,.7.8.8.>.2.7.8.8.5.8.8.8.w.8.,.>.3.8.5.5.;.5.Q @.1.1.>.K W / / ~ %   z R z t   U D   ",
"z 8 @.&   S :.X   , / _ K T o.1.<.O.-...5.>.7.8.8.8.;.8.w.w.5.w.7.8.w.8.7.;.8.8.5.5.;.<.R o.,.<.,.T K /  ./ ,   X :.S   & @.6 z ",
"x X k [ X r ;.X   % K K W / o.,.,.O.O.T 5...5.8.8.8.;.8.w.w.7.w.7.8.w.8.7.;.8.8.5.<.O.>./ ..1.<.1./ ~ K J P %   X :.r X [ k o B ",
"w u { .   x X.X   % T / / o.o.,.,...>. .2...2.8.8.8.-.8.w.w.5.8.7.8.8.8.7.,.8.8.5.>.>.@.o.-.-.1.1.../ / T / ,   X X.x   . { u 8 ",
"  #./ X z l Z S o < / _ / / O.1.o.;.,.;.;.;.>.8.8.8.>.w.w.w.8.8.7.8.w.8.8.;.8.8.5./ ;.{ >.;...,.,./ / ..../ , + M M l z o / #.  ",
"  } G o V 8 I D + 2 / / /  .o.1.o.;.,.,...o.O.8.8.8.3.8.w.w.8.8.w.w.w.w.8.5.8.8.>.;.-.;.;.;.;.>.,.Q / / _ _ < + ` U 8 S o G }   ",
"V 8 X.=   H { X   < o./  ...o.>.;.;.,.<.;...O.7.8.8.8.w.w.w.8.3.6.8.8.8.8.8.8.8.>.;...3.>.;.;.;.,./ ../  . .<   o { H   = X.8 S ",
"x X Z ] X h { X   < / / / / O.O.,.O.,.,.5.o.;.,.8.8.8.8.w.8.5.3.5.2.8.8.8.8.8.8.;./ <.5.>.;.,.;.,./ / .. . .<   X  .h . ` Z . x ",
"= u ;..   x ;..   < /  ./ _ o.O.,.;.,.,.5.,.;.,.8.8.8.8.w.8.7.8.7.5.8.w.w.8.8.1.,.X.5.5.>.;.,.;.>./ / ../ ..1   X ;.x   . ;.u = ",
"  ] Z   r A W u   < / / / / / >.,.;.3.;.5.3.o.3.>.8.8.8.w.w.8.w.8.w.w.8.8.w.5.,.;.;.5.5.>.;.,.,.;./ / ../ / = . u Q A w   F ]   ",
"  ` Q & ` 7 f ` < <  ./  ./ / 1.,.;.,.,.5.5.,.<.>.,.8.8.w.w.8.7.5.8.8.8.8.7. .,...5.5.5.>.;.,.,.;./ / / / / < = ' a 7 ` & R H   ",
"8 u { X o A ;.#   , / o./ T o.1.,.;.,.<.5.5.5.-.3...7.w.w.8.8.w.w.w.8.8.8.;.-.,.>.5.5.5.>.>.;.,.>.T / / / / < X # ;.S o X { u 8 ",
"V X f } X V ;.    < / ../ ~ o.1.,.o.,.<.5.5.5.;.7.o. .,.8.8.w.w.w.w.w.7.;.~ 2.,.,.5.5.5.>.3.;.,.<.^ /  ./  .<   . ;.V X [ a X V ",
"u 8 { +   H E .   1 /  .T / o.,.;.,.,.3.5.5.5.3.,.,.^  .>.8.8.8.w.8.5.-.W -.8.;.5.5.5.5.>.<.;.>.1./ T / ( / <   . H H   o { 8 u ",
"  ` F   y g G h   <  ./ ^  .O.,.O.,.>.5.5.5.5.8.,.8... . .^ >.<.,.-.W  . .2.7.,.5.5.5.5.<.,.>.;.1./ ^ W /  ., . h G u u . F `   ",
"  ` g # ` 7 k H & , / ^ / / O.;.>.,.>.5.5.5.5.8.-.8.>.^ / _  .^ W /  .~  .7.6.1.5.5.5.5.3.;.,.;.>. ./ / ~ _ < & H v 7 H & f `   ",
"+ g ..    ] X.o   , ^  . . .o.-.<.>.<.5.5.5.5.8.o.8.6. . . . ... . . ...>.8.5.6.5.5.5.5.5.;.,.>.@./  .../ ^ <   o o.] .   X.u + ",
"V + F S . t E     < .. .-. . .,.<.O.5.5.5.5.7.8.;.8.8...;.,.-.>.-.;.5...3.8.5.6.5.5.5.5.5.>.;.,.o. ./ _ / / ,   . E r X V G + V ",
"D < { 8   8 X.X   1  . .~ W  .,.;.>.5.5.5.5.5.8.o.8.8.>.-.8.w.w.8.w.5.-.7.8.7.3.5.5.5.5.5.3.;.,.1.T / / /  .,   X X.8   w { < S ",
"  ] /   # { l z . , -...W T X.>.;.,.5.5.5.5.7.8.;.8.8.,.o.8.w.8.8.w.;.>.7.8.6.,.5.5.5.5.5.3.;.-.,./ ~ / / ( <   z l { #   / ]   ",
"  $.F   ` 1 p z u < ( ^ Q  .o.o.<.,.5.5.5.5.5.3.o.8.8.7...>.8.8.8.,...1.8.8.5...5.5.5.5.3.3.<.;.o. ./ T ../ < u z a 1 ` . F $.  ",
"* z X.  X { Z u   < T W ..^ / ,.,.<.5.5.5.5.5.;.,.8.8.7. . .-.>.;.-...,.8.8.8.o.<.5.5.5.5.3.<.<.>.T / / W ^ <   u Z { X   X.h & ",
"V . b D . 8 q.X   , / ^ R ^ o.,.,.,.5.5.5.5.5...8.8.8.8.>.-.<.O.3.;.,.3.8.8.8.,.;.3.5.5.5.3.<.1.1./ T ~ / W ,   X q.0 X D b X x ",
"x 7 @.=   1 1.X   , T W / / O.<.,.,.5.5.5.5.,.o.8.8.8.7.7. .,.O.3...7.7.8.8.8.7.W 3.5.5.5.3.,.1.,./ / / W T ;   X <.1   = @.8 x ",
"  & <     & # X   o 7 b / / o.,.1.1.6.5.3.3./ ,.8.8.8.8.8...;.....-.8.3.w.8.8.8. .O.6.5.5.3.<.<.,./ /  .F 0 +   X # &     < &   ",
"            .     .   2 / ..o.<.,.,.5.5.6.O.T 7.8.8.8.8.3.-.,.;.2...8.,.8.8.w.8.-.T ,.5.5.3.<.<.,. ./ / 2   .     .             ",
"@ : O : - O 3 @ @ : O - / ..o.1.,.,.5.5.2.T ;.8.8.w.8.8.7.;.,.8.6...8.5.8.8.8.8.3. ...5.5.2.1.<.,./ / / ; O > @ O 3 O - : O 3 @ ",
". ;   - O   :   . -   @ n / o.<.,.,.5.5.W  .6.8.8.8.8.8.7.>.-.8.;.-.8.3.8.8.8.8.5.>.T O.6.2.1.1.,./ / d @   - O . :   O -   - . ",
"+ X X                   # / o.1.1.1.3.o.T ,.6.8.w.8.8.7.7.;.o...-.o.8.3.8.8.8.8.5.5.o.W ,.2.1.1.,./ ^ #                   X + + ",
"! P J n J N n v d p s n n &.o.<.1.1.o.T O.5.7.8.8.8.8.7.7.;.1.;.7...8.2.8.8.w.8.5.5.2.Q / >.<.1.,.( +.J n s p s v v J J n J L ! ",
") P J ) %.%.! P K n J ^ ) %.o.<.,...T ..3.5.5.8.8.w.8.6.8.>.1.O.3...8.3.8.w.8.8.5.5.5.>.~ W >.1.,. .%.) ! J n L P ! %.*.) J P ) ",
"! L J ) *.%.! L L n J ^ ) P :.>./ P / 2.5.5.5.8.w.8.8.3.8. .<.-.2.>.8.6.8.8.8.w.5.5.5.5.>.T ~ ..,.-.P ) ^ J n L P ! %.*.) J L ! ",
") L C ) *.%.! ! L n K ! ) P =.~ P / 2.5.6.6.7.8.8.8.8.6.8...5.o.3.O.6.8.7.8.8.8.5.5.5.5.5.;.L T ~ =.P %.! J n L ! ! %.*.) J L ! ",
"  . .   O     O   . .   X . # ^  .,.5.5.2.6.6.8.8.w.7.6.5.o.5. .,.5.,.8.3.8.8.8.5.5.5.5.5.3.>.T o.+   .   . . . O     O   . .   ",
"O : - O > @ @ 3 O - 3 O 3 - - U 1.1.6.3.6.6.6.8.8.8.2.8.-.<.1. .2.3.;.8.6.7.8.8.5.5.5.5.5.2.1.,.T - ; 3 O : - O 3 @ @ 3 O - : . ",
"  O O   - . . -   O O   - .   q 1.1.3.6.3.6.6.w.8.8.3.7...5.3.o.<.5.2.3.8.6.w.8.5.5.5.5.5.3.1.1.q     -   @ O   -     -   @ O   "
};
