/* XPM */
static char *wall_moon_2[] = {
/* columns rows colors chars-per-pixel */
"64 64 209 2 ",
"   c #010102",
".  c #03060A",
"X  c #06080C",
"o  c #090B0D",
"O  c #050A11",
"+  c #090E14",
"@  c #040D1C",
"#  c #080E1C",
"$  c #040610",
"%  c #0E1115",
"&  c #0A121C",
"*  c #101317",
"=  c #12151A",
"-  c #14191E",
";  c #080D23",
":  c #0A0F28",
">  c #070F24",
",  c #031122",
"<  c #0B1522",
"1  c #0E1927",
"2  c #04172E",
"3  c #0B112B",
"4  c #101723",
"5  c #141A22",
"6  c #181E25",
"7  c #121C2C",
"8  c #041A34",
"9  c #0A1D36",
"0  c #0A1939",
"q  c #081735",
"w  c #131F30",
"e  c #1B2127",
"r  c #1B232D",
"t  c #16212E",
"y  c #0B203B",
"u  c #122032",
"i  c #1B2431",
"p  c #1A243A",
"a  c #1C293B",
"s  c #17263A",
"d  c #21272E",
"f  c #21282F",
"g  c #212730",
"h  c #232B34",
"j  c #232E3C",
"k  c #26313C",
"l  c #2A323C",
"z  c #151F59",
"x  c #0C2644",
"c  c #1C2C43",
"v  c #1F3045",
"b  c #1D3149",
"n  c #15245D",
"m  c #0E2458",
"M  c #222E48",
"N  c #203146",
"B  c #2C3642",
"V  c #2E3844",
"C  c #22354D",
"Z  c #26394F",
"A  c #2C3B4E",
"S  c #2A314D",
"D  c #313A46",
"F  c #333E4A",
"G  c #3D3F43",
"H  c #213651",
"J  c #243A55",
"K  c #243B58",
"L  c #2B3E59",
"P  c #2C3B53",
"I  c #313F50",
"U  c #303B5D",
"Y  c #152363",
"T  c #182565",
"R  c #19266B",
"E  c #1B286F",
"W  c #162967",
"Q  c #1B2A76",
"!  c #1D2C7A",
"~  c #212D6E",
"^  c #203461",
"/  c #243F60",
"(  c #333E61",
")  c #202F7E",
"_  c #2B3B76",
"`  c #21307F",
"'  c #2A3876",
"]  c #323D7A",
"[  c #36414E",
"{  c #38424F",
"}  c #2E435C",
"|  c #354253",
" . c #394552",
".. c #3D4956",
"X. c #33455B",
"o. c #35485E",
"O. c #3D4B5B",
"+. c #274261",
"@. c #294364",
"#. c #2A4669",
"$. c #2C496C",
"%. c #354A63",
"&. c #3C4D63",
"*. c #324A6F",
"=. c #3A4E6A",
"-. c #364469",
";. c #3D5066",
":. c #3A516C",
">. c #2F4E74",
",. c #2D4575",
"<. c #3E4676",
"1. c #304F76",
"2. c #3A4B73",
"3. c #3A477B",
"4. c #305077",
"5. c #3D5572",
"6. c #32537B",
"7. c #414E5D",
"8. c #43505F",
"9. c #4A5059",
"0. c #535558",
"q. c #404D60",
"w. c #445365",
"e. c #43566C",
"r. c #495768",
"t. c #45586E",
"y. c #4A596A",
"u. c #525768",
"i. c #434C75",
"p. c #425772",
"a. c #445B75",
"s. c #4A5D75",
"d. c #42517D",
"f. c #465D7B",
"g. c #4B5F78",
"h. c #555A75",
"j. c #4B617C",
"k. c #56677A",
"l. c #59697D",
"z. c #6A6D73",
"x. c #666B76",
"c. c #6A727D",
"v. c #727272",
"b. c #797A7C",
"n. c #636364",
"m. c #223180",
"M. c #263C83",
"N. c #2B3C81",
"B. c #283D8A",
"V. c #2E4885",
"C. c #374A89",
"Z. c #355984",
"A. c #375C88",
"S. c #3D538F",
"D. c #344D91",
"F. c #355399",
"G. c #3C549D",
"H. c #3A53A4",
"J. c #445482",
"K. c #4A5A8B",
"L. c #465A85",
"P. c #4F5E92",
"I. c #435992",
"U. c #4A6382",
"Y. c #4B6588",
"T. c #5A6B80",
"R. c #5B6E89",
"E. c #556B85",
"W. c #5B728F",
"Q. c #4E6396",
"!. c #4E6499",
"~. c #566C94",
"^. c #566E9C",
"/. c #52649B",
"(. c #5D7591",
"). c #6E7681",
"_. c #68778E",
"`. c #647B9A",
"'. c #647591",
"]. c #727C88",
"[. c #435DBD",
"{. c #425BB4",
"}. c #4E67A1",
"|. c #5B6EAA",
" X c #586AA4",
".X c #5F78A2",
"XX c #617BA5",
"oX c #6374AF",
"OX c #6679BB",
"+X c #526BC9",
"@X c #5A73CB",
"#X c #4C65C4",
"$X c #657DD6",
"%X c #67809E",
"&X c #6C86A6",
"*X c #6983A9",
"=X c #6D89AC",
"-X c #6781A8",
";X c #728EAF",
":X c #7288A2",
">X c #768BD7",
",X c #6D82C9",
"<X c #7D93E3",
"1X c #848484",
"2X c #8B8B8B",
"3X c #989898",
"4X c #959595",
"5X c #8299EC",
"6X c #8097E9",
/* pixels */
"  , .   ,   . @   @ $ . Y Q ! R Q ! R Q ! R Q ! R Q ! R Q ! R Q ! R ! ! R Q ! R Q ! R Q ! R ! ! R Q ! Y . . @   @ .   ,   . @   ",
". 2 , @ 8 , , 8 @ 8 , , E R ! Q R ! Q W ! Q R ! Q R Q Q R ! Q R ! Q R ! Q R ! Q E ! Q R Q Q R Q Q R ! E > , 8 O 8 , , 8 , , 2 $ ",
"J / b J #./ K } b b c ^ ! ! m.! ! m.! ! m.! ! m.! ! m.! ! m.! ! ) ! ! m.! ! m.! ! m.! ! m.! ! m.! ! ! ! ^ b b H / K +.#.J b / J ",
"1.$.+.>.Z.Z.>.>.$.} K V.R Q ! R Q ! R Q ! R Q ! R Q ! R Q M._ V.N.] ' ! R Q ! R Q ! R Q ! R Q ! R ! ! R V.K K $.1.>.Z.Z.>.@.$.>.",
"@ y & & x & 1 y + 9 , E Q R ! Q R ! Q R ! Q R ! Q R ` I.XX=X;X;X;X;X=X.XS.Q ! Q E Q Q E ! Q E Q Q R Q Q Y , 9 + y < & x , & y @ ",
". 8 @ @ 8 @ @ 2 $ 8 , ! ! ! m.! ! m.! ! m.! ! m.m.!.*X;X;X;X;XE.E.;X;X;X;X-X^.` ! m.! ! ) ! ! ) ! ! m.! Q , 2 $ 2 @ @ 8 @ @ 2 . ",
"                    $ ! R Q ! R Q ! R Q ! R ] !.=X;X;X;X'.| @ O @ & | (.;X;X;X=XQ.N.R Q ! R Q ! R Q ! R ! $                     ",
"  7.k   l % c i h @ z Q Q R ! Q R ! Q R ) C.;X;X;X;X(.u % O o O O . O % r W.;X;X;X=XS.E Q Q E ! Q E ! Q R T @ h i a = l   k 8.  ",
"- k j.     .P h   # ! m.! ! m.! ! m.! ! XX;X;X;Xs.j O O O O O O O O O o O O k s.;X;X;XXXm.! ) ) ! ! m.! ) m.#   h | ..    j.k - ",
"[ X C 8.o - W..   # Q ! R Q ! R Q ! ' &X;X;X%XX.O O O X O O O O O O . Q.w O $ O | &X;X;X-X' Q ! R Q Q R Q Q #   . W.- . 8.C . [ ",
"l r f.*   % W..   @ R ! Q R ! Q R ` -X;X;X(.< O O O -.4 O O O X O O p OXd.$ O $ O < W.;X;X&XE ! Q R Q Q R Q #     W.%   % j.r l ",
"  ..5.    { P h   # ! m.! ! m.! ! XX;X;Xj.% X O O P >X|.4 O O O O . -.5X>XO O $ O O O k.;X;XXXm.! m.m.! ) m.#   h K  .    p.7.  ",
"  w.}   ..i c D l @ Q ! R Q ! R /.;X;X(.+ 4 7 O X O <.7 O O O O K.OX<X5X5X<XP.P X O O + (.;X;X/.R Q ! R ! ! @ l A a r ..  } w.  ",
"X [ &.  = O.L D . ; R ! Q R Q N.=X;X%X4 + d.K.+ O O & + O O O O i K.<X5X5X>Xa 5 O O O X 5 `.;X;XN.R Q Q R Q @ . D } O.*   ;.[   ",
" .o X.V X h `.+   ; ! m.! ! m.XX;X;Xi + K.5X5XP.# O O O O O O O O O ( 5X>XO O O O O O O O i ;X;X!.! m.! ! m.#   % (.h X D X.o { ",
"..- | l   * `.$   # Q ! R Q ! =X;Xg.O O O J.K.+ o O O O . O O O O O i OX3.O O O O O O O O O s.;XP.Q ! R ! ! #   O %X*   l X.4 ..",
"  V |   .  .%.k   # R ! Q R ! =X=X4 O O O 1 7 O O O O X O O O O O O O L 1 . O O O O O O $ # A ;X}.R Q Q R ! @   k %. ..   I D   ",
"  y.}   7.j c | B ; ! m.! ! m.=X=X< < + O O X O O O O O O O & 1 1 & O O O O O O O O O O O < A ;X!.m.m.! ! m.; B I c j 7.  X.y.  ",
"  [ o.  %  .L V   ; Q ! R Q ! =X&X< < & O O O O O O O O & c J K K J a & O O O O O O O O < < A ;X!.Q ! R Q ! #   D L ..%   o.{   ",
" .e t.e   5 j.O   ; R ! Q R ! =X&X< < < & O O O O O + s J J J K K K K J s O o O o O O & < < A ;X!.R Q Q R ! ;   + g.5   e p.6  .",
"{ . X...o 4 W.O   ; ! ) ! ! m.=X&X< < < 1 & O O O # b K K K J K K K K K K H @ O O O & < < < A ;X!.m.m.! ! m.;   X W.4 . ..@.o { ",
"% [ L.    F =.6   ; Q ! R Q ! =X*X& < < < 7 # O # H K K K K K K K K K K K K C & O & < < < < A ;XP.Q ! R Q Q ;   6 =.[     j.D * ",
"  l.X.  F B H | h ; R ! Q R ! =X&X< < < 1 /.p + c K K K K K K K K K K K K K K c # < < < < < A ;X!.E Q Q E Q ; g | H B F   X.l.  ",
"  8.=.  d &.C q.% ; ! m.! ! m.=X&X< < 1 J.6X^.9 K J K K K K K K K K K K K J K K 7 < < < < < A ;X}.! m.! m.m.; + &.C &.h   &.8.  ",
"..- a.h   k U.=   @ Q ! R Q ! =X&X< < < < Q.i w K K K K K K K K K K K K K K K K w < 7 c < < A ;X!.Q ! R Q ! #   = U.k   h a.5 ..",
"..% %. .. B Y..   ; R ! Q R ! *X&X< < < < < < w K K K K J K K K K K K K K K K K w < 2./.< < A ;X!.R Q Q R Q ;   $ U.V . { %.% ..",
"o l 5.  . w.L.&   ; ! m.! ! m.=X&X< < < < < < u K K K K K K K K K K K J K K K K 9 L.5X5X Xw A ;X!.! ) ! ! m.;   # L.r.    e.l o ",
"  w.Z % 7.- K q.= ; Q ! R Q ! =X=X< < < < < < u K K K K K K K K K K K K J K K K w 1 J. X1 < A ;X!.Q ! R ! ! ; = 7.K - O.% Z w.  ",
"  O.o.  l A =.V   ; R ! Q R ! =X&X< < < < < < w K K K K K K K K K K K K K K K K w : 7 b < < A ;X!.E ! Q R ! ;   V =.V l   %.O.  ",
"l d j.*   { Y.O   ; ! ) ! ! m.=X&X< < < < < < u K K K K J K K K K K K K K K K K w < < < < < A ;X!.! m.! ! ) ;   O Y. .  = j.r V ",
"{ o Z w.. h f..   ; Q ! R Q ! =X&X< < < < < < u K K K K K K K J K K K J K K K K w < < < < < A ;X!.Q ! R ! ! @   . f.h X w.Z o { ",
"d l e..   [ a..   ; R ! Q R ! =X&X< < < < < < u K K K K K K K ,.D.K K K K K K K w < < < < < A ;X!.R Q Q R Q ;   $ p.F   X e.l r ",
"  k.5.o D V L  .O : ! m.! ! m.=X=X< < < < < < 9 K K K K K K K / ,.K K K K K K K u < < < < < A ;X!.) ` ) ! ) ; o  .L B D o 5.k.  ",
"  y.o.o  .r @.O.+ ; Q ! R Q ! =X&X< < < < < < w K K K K K K 1.S.F.K K K K J K K u < < < < < P ;X!.Q Q R Q ! ; o 7.@.d  .O o.y.  ",
" .r a.5   O.=..   ; R ! Q R ! =X&X< < < < < < w K K K K K K }.{.I.K K K K K K K u & < < < < A ;XQ.E Q Q R ! ;   . e.o.  - p.r { ",
"F . } q.X V e.X   ; ! m.! Q m.=X&X< < < < < < w K K K K K K ( [.@X,.K K K K K K u < < < < < A ;X!.) ` ! ! ) ;   . e.V $ 8.} o F ",
"- l j..   F U..   ; Q ! R Q ! =X&X< < < < < < w K K K K K K #.+X[.{.*.K K K K K u < < < < < P ;X!.Q ! R Q ! @     U.[   . j.B - ",
"  w.X.  f | :.l   ; R ! Q R ! =X&X< < < < < < w K K K K K K ,.#X$X[.2.K K K K J u < < < < < A ;X!.E Q Q E Q ;   l :.| f   X.w.  ",
"  7.:.= 7.t N O.- ; ! m.! ! m.=X&X< < < < < < w K K K K K K H.+X@XH.J K K K K K u < < < < < A ;X!.! m.! ! ) > - w.c u 7.% =.7.  ",
"r l t.. o  .Y.%   ; Q ! R Q ! =X&X< < < < < < w K K K K J J G.[.oXl.e.K K K K K u < < < < < A ;X!.Q ! R ! ! ;   % Y. .o X r.l r ",
"{ . N y.o [ U..   ; R ) Q R ! =X&X< < L < < < w K K K K K w.c.S 9.v.x.K K K K K w < < < < < A ;XQ.E ! Q R ! ;     U.[ . y.N . { ",
"l d t.O   O.7..   : ! m.! ! m.=X=X< p ,Xd.1 < w K K K K J c.b.v.1X3X).K K K K K w < < < < < A ;X!.! ` Q ! m.;   . 8.O.  o t.f l ",
"  7.X.  l l o.B   ; Q ! R Q ! =X&Xp |.6X<X-.< w K K K K K ).3X3X3X3X).K K K K K w < < < < < P ;X!.Q ! R ! ! ;   V o.l l . | 7.  ",
"  7.B % ..r C 7.= ; R ! Q R ! =X&X< <  XH < < w K K K K K ).3X1X3X3X).K K K K K w 1 3 w < < A ;XQ.Q Q Q Q Q ; * O.Z t O.% C 7.  ",
"O B a.    w.f.X   : ! m.! ! m.=X*X< < c < < < w K K K K K c.3Xb.2X3X).K K K K K w < K.3.1 1 A ;X!.! ` ! ! ) ;   o a.w.    a.l % ",
"{ % X.{ . l ;.    ; Q ! R Q ! =X=X< < < < < < w K K J K K b.3Xb.b.2Xw.K K K K K w < |.|.1 < A ;X!.Q ! R Q ! ;     ;.j X { X.% [ ",
" .5 p.r   i s.X   ; R ! Q R ! =X&X< < < < < < w K K K K K c.4Xv.v.v.o.K K K K K w < c M < < A ;X!.E Q Q E ! ;   X j.i   r t.5  .",
"  r.5.  % r.Z D   : ! m.! Q m.=X&X< < < < < < < w w w t p v.2Xv.v.v.B 7 w w w w 1 < < < < < A ;X!.! ` ! ! ) <   D Z r.%   5.w.  ",
"  l.X.. ..6 c D l ; ! ! R Q ! =X&X< < < < < & + O O O O 0.v.b.v.v.v.n.0.& X O O O & < < < < A ;X!.Q ! R Q Q ; l D v e O.. X.l.  ",
"= V a.  o y.} l   : R ! Q R ! =X&X< < < & # O X O O . [ v.z.v.v.v.v.v.v.- O O O O O @ & < < A ;X!.E ! Q Q ! ;   l } w.X   p.D - ",
"[ X A O.X r %Xo   : ! ` ! Q m.=X=Xa h a i r t t r r t 0.9.9.9.z.v.v.0.a r r r t r r t r a j o.;X!.! ! ! ! ! ;   . %Xf X O.A . [ ",
"D r U.=   6 R..   ; Q ! R ! ! =X;X;X;X;X;X;X;X;X;X;X;X;X;X;X;X:Xv.v.].;X;X;X;X;X;X;X;X;X;X;X;X;XQ.! ! R Q ! ;   . W.6   - j.r D ",
"  = 6     = & .   $ 3 Y Q R ! ^./.^.^.~.^.^.Q./.^.~.^.^.~._.'.~.R.v.x.^.^.~.^.^.~.^.^.~.^.^.~.^.S.E ! ! z q .   . % =     6 %   ",
"            .     .   3 ! Q m.! Q m.! Q m.! Q m.! ! ` ! Q h.x.Q 3.v.y.m.! Q ` ! ! ) ! ! ) ! ! ` ! ! ! ! :   .     .             ",
"@ 2 O 2 @ O 8 O @ 2 $ , R Q ! R Q ! R Q ! R Q m.R Q ! R Q h.x.! ' v.i.! R Q Q R Q ! R Q ! R Q ! R ! ! Y , $ 2 , O 8 O , 2 O 2 , ",
". ,   , O   2 . . ,   @ m E ! Q R m.Q R ) Q R Q Q E ! ! E _ i.R ` h.~ ) Q E ! Q Q ! Q E ! Q E ! Q E ! m #   , O . 2   O @   , . ",
"O O O                   # Q ) Q Q m.Q Q m.Q Q m.Q Q m.! Q m.! i.] ) Q m.! Q m.Q ! ` ! Q ) ! Q ` ! ! ! @                   O O O ",
"4.$.+.K +.+.J J H c b K K M.! R Q m.R Q m.R Q m.R Q ! R Q ! R h.<.T Q Q R Q ! R Q ! R Q ! R Q ! R ! M.K K b c b J J +.+.K +.$.4.",
"4.$.@.6.A.A.>.$.#.K @.4.6.V.) ! R m.m.R Q Q R m.Q E ! Q E ! Q E ) Q E ) Q E ) Q E ! Q E ! Q Q ! Q E 6.6.>.@.K $.$.>.Z.A.6.+.$.4.",
"4.$.K 6.A.Z.>.$.#.K @.>.6.#.V.Q Q m.Q Q m.Q Q m.! Q m.! Q m.! Q m.Q Q m.! Q m.Q Q ) ! Q ) Q Q ` ! M.$.6.>.@.K #.$.>.Z.A.6.} #.1.",
"1.$.} 1.A.Z.>.$.#.K @.1.6.>.F.R Q ! R Q ! R Q ! R Q ! R ! ! R Q ! R Q Q R Q Q R Q ! R Q ! R Q ! R F.,.6.1.@.K #.$.>.Z.A.1.+.$.>.",
"    .   O     O . . .   $   O E E ! Q R m.Q E ! Q E m.Q R ! Q E m.Q E ) Q Q ) Q Q ! Q Q ! Q Q ! Q $   .   . . . O .   $   .     ",
"$ 2 , O 8 , @ 8 O , 2 O 8 , , W Q m.Q Q m.Q Q m.Q Q m.Q Q m.Q Q m.Q Q m.Q Q m.Q Q ! ! Q ) Q Q ) W , , 8 $ 2 , O 8 @ , 2 O , 8 . ",
"  O O   ,   . ,   $ O   , .   0 Q ! R Q ! R Q ! R Q ! R Q ! R Q ! R Q ! R Q ! R Q ! R ! ! W Q ! 0     ,   @ O   ,   . ,   O O   "
};
