/* XPM */
static char *wall_moon_3[] = {
/* columns rows colors chars-per-pixel */
"64 64 121 2 ",
"   c #010102",
".  c #03060A",
"X  c #06090C",
"o  c #090B0E",
"O  c #030A13",
"+  c #090D12",
"@  c #020E1B",
"#  c #0D1115",
"$  c #03101F",
"%  c #0C131B",
"&  c #101317",
"*  c #11161B",
"=  c #14191E",
"-  c #031122",
";  c #0A1523",
":  c #0F1924",
">  c #04172D",
",  c #04182F",
"<  c #101720",
"1  c #121922",
"2  c #181E25",
"3  c #151E28",
"4  c #041A34",
"5  c #091E36",
"6  c #051C38",
"7  c #1B2127",
"8  c #16212E",
"9  c #1D242D",
"0  c #0B213B",
"q  c #1C2631",
"w  c #18283C",
"e  c #21272E",
"r  c #21282F",
"t  c #232B33",
"y  c #242F3C",
"u  c #27303B",
"i  c #2A323C",
"p  c #0D2644",
"a  c #1C2E44",
"s  c #1F3044",
"d  c #1D3149",
"f  c #1D3859",
"g  c #223143",
"h  c #2C3641",
"j  c #2E3844",
"k  c #23364C",
"l  c #24384F",
"z  c #2A394B",
"x  c #313B46",
"c  c #333E4B",
"v  c #213752",
"b  c #243A54",
"n  c #2C3E54",
"m  c #253D5A",
"M  c #243F62",
"N  c #37424E",
"B  c #38424F",
"V  c #2D425B",
"C  c #364352",
"Z  c #394552",
"A  c #3D4956",
"S  c #32455C",
"D  c #36485E",
"F  c #3E4B5B",
"G  c #274162",
"H  c #284364",
"J  c #2B4769",
"K  c #2D496B",
"L  c #304661",
"P  c #354A64",
"I  c #3B4E64",
"U  c #344D6E",
"Y  c #3A4F69",
"T  c #3E5166",
"R  c #39506C",
"E  c #2F4E73",
"W  c #344F71",
"Q  c #345073",
"!  c #3C5574",
"~  c #3F5876",
"^  c #32537B",
"/  c #414E5D",
"(  c #43505F",
")  c #404F60",
"_  c #455464",
"`  c #43556B",
"'  c #495768",
"]  c #44586F",
"[  c #4A596A",
"{  c #415770",
"}  c #415976",
"|  c #4A5E75",
" . c #445C7A",
".. c #485F7C",
"X. c #4A617E",
"o. c #54667B",
"O. c #596B7F",
"+. c #365983",
"@. c #3D5C82",
"#. c #375C88",
"$. c #3D6391",
"%. c #405D82",
"&. c #4E6481",
"*. c #4E6886",
"=. c #486588",
"-. c #506782",
";. c #566B86",
":. c #586C85",
">. c #576D88",
",. c #596E89",
"<. c #5D728B",
"1. c #406694",
"2. c #61758E",
"3. c #637790",
"4. c #667992",
"5. c #6B7E95",
"6. c #627B99",
"7. c #6D8097",
"8. c #6E8199",
"9. c #72849A",
"0. c #6C84A0",
/* pixels */
"  @ .   -   . O   @ .   U !  .>.;.:.2.2.2.2.2.5.5.5.2.<.4.<.{ &.! ,.5.,.,.5.5.5.2.2.2.2.2.:.;.;.;.} { M   . @   @ .   -   . $   ",
". 4 - @ 6 $ - 6 O 6 - : ! !  .>.;.;.2.2.2.2.2.5.4.5.5.4.4.2.&.{ -.<.,.;.,.<.,.<.<.<.2.2.2.2.;.;.;.{ } } ; - 6 O 4 - $ 6 $ $ > O ",
"f M d b J G m M f a a m U !  .>.;.;.<.;.-.;.;.5.5.5.<.<.5.4.&. .;.<.<.3.,.5.5.5.;.;.&.-.:.,.;.;.;.Q M } m d d v M m M K b d f m ",
"E K H E +.+.E ^ J m m @.! U ! .. .&.;.2.2.2.2.5.5.<.5.5.5.5.4. .-.5.5.5.5.2.3.5.2.2.2.2.2.&.;.&.%.} Q } @.m m K E E +.+.E H K ^ ",
"% 0 - % p % ; 5 + 5 ; U ! ! ..>.;.:.2.2.2.2.2.4.,.5.5.5.<.;.&. .<.-.;.2.5.5.5.,.2.2.2.2.2.<.:.;.;.{ M %.U ; 5 + 5 ; % p $ ; 0 % ",
". 4 @ @ 6 O @ > O > ; R ! !  .>.;.;.2.2.2.2.;.4.5.5.<.} -.-. .{ } -.-. .&.4.5.5.;.:.2.2.2.2.;.;.;.{ { } R ; > O , @ @ 4 @ O , . ",
"                    + ! ! !  .:.;.;.2.2.<.-.2.5.5.&.%.5.5.;.;.&.;.2.5.4.&.} 2.5.2.-.-.<.2.<.;.;.;.} M } } # X                   ",
"  / u   h # a e t + P ! ! !  .>.;.;.2.;.&.2.2.2.&.-.2.;.;.5.5.-.4.5.;.-.3.,.%.<.2.2.<.&.2.<.;.;.-.} %.} } m + t e a * i   g /   ",
"= u X.  . Z n t   % U ! ! !  .>.-.;.-.,.2.2.,.%.<.2.:.2.9.9.5. .<.9.5.5.;.<.<.%. .2.2.2.&.-.;.;.>.! ! ! ! K %   t n Z .   ..u = ",
"c X k / . < <.X   @ J ! ! !  .;.&.&.<.2.<.&.{ 4.<.;.4.5.9.9.5.&.5.5.5.5.5.;.>.4.}  .,.2.2.;.&.&.>.! ! ! U H +   . <.= . ( k X c ",
"x 9  .&   # <..   % M K U U ! &.;.;.<.;.} } <.<.;.5.4.<.2.<.<.,.5.;.2.<.2.5.-.;.2.%.R -.2.<.;.-. .U U W J M %   . <.%   # | e i ",
"  A {     Z n t   + M K ! !  .>.:.&. .} &.2.;.;.5.2.<.;.} -.2. .-.;.} ;.<.<.5.;.&.2.&.} } -.:.<.;.! ! W M M %   t n B     { /   ",
"  _ V   A q a x u % H M J K U } U U  .<.<.&.&.5.<.&.%.,.<.,.;.&.-.;.<.:. .&.&.3.&. .2.2.&.M M %.W U U M M K * u x a 9 A   V `   ",
". c I   * F n c X < ! H M H H U  .&.<.;.&.;.2.:.} &.4.5.-.&.4.,.5.<.%.;.4.-.{ &.,.<.&.&.2.,.&.M U M J H U ! % X x V F *   I c . ",
"B o S x . t 6.+   * ! ! U K W -.-.%.-.2.2.2.&. .,.5.5.<.;.5.<.4.<.3.3.&.4.5.2. .} ;.2.<.;.;.;.;. .J U W ! ! %   # 6.t . x S X B ",
"A 1 C u   % 8.+   * ! ! ! !  .;.;.:.2.2.<. .{ 2.5.5.2.-.<.2.5.5.5.5.3.&.<.4.5.2.} { ;.2.2.<.;.;.-.! ! ! ! ! *   + 8.&   u S = A ",
". x C   . Z U u   * ! ! ! !  .>.>.;.2.2...W %.5.5.5.,.&.5.,.2.&.;.5.,.;.;.2.5.5.&.{ %.;.2.<.,.;.:.! ! ! ! ! <   i P Z .   c j . ",
"  ' V   / y a N h < ! ! ! !  .>.;.>.2... .o.3.9.4.;.,.:.5.;. .5.<.;.,.5.-.4.;.5.2.-.{ &.;.<.;.;.;.! ! ! ! ! 1 h C s y /   S '   ",
"  B D   # A V x . * ! ! ! !  .>.;.;.-...! 2.2.<.<.;.;.5.5.,.&.5.2.&.4.5.2.-.,.;.;.2.} Q &.;.,.;.;.! ! ! ! ! * . x V Z &   D N   ",
"Z 2 ] 7   1 o.+   1 ! ! ~ !  .>.>...&.W -.2.-.-. .2.5.5.9.5. . .} -.5.5.5.4.&.&.&.&.;.{ { &.-.,.;.! } ! ! ! <   + o.1   7 { 2 Z ",
"Z X S F X 1 <.+   * ! ! ! !  .:.&. .! ! <.X...<.2.<.2.4.9.9.5.} &.5.9.5.2.<.<.2.&.&.&. .R } %.-.;.! ! ! ! ! <   + <.1 . F V X Z ",
"# c  .    c Y 2   < ! ! ! !  .-.%.} W -.-.X.o.2.5.5.5.2.2.9.5.-.4.5.4.2.5.5.5.4.&.%.R -.U { &. .;.! ! ! ! ! *   2 R c     X.c # ",
"  O.S   c h b Z t < ! ! ! ! } &.X.U } -.} ,.2.5.5.5.5.5.5.5.9.5.9.5.4.5.5.5.5.5.2.2.&.%.%.U { &...! ! ! ! ! 1 t Z b h c   S O.  ",
"  / Y   e I k / # < ! ! ! ! ! ..{ R 2.} } 2.3.3.<.5.5.4.5.4.5.9.9.2.5.2.5.5.5.;.2.2.<.Y <.} !  ...U ! ! ! ! < & / k I t   I /   ",
"A 1  .r   u *.&   1 ! ! U U }  .U %.<. .} 2.2.5.5.5.5.5.4.2.5.9.9.2.4.5.5.5.5.5.2.2.<.R ;.;.U  . .! U R ! ! *   * *.u   r  .1 A ",
"A # P B . h *.o   % U U ! W } ! } ;.-. .&.<.-.&.4.5.5.5.5.5.2.5.5.2.2.5.5.5.5.2. .-.<. . .<.%.U  .U ! Q U W %   X *.h . B I # A ",
"o i {     ` X.#   1 ! ! ! U ! W ;.:.&.} &.<.2.2.-.&.;.&.:.5.2.9.9.2.2.-.&.&.&.-.<.<.-...} ,.>.} ! ! U ! ! ! :   # X.` .   { i X ",
"  _ z & / : b _ * % ! U U ! K &.:.-.&. .;.2.2.5.5.4.;.5.9.5.2.9.5.5.5.5.2.;.5.5.2.2.-.2.R ;.;.;.W K ! U U ! 1 * I n % / # z _   ",
"  F D   u c R j   : U ! ! K } :.;.&.-. .<.;.2.5.5.-.,.4.5.5.2.5.5.5.9.5.;.;.<.5.2.2.-.2.{ %.;.>.-.H W ! ! U %   x Y c u . D F   ",
"h 9 X.&   C *.o   * ! ! J K  .>.:.%.%. .<.-.2.5.5.5.-.5.9.9.4.9.5.5.9.5.4.&.5.5.2.<.&.:.U } >.>.>.U J U ! ! 1   X *.B   & X.9 j ",
"N o l _ X t X.X   % H H U !  .>.:.%.| U 2.} 2.5.5.5.&.5.9.9.4.9.4.5.5.5.5.-.5.5.2.:.X.-.} } >.:.:.! U J G K %   X &.t X _ l o N ",
"e u ` .   c | X   % U ! ! !  .>.;.} ;.{ <.} <.5.5.5.&.5.9.9.2.5.4.5.5.5.4.-.5.5.2.:.-.%.} ....>.>.! ! ! U ! 1   X | c   . ` u 9 ",
"  o.! o j z V C + < ! } ! ! ..;. .&.;.&.&...;.5.5.5.-.9.9.9.5.5.4.5.9.5.5.-.5.5.2.} &.{ &.&.&.-.-.! ! ! ! ! 1 o c n z j o ! o.  ",
"  [ D o Z 9 S F + 1 ! ! ! !  .;. .&.;.;.|  . .5.5.5.<.5.9.9.5.5.9.5.9.9.5.2.5.5.-.&.%.&.&.&.&.-.;.! ! ! ! ! 1 + / P 9 Z o D [   ",
"B 9 { 1   F T +   = ! ! ! !  .-.&.&.;.;.-.} ..4.5.5.5.9.9.9.5.<.4.5.5.5.5.5.5.5.-.&.} <.&.&.&.&.:.! ! ! ! ! 1   + ` I   1 | e B ",
"c X V _ X j ] X   1 ! ! ! !  ...;.&.;.;.<.&.&.;.5.5.5.5.9.5.3.<.2.<.5.5.5.5.5.5.&.! :.2.-.&.:.&.:.! ! ! } { 1   X ` h X / n X c ",
"= i &..   c &..   1 ! ! ! !  ...;. .:.;.2.;.&.;.5.5.5.5.9.5.5.5.5.2.5.5.5.9.5.,.:.| 2.2.&.&.;.&.-.! ! ! ! ! 1   . &.c   . X.h = ",
"  _ S   e C R i   1 ! ! ! ! ! ;.;.&.<.-.2.<.%.<.-.5.5.5.9.9.5.5.5.9.9.5.5.5.2.;.&.&.2.2.&.&.;.;.&.! ! ! ! ! 1   i R C e   S _   ",
"  / Y * / 8 g F = 1 ! ! ! ! ! >.;.&.;.;.2.2.-.;.-.-.5.9.9.9.5.5.2.5.9.5.5.4.} ;.%.2.2.2.;.&.;.;.&.! ! ! ! ~ 1 = / s 8 / * Y /   ",
"9 u ] . o C *.#   1 ! ! ! U  .;.;.&.:.;.2.2.2.&.2.%.5.5.9.5.5.9.9.9.5.5.5.-.%.,.&.2.2.2.&.-.&.;.-.U ! ! ! ! 1 X + *.Z o X ] i 7 ",
"B X g [ X N &.    1 ! ! ! U  .>.;.&.;.;.2.2.2.&.4. .} -.5.5.5.9.9.9.9.4.&.{ ;.;.,.2.2.2.-.:.&.;.>.Q Q ! ! ! 1     &.N X ' g X N ",
"u e ] +   F I .   1 ! ! U !  .;.&.&.;.<.2.2.2.2.;.;.{ { -.5.5.5.9.5.<.&.{ %.5.%.3.2.2.2.;.:.&.;.;.! R ! ! ! 1   . _ F   o ] 9 i ",
"  / C   u i P j   2 ! ! W !  .:.&.;.&.2.2.2.2.5.;.4.%.{ } ! &.;.;.%.{ { } ,.4.;.2.2.2.2.:.;.-.&.;.! ! U ! ! 1   h S i y   C /   ",
"  / z + F 9 k F & 1 U W } !  .X.&.;.-.2.2.2.2.5.&.5.-.{ } ! ! ! { } Q { } 4.3.,.2.2.2.2.<.-.:...-.! ! ! U ! 1 & F b q F & k /   ",
"+ h }   . _  .X   1 ! ! ! { %.&.;.&.:.2.2.2.2.5. .5.2.} } } { } { Q } } -.5.3.3.2.2.2.2.2.&.;.;.X.! ! ! ! U 1   o  ._     } h + ",
"B + S N . u T     1 ! ! ! ! R -.;.&.2.2.2.2.4.5.%.5.5. .&.-.&.-.%.-.2.} ,.5.2.4.2.2.2.2.2.-.&.;...! ! ! ! ! :     _ y . Z S + B ",
"A 1 ] 9   9 | X   1 } ! ! ! ` ;.&.;.2.2.2.2.2.5.&.5.5.&.&.5.9.9.5.9.2.&.4.5.3.2.2.2.2.2.2.<.&.;.>.U ! ! ! ! 1   X | 9   9 ] 2 Z ",
"  _ !   # ` z x X : ! } } M %.-.&.;.2.2.2.2.4.5.&.5.5.;.%.5.9.5.5.9.-.;.5.5.3.-.2.2.2.2.2.<.-.%.;.! U ! ! ! 1   x l ` #   ! _   ",
"  O.S   / 2 s x i 1 ! ! U ! } ..;.;.2.2.2.2.2.2.&.5.5.2.} -.5.5.5.,.} :.5.5.2. .2.2.2.2.2.<.;.-. .! ! U ! ! 3 u x s 3 / . S O.  ",
"* x |   X ` V u   1 U U ! U ! :.,.;.2.2.2.2.2.&.;.5.5.4.{ { %.-.&. .} <.5.5.5.%.,.2.2.2.2.<.,.,.-.U ! R U R 1   i V ' X   } x * ",
"B . b / X 9 0..   1 ! ! U W  .;.,.;.2.2.2.2.2. .5.5.5.5.;.&.:. .<.&.<.<.5.5.5.;.X.2.2.2.2.,.;.;.>.! U U ! Q *   X 8.q X A n . N ",
"c 9 X.*   2 >.o   * K W ! !  .;.;.;.2.2.2.2.-.%.5.5.5.4.2.} ;.&.<. .4.3.5.5.5.5.U 2.2.2.2.<.,.;.;.! ! ! U U :   X >.2   = X.9 x ",
"  & 3     * % .   X q n ! !  .>.;.;.2.2.2.<.{ ;.5.5.5.5.4.} &.} }  .5.<.5.9.5.5.R &.2.2.2.,.,.,.;.! ! ! V 9 +   X % *     2 #   ",
"            .     .   3 ! !  .>.,.;.2.2.2.&.U 4.9.5.5.5.2.} ;.-.;. .5.<.5.5.5.5.%.R :.2.2.<.;.;.;.! ! ! 3                       ",
"$ > O > @ O 6 O @ > + - ! !  .>.;.,.2.3.;.{ -.5.5.5.5.5.2.-.;.9.4. .5.2.5.5.5.5.<.{ } 2.2.<.;.:.;.! ! Q - O > - O 6 O $ > O > $ ",
". -   @ O   >   . -   @ f !  .>.;.;.2.3.} M 2.5.5.9.9.5.4.-.%.5.&.%.5.<.5.5.5.5.2.-.Y %.2.<.,.;.;.! ! f @   - .   >   O $   - . ",
"+ X X                   + !  .>.;.;.2.%.` -.2.5.5.5.5.4.4.-. . .|  .5.2.5.5.5.5.2.2.} W ;.,.;.,.>.! R %                   X + + ",
"E J H m G G b f f a d m m @. .;.:.;. .U %.<.4.5.5.5.5.4.2.-.-.&.3. .5.<.5.5.5.5.2.2.,.! ! ;.;.,.>.! @.m b s a k v m G H m G J E ",
"Q K G ^ #.+.E K J b H Q ^ +. .>.,.%.U } <.2.2.5.5.9.5.2.5.;.,.&.2. .5.<.5.9.5.5.2.2.2.-.U W ;.;.>.! +.^ ^ G m J K E +.#.^ G K E ",
"E K G ^ #.+.E E J b H Q ^ J =.-.} M ! <.2.2.2.5.5.5.5.2.5.} ,.%.<.&.5.2.5.5.5.9.2.2.2.2.&.U U } ;.@.J ^ E G m J K E +.#.^ G J ^ ",
"E J G ^ #.+.E K J m H E ^ E 1.U M } <.2.2.2.4.5.9.5.5.4.5. .2.} 2.%.3.5.3.5.5.5.2.2.2.2.2.&.U J U $.K +.^ H m J K E +.#.^ G J E ",
"  . .   O     O   . .   X   + W } ;.2.2.2.2.3.5.5.9.4.4.<. .2.{ ;.2.;.5.2.5.5.5.2.2.2.2.2.,.-.U | +   .     .   O     O   .     ",
"O > - O 4 $ @ 6 O $ 4 + 4 $ - U ;.;.2.2.2.2.3.5.5.5.2.5.&.;.:.} <.,.&.5.3.5.5.5.2.2.2.2.2.,.>.>.U $ $ 6 O > - O 6 @ - 4 O - , O ",
"  O O   - .   -   O O   $ .   w :.,.2.2.2.2.4.5.5.5.<.5.} 2.2. .,.2.,.2.5.5.5.5.2.2.2.2.2.2.;.>.w   . $   @ O   -     -   O O   "
};
