/* XPM */
static char *wall_moon_3_2[] = {
/* columns rows colors chars-per-pixel */
"64 64 126 2 ",
"   c #010102",
".  c #03060A",
"X  c #06090C",
"o  c #090B0D",
"O  c #030A13",
"+  c #0A0D11",
"@  c #020E1B",
"#  c #0E1115",
"$  c #03101F",
"%  c #0C131B",
"&  c #101317",
"*  c #11161C",
"=  c #14191E",
"-  c #031122",
";  c #0A1523",
":  c #04172D",
">  c #04182F",
",  c #101720",
"<  c #121922",
"1  c #191E25",
"2  c #161F29",
"3  c #041A33",
"4  c #091E36",
"5  c #051C38",
"6  c #1B2127",
"7  c #17222F",
"8  c #1D242D",
"9  c #0A213C",
"0  c #1C2632",
"q  c #18283B",
"w  c #20262E",
"e  c #21282F",
"r  c #232B33",
"t  c #252E3A",
"y  c #26303C",
"u  c #2A333C",
"i  c #0D2644",
"p  c #1C2E44",
"a  c #1F3044",
"s  c #1D3149",
"d  c #1F395A",
"f  c #233245",
"g  c #2C3641",
"h  c #2E3944",
"j  c #23364C",
"k  c #25384F",
"l  c #2A394B",
"z  c #313B46",
"x  c #333E4A",
"c  c #203651",
"v  c #243A54",
"b  c #2A3D54",
"n  c #243D5A",
"m  c #283E5A",
"M  c #313F50",
"N  c #243F63",
"B  c #36414E",
"V  c #38424F",
"C  c #27415F",
"Z  c #2D425B",
"A  c #364352",
"S  c #3A4552",
"D  c #3D4956",
"F  c #32455B",
"G  c #35485E",
"H  c #3E4B5B",
"J  c #274162",
"K  c #294365",
"L  c #2A4769",
"P  c #2D496B",
"I  c #314761",
"U  c #354B64",
"Y  c #3B4E64",
"T  c #344D6E",
"R  c #394F6A",
"E  c #3E5065",
"W  c #37506F",
"Q  c #3A516C",
"!  c #2F4E73",
"~  c #344F72",
"^  c #335074",
"/  c #3D5574",
"(  c #3F5876",
")  c #32537B",
"_  c #3F5978",
"`  c #414E5D",
"'  c #43505F",
"]  c #455364",
"[  c #495767",
"{  c #43566C",
"}  c #495768",
"|  c #4B5A6B",
" . c #405773",
".. c #425976",
"X. c #4A5D74",
"o. c #455C7A",
"O. c #485F7C",
"+. c #47607D",
"@. c #4A617E",
"#. c #55667B",
"$. c #5A6B7F",
"%. c #365984",
"&. c #3C5C83",
"*. c #375C88",
"=. c #3E6491",
"-. c #415E82",
";. c #4E6481",
":. c #4E6886",
">. c #496588",
",. c #516782",
"<. c #566B86",
"1. c #586D87",
"2. c #576D88",
"3. c #596E89",
"4. c #5D728B",
"5. c #406695",
"6. c #61758E",
"7. c #64788F",
"8. c #627790",
"9. c #667992",
"0. c #6B7E95",
"q. c #627C99",
"w. c #6D8097",
"e. c #6E8199",
"r. c #72849A",
"t. c #6B83A0",
/* pixels */
"  @ .   -   . @   @ . . R / o.1.<.<.6.6.6.6.8.0.0.0.8.4.8.4. .;.W 3.0.1.1.0.0.0.6.6.6.6.6.4.<.<.<.....Y . . @   @ .   -   . @   ",
". 3 - @ 5 - - 3 O 3 - ; / / o.1.3.<.6.6.6.4.4.0.8.0.0.9.9.4.;. .,.4.1.<.4.1.3.3.4.4.6.6.4.4.<.<.<. ...W ; - 3 O 3 - - 5 - - > . ",
"n d s v P J n n d p p n T / o.1.<.<.6.,.,.<.3.0.0.0.4.3.0.6.;. .<.4.4.8.2.0.0.0.3.<.,.,.3.4.<.<.,.-.T W N p s c N n N P d s N v ",
") P J ! %.%.! ) L n n &. .T / O.X.;.<.6.6.6.6.0.0.3.0.0.r.0.9.-.,.0.0.0.0.6.9.0.6.6.6.6.4.;.,.;.;.W /  .-.v N P ~ ! %.%.! J P ) ",
"% 5 ; $ i % ; 4 + 4 ; R ( / o.1.3.<.6.6.6.6.6.9.3.0.0.0.6.<.;. .4.,.<.8.0.0.9.4.6.6.6.6.6.4.<.<.,. . . .N < 4 + 9 ; % i % - 9 % ",
". 3 O @ 5 @ @ : O : ; T ( ( o.1.<.<.6.6.6.6.<.9.0.0.3. .,.,.-. . .;.;. .;.9.0.0.,.3.6.6.6.4.3.<.<./  ...W ; : X > @ O 5 O @ > . ",
"                    # / ( ( o.<.<.<.6.6.4.,.4.0.0.;.o.0.0.1.<.;.2.6.0.9.;. .8.0.6.<.,.4.6.4.<.<.<. . .W -.& X .                 ",
"  ` y   u & p w r + I / /  .o.1.<.<.6.<.;.6.6.6.;.<.6.,.<.0.0.,.9.0.1.,.9.<.-.3.4.6.4.;.4.4.<.<.<./ -.W  .m + r w p & u   f `   ",
"= t @.  . S b r   % ~  ./ ( o.1.<.<.;.3.6.6.<.-.4.6.1.8.r.r.0.o.4.0.r.0.<.3.6.o.o.4.6.6.,.,.<.<.<./ ( (  .L %   r b S .   o.t = ",
"B X j ' X ; 4.X   @ K / / ( o.,.;.;.3.6.4.;. .9.4.,.9.0.r.r.0.;.0.0.0.0.0.<.<.9. ...4.6.6.<.;.;.<.( / ( T N %   . 4.= X ' j X B ",
"u w X.%   # 6..   % N T T T / @.<.<.6.<. .o.3.4.1.0.9.3.6.4.4.3.q.2.4.4.6.0.,.,.4.-. .,.4.4.<.,.o.T T W L N +   X 4.%   & X.w u ",
"  `  .    V b r   % N L  .( o.1.<.,.o...,.4.<.<.0.6.3.,...;.6.o.,.<. .,.4.3.0.<.;.6.;. ...,.<.<.<./ ..T N N %   r b V      .`   ",
"  ] F   D 0 p z u % K N L T T  .W N ;.4.4.;.;.0.4.;.-.<.3.3.<.;.,.<.3.<. .,.;.9.;.o.6.4.;.N N ;./ T T N N T < y z p 8 `   Z [   ",
". x Y   & D Z z X , / K N K K T o.;.6.,.;.1.6.<. .;.9.0.;.;.9.3.0.4.-.<.9.,. .;.4.3.,.,.6.4.;.N T N L J L / * X x Z D &   Y z . ",
"A X F h X t q.+   * ( / ~ P ~ ,.,.O.<.4.6.4.;...1.0.0.3.<.0.6.9.4.8.8.;.6.0.6.-.o.,.6.4.<.<.<.<.o.P T T / ( %   + q.r X z F X S ",
"D * D t   % e.o   , /  . ./ o.<.<.1.4.6.4.-. .6.0.0.6.,.4.6.0.0.0.0.8.;.<.0.0.6. . .,.6.6.4.<.<.,./ ( ( ( ( =   + e.&   t F = D ",
". z x   X A U u   * ( / / / o.1.1.<.6.6.O./ O.0.0.0.3.;.0.3.6.;.<.0.1.,.<.4.0.0.;. .-.,.6.4.1.<.1./ / / ( ( %   u U S .   M z   ",
"  [ Z . ` t p A g <  .( (  .o.1.<.1.6.@.o.@.9.0.9.<.3.,.0.<.-.0.4.,.4.0.,.9.<.9.4.;. .;.<.4.<.1.<./  .(  ./ , g A a t `   F }   ",
"  V G   # S Z z   , / / ( / o.1.1.2.;.O./ 6.6.3.4.<.<.0.0.<.;.0.4.;.6.0.9.;.4.<.<.6. . .;.<.1.1.<./ / ( / / ,   z Z S #   G A   ",
"S 1 { 6   < #.+   , / ( ( / o.1.<.o.,.T ,.6.,.,.-.4.0.0.r.0.......,.0.0.0.0.;.;.;.;.<. . .;.,.1.<. ./ / ( ( ,   + #.<   6 { 1 S ",
"V X F D X < 4.+   , ( / /  .o.1.-.o./ / 6.#.o.3.4.3.4.9.r.r.0...;.0.0.0.4.3.1.4.;.o.;.o.~ ..-.,.<./ ( /  .( ,   + 4.< o D Z X A ",
"# l ;.    x R 6   , ( (  . .o.<.;. .~ ,.#.-.,.3.0.0.0.6.6.r.0.<.0.0.0.6.0.0.0.9.;.;. .,.T { O.O.<. ./ ( / ( *   2 R x     ;.z # ",
"  $.F   z g v S r , / / / / ..-.-.U o.,. .2.9.0.9.2.0.0.0.0.r.0.0.0.0.0.9.3.9.0.6.6.o.o.-.T ..-.o. .../ / / * e A v g z   F 1.  ",
"  ' R   r E k H # ,  . ./ / / O. ./ 4.o...8.8.4. . .;.3.0.9.0.r.r.6.0.,.-. . .;.6.6.<. .6... .o.-.T ( ( / ( , & ' j E e   Y '   ",
"D =  .r   t :.&   < ( / ~ W  .o.P -.4.....1. .-. . .W  .,.6.0.0.r.6.2. .~  .~ -. .,.3.W <.<.T o. ./ T T ../ <   & :.y   r o.= D ",
"D # U S X g :.X   % T T W / ../ o.<.,.o.,.<.o.;. .W ~  .9.0.6.0.0.3.,.;. .~  .<. .O.4.o.o.4.o.~ O.T ( / ~ T %   X :.u . S U # D ",
"o u  .  . { +.#   <  .( W ~ W / <.1.;...;.4.6.6.;. .W ..3.0.6.r.r.6.8.;. . ...;.4.4.,.@. .3.1. ./ ^ T / ( ( ,   # @.{ .    .u X ",
"  ] l & ` * v ] & * / T / / L ;.<.,.;.o.,.4.6.0.0.8.<.0.r.0.6.r.0.0.0.0.4.,.0.0.6.6.,.4.W <.<.<.T T / T T / < & ] v * ` & l ]   ",
"  D Y   t z R h . % T / / P  .2.1.;.,.O.4.<.6.0.0.;.3.9.0.0.4.0.0.0.r.0.,.;.4.0.6.6.,.6./ O.1.<.,.K / ( / T %   z Q x t   Y D   ",
"h 8 @.&   A :.+   < ( ( L L o.2.<.O.-...6.,.9.0.0.0.,.0.r.r.9.r.0.0.r.0.0.;.0.0.6.4.,.1.T o.<.1.<.T K T (  .<   o :.V   & @.6 h ",
"x o k ] X r ;.X   % K K T  .o.2.<.O.O.T 6...6.0.0.0.;.0.r.r.9.r.9.0.0.0.0.;.0.0.6.<.O.<./  .<.1.1./ ~ L J L %   X ;.r X ] v o B ",
"w y { .   x X.X   % T (  . .o.1.<...,. .1. .4.0.0.0.-.0.r.r.6.0.9.0.0.0.0.,.0.0.6.,.,.O.o.-.O.1.<./ / ( T / <   X X.x   X { y 8 ",
"  #./ o z l Z S + , ../ /  .o.1.O.;.<.@.;.O.,.0.0.0.,.0.r.r.0.0.9.0.r.0.0.;.0.0.6...;...;.;.-.<.<./ { /  ./ , + S m h z o Q #.  ",
"  | G o S 7 F D + 2 / / .. .o.1.O.@.<.<...O.O.0.0.0.4.r.r.r.0.0.r.0.r.0.0.9.0.0.,.;...;.;.;.;.,.<.{ / /  . ., + ` I 0 S + I |   ",
"V w ..=   H { o   < / / / / O.,.;.O.<.1.,...@.9.0.r.r.0.r.r.0.4.9.0.0.0.0.0.0.0.,.;...4.,.;.;.;.<./ / /  . .<   o { H   < X.8 A ",
"x X Z ' X h { X   < / / ../ o.O.1.O.<.<.6.O.@.1.0.0.0.0.r.0.6.4.4.4.0.0.0.0.0.0.;.W 4.6.,.;.<.;.<./ / -. . .<   X { h . ' M X x ",
"= u @..   x ;..   ,  .( / / O.-.1.O.1.<.6.<.@.<.9.0.0.0.r.0.9.0.0.6.0.0.r.r.0.1.<.X.6.6.,.;.<.;.,./ ../ / / 1   X ;.B     ;.g * ",
"  ] F   r S W u   < ( ( /  ./ ,.<.;.4.,.6.4.O.4.;.0.r.0.r.r.0.0.0.r.r.0.0.0.8.,.;.;.6.6.,.,.<.<.;./ / / / ..<   u Q A e   I ]   ",
"  ` R & ` 7 a ` = < / /  ./ W 1.<.;.<.1.6.6.<.1.<.:.0.0.r.r.0.9.9.0.0.0.0.9. .2.-.4.6.6.,.;.<.<.;.W ..../ / < = ` f 7 ` & Q `   ",
"8 u { X X A ;.&   < / / / W o.2.<.O.1.1.6.6.4.-.6. .6.r.r.r.0.r.r.0.0.0.0.;.-.2.;.6.6.6.,.,.;.<.,.T / / / _ < X # ;.A o X { t 8 ",
"B X f | X B @..   <  ./ / / o.2.<.O.1.1.6.6.6.;.9... .<.0.r.r.r.r.r.r.0.-.W 3.,.3.6.6.6.;.4.;.<.<.T / / / / <     :.B X [ f X B ",
"u w { o   H ` .   < / / ~ / o.<.;.,.,.4.6.6.6.4.<.1./ W ;.0.0.0.r.0.6.-. .-.0.;.6.6.6.6.;.4.X.<.<./ T ( /  .<   . Y H   o { w u ",
"  ` F   y u G z   < / / ~ / O.<.;.<.,.6.6.6.6.0.1.0. ./  ./ -.2.<.-. . . .1.9.<.6.6.6.6.<.<.;.;.<.( / ~  .( < . g G u t . F `   ",
"  ` f & ` 7 k H * , / W ( / o.;.,.<.,.6.6.6.6.0.-.0.:.W ^  . . . . ...N  .0.6.3.6.6.6.6.6.;.<.;.,.( / / T / < & ` k 7 ` & f `   ",
"o g  .    ] o.o   , W /  . .o.;.<.,.1.6.6.6.6.0.O.0.9. . . . . . . . .-.,.0.6.6.6.6.6.6.6.;.<.<.O. .( ( / T <   o o.]     ..u # ",
"V # I V X t ]     < ../ W  . .,.<.;.6.6.6.6.9.0.@.0.0. .;.<.-.;.-.;.6. .<.0.6.9.6.6.6.6.6.,.;.<.o. .( / / / <   . E t X V F + V ",
"D < { 8   8 X.X   2  . . .~  .<.;.,.6.6.6.6.6.0.O.0.0.;.-.0.r.r.0.r.9.;.9.0.9.4.6.6.6.6.6.4.;.<.<.T ( / / / <   X X.8   w { = D ",
"  ] /   # { l h X ; /  . .T O.,.;.<.6.6.6.6.9.0.@.0.0.1.o.0.r.r.0.0.;.,.9.0.9.,.6.6.6.6.6.4.;.o.<./ T / ( / <   h l { #    .]   ",
"  #.F X ` 1 p z u < ( / T (  .o.<.2.6.6.6.6.6.4.o.0.0.9. .:.0.0.0.3. .3.0.0.6.o.6.6.6.6.6.4.<.,.o./ / T ( / < u z p 1 ` . F $.  ",
"* z X.  X { Z y   < T T ( T ( 1.<.3.6.6.6.6.6.;.2.0.0.0./  .-.,.-.....3.0.0.0.o.1.6.6.6.6.4.1.3.;.T ( / T / <   u Z { X   ..z * ",
"B . b D X 0 e.X   , / / T ^ o.<.1.<.6.6.6.6.6. .0.0.0.0.,.o.4.@.6.;.3.3.0.0.0.,.O.6.6.6.6.4.<.<.<. .T T ( W ;   X e.0 X ` l . x ",
"x 8 @.*   1 1.X   , T T  . .o.<.<.1.4.6.6.6.,.o.0.0.0.9.9./ 1.-.4.o.9.8.0.0.0.9.W 6.6.6.6.4.3.<.<./ / / T T =   X 1.1   * @.w z ",
"  & 1     & % X   O 0 Z ( ( o.1.<.<.8.6.6.4. .1.0.0.0.0.9. .;. .o.o.0.3.0.r.0.0.W O.6.6.6.4.<.<.<.( / / F 0 X   X % &     < &   ",
"                      2 ( / o.1.3.<.6.6.6.O.W 7.r.0.0.0.3...<.,.2. .0.3.r.0.0.0.O.W 1.6.6.4.2.1.<.( / ( 1   .     .             ",
"@ 3 O : @ O 5 @ @ : O - / / o.<.3.<.4.8.3.W O.0.0.0.0.0.9.;.<.0.9.o.r.4.0.0.0.0.4. . .6.6.4.<.1.<./ ( W - O : - O 3 O @ > O 3 @ ",
". -   @ O   >   O -   @ v ( o.2.<.3.4.8.W Q 6.0.0.r.r.0.9.:.-.0.-.-.0.3.0.0.0.0.6.<.R -.6.3.2.<.<./ / d $   - . . >   O -   - . ",
"+ o X                   % / o.1.1.<.4.O.~ <.9.0.0.0.0.9.9.,.o.o.@.o.r.4.0.0.r.0.6.6.o.T ,.4.2.1.<.( / #                   X + + ",
"! L J n J J v d s p s n n &.o.1.2.2.o.T O.4.7.0.r.r.0.9.9.,.,.,.9...0.3.0.0.0.0.6.6.3./ W <.2.<.<.( -.n v s p c v v J J n J P ! ",
") L J ) %.%.! P L n J ^ ) %.X.2.1...~ ..4.6.6.0.0.r.0.6.0.,.1.O.4. .0.3.0.0.r.0.6.6.6.,.T W <.<.<./ %.) ! K n L P ! %.*.) J L ) ",
") L J ) *.%.! ! L n J ^ ) L >.,./ L / 1.6.6.6.0.0.0.r.3.0./ 3.-.4.,.0.9.0.0.r.0.6.6.6.6.,.T T o.<.-.P ) ) J v L P ! %.*.) J L ! ",
"! K C ) *.%.! P L n K ! ) T =.T P / 1.6.6.6.6.w.r.r.0.3.r...4.o.3.O.8.0.8.0.0.0.6.6.6.6.6.@.T P T =.P %.! J n L ! ! %.*.) J L ! ",
". . .   O     O   . .   O . # T  .<.8.6.6.6.6.w.0.0.9.9.3.O.8./ <.8.<.0.3.0.r.0.6.6.6.6.6.3.,.T o.+   .   . . . O     O   . .   ",
". > - O > - @ 5 O - > O 3 - - R <.1.6.6.6.6.6.w.e.0.4.0.-.3.<. .3.3.;.0.8.0.0.0.6.6.6.6.6.4.1.<.T - - 5 O > - @ 3 @ @ > O - > . ",
"  O O   - .   -   O @   @ .   q <.1.6.6.6.6.6.w.w.0.3.9...8.4.o.2.9.3.3.0.4.r.0.6.6.6.6.6.4.<.1.q   . @   O O   -   . -   O O   "
};
