/* XPM */
static char *wall_moon_4[] = {
/* columns rows colors chars-per-pixel */
"64 64 129 2 ",
"   c #010102",
".  c #03060A",
"X  c #06080C",
"o  c #090B0D",
"O  c #040610",
"+  c #040A13",
"@  c #0A0E13",
"#  c #040D1C",
"$  c #080C1F",
"%  c #0E1115",
"&  c #03101F",
"*  c #0B121B",
"=  c #101317",
"-  c #12151A",
";  c #14191E",
":  c #070F24",
">  c #080D23",
",  c #0A0F28",
"<  c #031122",
"1  c #081424",
"2  c #04172E",
"3  c #0B102B",
"4  c #04182F",
"5  c #141A22",
"6  c #181E25",
"7  c #0C1232",
"8  c #041A34",
"9  c #0A1D36",
"0  c #051C39",
"q  c #0A1839",
"w  c #1B2127",
"e  c #16212E",
"r  c #1D242D",
"t  c #0B203B",
"y  c #1C2631",
"u  c #21272E",
"i  c #21282F",
"p  c #212730",
"a  c #232B34",
"s  c #232E3C",
"d  c #26313C",
"f  c #2A323C",
"g  c #151F59",
"h  c #0C2644",
"j  c #1B2D44",
"k  c #1F3045",
"l  c #1D3149",
"z  c #0E2458",
"x  c #13245C",
"c  c #18235E",
"v  c #203146",
"b  c #2C3642",
"n  c #2E3844",
"m  c #23354D",
"M  c #26394F",
"N  c #2A394B",
"B  c #303A46",
"V  c #333E4A",
"C  c #213652",
"Z  c #243A55",
"A  c #2C3E53",
"S  c #243D5A",
"D  c #2A3F5A",
"F  c #323F50",
"G  c #152363",
"H  c #182565",
"J  c #162967",
"K  c #19266B",
"L  c #1A286F",
"P  c #1B2976",
"I  c #1D2C7A",
"U  c #203461",
"Y  c #243F60",
"T  c #202F7E",
"R  c #21307F",
"E  c #36414E",
"W  c #38424F",
"Q  c #2D425C",
"!  c #354252",
"~  c #394552",
"^  c #3D4956",
"/  c #33455B",
"(  c #36485E",
")  c #3E4B5B",
"_  c #274261",
"`  c #294363",
"'  c #2A4769",
"]  c #2C496C",
"[  c #354A63",
"{  c #3B4E64",
"}  c #3A4E6A",
"|  c #3D5066",
" . c #3A516C",
".. c #2F4E74",
"X. c #2F5076",
"o. c #305077",
"O. c #3D5572",
"+. c #32537B",
"@. c #414E5D",
"#. c #43505F",
"$. c #404E60",
"%. c #455465",
"&. c #43566C",
"*. c #495768",
"=. c #45586E",
"-. c #4A596A",
";. c #425772",
":. c #445B75",
">. c #495D75",
",. c #465D7B",
"<. c #4B607C",
"1. c #56677A",
"2. c #596B7F",
"3. c #223180",
"4. c #263C83",
"5. c #283D8A",
"6. c #2E4C80",
"7. c #2D478A",
"8. c #355984",
"9. c #375C88",
"0. c #345599",
"q. c #445C82",
"w. c #4A6382",
"e. c #4A6588",
"r. c #5A6B80",
"t. c #5A6E88",
"y. c #5B728E",
"u. c #647B9A",
"i. c #6B84A1",
/* pixels */
"  : .   <   . #   # .   G P I K P 3.G P 3.G P 3.G P 3.G K 3.G 3.3.G 3.K G 3.3.G 3.3.G 3.3.G 3.3.G 3.3.g   . #   # .   <   . #   ",
". 4 < # 0 < < 8 + 8 < < P K I P G P 3.G 3.P G P 3.G P 3.G 3.3.G K 3.G 3.3.G K 3.G 3.K G 3.3.G 3.K G K 3.: 1 0 + 8 < : 0 # < 8 . ",
"S S l C ' Y S Q C l l U I I 3.I 3.3.P 3.3.3.P 3.3.3.3.3.3.3.3.3.3.3.3.3.K 3.3.3.3.3.3.3.3.3.3.3.K 3.3.3.U j l C Y S _ ' S l S S ",
"o.] _ X.8.8...X.] S Z 7.K P I K P 3.G P 3.G P 3.G K 3.G K 3.G 3.3.G K 3.G 3.3.G G 3.G 3.K G 3.K G 3.3.G 7.Z S ] X...8.8..._ ] ..",
"& t 1 & h * 1 t @ 9 1 K P K I P K 3.P K 3.P G 3.K G 3.G G 3.K G 3.K G K 3.G 3.G G 3.G G 3.3.G G 3.G K 3.g > 8 # t 1 * h & 1 t & ",
". 4 + # 8 # # 8 O 4 < I I I 3.I P 3.P P 3.P 3.3.3.3.3.3.3.3.3.3.3.3.3.3.3.3.3.3.3.3.3.3.3.3.3.3.3.3.3.3.P 3 4 O 2 # # 8 # + 4 . ",
"              .     + I K P I K P 3.K P P G P P G 3.3.G 3.3.G K 3.G 3.3.G 3.3.G 3.3.G 3.K G 3.3.G 3.3.G P >                     ",
"  #.d   f - y y a # g I P K I P K P P K 3.P K 3.3.G K 3.G 3.3.G 3.3.G 3.3.G K 3.G 3.K G 3.3.G 3.3.G K 3.K G # p y y - f   d #.  ",
"; d <.    ^ A p   $ I 3.I I 3.I P 3.3.P 3.3.P 3.P 3.3.P P 3.P P 3.3.3.3.3.3.3.3.3.3.3.3.3.3.3.3.I T T T I T $   s A ~     <.d ; ",
"V X m @.X - y..   $ P I K P I K P P K P P K P P K P P K P 3.K P K G K 3.G 3.3.G G 3.G K 3.G 3.K K P I K P I #   . y.; X %.m X E ",
"B r ,.=   * y..   $ K I P K I P K 3.P K P P K 3.P K 3.P K P P K 3.K G 3.K G 3.3.G 3.3.G 3.K G G P K P P L P #   . y.*   % <.r f ",
"  ^ O.    ~ A a   $ P 3.I I 3.I P 3.P 3.3.3.P 3.P 3.3.P 3.3.3.P 3.3.3.3.3.K 3.3.3.3.3.3.3.3.3.3.I I T I T T $   p A W     ;.^   ",
"  %.Q   ^ y j n s $ P I K P I K P P K P P K P 3.K P P K P I K P 3.G 3.3.G K K G K 3.G 3.3.G 3.3.K P I K P I $ f n j r ^   Q %.  ",
"X B {   - ) D V X $ K I P K I P K P P K P P K P P K P P K I P K K 3.G 3.3.G 3.3.G 3.K G 3.3.G 3.P L P P L P $ X n Q ) -   | E   ",
"~ X ( n X a u.@   > I 3.I I 3.I 3.3.3.P 3.3.3.3.P 3.3.3.I 3.3.P 3.3.3.3.3.3.3.3.3.3.3.3.3.3.3.3.I I T I I R $   * u.a . n / o ~ ",
"^ 5 ! f   % u.X   $ P I K P I K P P K P P K P P K P P K P P K P 3.G K 3.G 3.K G K 3.G 3.K G K 3.K P I K P I $   X u.%   f / ; ^ ",
"  B E   X ~ [ d   $ K I P K I P K I P K I P K I P K I P K I P K I P K I P K I P K I P K P P L P P L P P L P $   f [ ~ X   F B   ",
"  -.`   @.s j ! b > I R I I R I I 3.I I R I I 3.I P 3.I I 3.I I 3.I I 3.I I T I T 3.P T R I T R I I 3.I T T $ f ! j s @.  / *.  ",
"  W (   @ ! D n   > P I K P I K P I K P I K P I K P I K P I K P I K P I K P I K P P K P I K P I K P I K P I $   V D ~ %   ( ~   ",
"~ 6 &.w   5 1.+   > K I P K I P K I P K I P K I P K I P K I P K I P K I P K I P K I P L P P L P P L P P L P >   O <.5   w &.6 ~ ",
"! X / @.X 5 y.+   > I R I I 3.I I 3.I I 3.I I 3.I I 3.I I 3.I I 3.I I 3.I I 3.I T 3.I I 3.I T T I I T I T T >   + y.5 X ) [ X E ",
"% V ,.    V } 6   $ P I K P I K P I K P I K P I K P I K P I K P I K P I K P I K P P K P I K P I K P I K P I $   6 } V     ,.V % ",
"  2./   V b C F a > K I P K I P K I P K I P K I P K I P K I P K I P L I P K I P K I P L P P L I P L P P L P > a ! C b V   / 2.  ",
"  @.}   p $.C $.@ > I 3.I I 3.I I 3.I I 3.I I 3.I I 3.I I 3.I P 3.I I T I I 3.I I 3.I I R I I T I T T I I T > % { m | p   { @.  ",
"^ 5 ,.a   s w.*   > P I K P I K P I K P I K P I K P I K P I K P I K P I K P I K P I K P I K P I K P I K P P $   = e.d   a :.5 ^ ",
"^ @ [ W X b e.X   $ K I P K I P K I P K I P K I P K I P K I P K I P L I P K P P K I P K P P L P P L P P L P >   . e.b X ~ [ @ ^ ",
"o f &.  X %.q.*   > I T I I 3.I I 3.I I 3.I I 3.I I 3.I I 3.I I 3.I I 3.I I 3.I I R I I 3.I T T I I T I I 3.>   @ q.=.    ;.b X ",
"  %.N * @.5 Z $.- > P I K P I K P I K P I K P I K P I K P I K P I K P I K P I K P I K P I K P I K P I K P I > - $.Z ; @.= N %.  ",
"  ) [ X a V } n   > K I P K I P K I P K I P K I P K I P K I P K I P K I P K I P K I P L P P L P P L I P L P >   n } n f   [ @.  ",
"b r >.=   ! e.O   > I T I I T I I 3.I I T I I 3.I I 3.I I 3.I P 3.I I T I I 3.I I R I I R I T R I I T I I T >   + e.!   - >.u b ",
"E o m %.X a q.X   > P I K P I K P I K P I K P I K L I K P I K P I K P I K P I K P T K P I K P I K P I K P I >   X :.a o %.M o V ",
"u f &.X   V ;.X   > K I P K I P K I P K I P K I P K I P K I P K I P K I P K I P K P P L P P L P P L P P L P $   O ;.V   X =.s u ",
"  1.O.o V n A ! o > I 3.I I 3.I I 3.I I 3.I I 3.I I 3.I I 3.I I 3.I I 3.I I 3.I I T I I 3.I I 3.I T T I I 3.> o ~ D N B o O.1.  ",
"  -.( o ~ r ` ) @ > P I K P I K P I K P I K P I K P I K P I K P I K P I K P I K P I K P I K P I K P I K P I > o @.` r ~ o ( *.  ",
"W r :.5   ) } O   > K I P K I P K I P K I P K I P K I P K I P K I P L I P L I P L I P L I P L I P L P P L P $   X } )   ; ;.r ~ ",
"V X Q $.X n &.X   > I 3.I I 3.I I 3.I I 3.I I 3.I I 3.I I 3.I I 3.I I T I I 3.I I T I I T I I T I T T I I T >   X &.n X #.Q X V ",
"; f w.X   E w..   > P I K P I K P I K P I K P I K P I K P I K P I K P I K P I K P I K P I K P I K P I K P I $   X w.V   X <.b ; ",
"  %.Q   p !  .f   > K I P K I P K I P K I P K I P K I P K I P K I P L I P K I P L I P K P P L I P K P P L P >   f  .! u   / %.  ",
"  @.} - @.e k ) ; > I 3.I I 3.I P 3.I I 3.I I 3.I P 3.I I T I I 3.I I I I I T I I T I I 3.I I T I I T I T T > ; ) v e @.-  .)   ",
"r d =.X o ~ w.%   > P I K P I K P I K P I K P I K P I K P I K P I K P I K P I K P I K P I K P I K P I K P I >   % w.E o o &.d r ",
"E X v -.o V w.X   > L I P L I P K I P K I P K I P K I P L I P K I P L I P K I P L I P L P P L I P L I P P P >     e.E X -.v X W ",
"f u &.o   @.) X   , I 3.I P T I I 3.I I 3.I I 3.I P 3.I I T I I 3.I I 3.I I T I I T I I T I I T I I T I I T >   X #.)   o &.u f ",
"  @./   f f ( b   > P I K P I K P I K P I K P I K P I K P I K P I K P I K P I K P I K P I K P I H P I K P I > X n ( f f X ! @.  ",
"  @.m % @.e m @.= > L I P L I P L I P K I P L I P K T P L I P K I P K I P L I P L I P K I P L I P L I P L P > = ) m e ) % m @.  ",
"@ b :.    %.:.o   > I 3.I P 3.I I 3.I P 3.I P 3.P I T P P T I P 3.I I T I I 3.I I T I P T I I T I I R I I T >   @ >.%.    ;.b @ ",
"E @ / E X s {     > I I K P I K P I K P I K P I K P T K P T K P I K P I K P I K P I K P I K P I K P I K P I >     | s X E / % E ",
"^ 5 &.u   e >.o   , L I P L I P K I P L I P L I P L T P L T P L I P L I P L I P L I P L I P L I P L P P L I >   X >.r   r =.5 ~ ",
"  %.O.  = &.N B   , P 3.I P 3.I I 3.I I 3.I P 3.I P T I P T I P 3.I I T I P T I I T I I T I I T I I R I I T 1   n M &.%   O.%.  ",
"  2./ X @.6 j B f > P I K P I K P I K P I K P I K P I K P I K P I K P I K P I K P I K P I K P I K P P K P I $ f B j w ) X / 2.  ",
"- b ;.  o &.Q f   > L I P L I P L T P L I P L I P K I P L T P K I P L T P L I P L I P L I P K I P P T P P I >   f Q %.o   ;.n - ",
"E X A ) X r i.X   , P 3.I P 3.I P T T P T I P T I P 3.I P T I P R I P R I I R I I R I I R I I R P I T P I I >   X i.y . @.Z X E ",
"B r <.-   6 t.X   > P I K P I K P P K P I K P T K P I K P I K P I K P I H P I K P I H P I K P I K P I K P I >   X t.6   - <.r B ",
"  - 6     - * X   O 7 c P L I P L I P L T P L I P L T P L I P L I P L I P L I P L I P L I P L I P L I P c 7 .   X * -     6 -   ",
"                      3 I P R I P T I P T I P T I P T P P T I P R I P R P I R I P R I I R I I R P T T P 3   .     .             ",
"& 2 + 2 # + 0 # # 2 + < H P I K P I K P I K P I K P I K P I K P I K P I K P I K P I K P I K P I K P I H 1 O 2 < + 8 + # 2 + 2 # ",
". <   # +   2   + <   # x L T P L I P L T P L T P L T P L T P L I P L T P P I P L I P L I P L I P L T z #   < . . 2   + <   < . ",
"+ @ .                   # P R T P T P P R T P T I P R I P R I P 3.I P R I P R I I R I I R I I R I I I #                   X @ @ ",
"X.] _ Q _ _ Z C l j k S S R I H L T K P I H P I K P I K P I K P I K P I K P I K P I H P I H P I K P 4.Q C l j m C C _ _ S _ ' ..",
"X.' _ +.9.8...] ' S ` o.+.+.R I P T I L T P L T P L T P L T P L I P L T P L I P L I P L I P L I P P 6.+.o.` S ' ] ..8.9.o._ ] X.",
"X.] _ +.9.8...] ' S ` o.+.' 4.I P R P P T I P T I P R P P T I P R I P R I P R I P R I I R I I I P 4.' +.o.` S ' ....8.9.+._ ] X.",
"X.] _ +.9.8...] ' S _ X.6...0.K P I K P I K P P H P I H P I K P I K P I K P I K P I K P P K I I K 0.] +.o.` S ' ] ..8.9.o._ ' X.",
"    .   +     +   . .   X   + P L T P L T P L T P P T P K T P L T P L T P L T P L I P P I P P I P O   .   . .   +     +   +     ",
"+ 2 < + 8 < # 8 + < 8 + 8 < < J P T I P T P P T P P T I P T P P T P P R I P T P P T I P R I P I J < < 0 + 2 < # 8 # # 8 + < 8 . ",
"  + +   < .   <   + +   <     q P I K P I K P T K P I K P T K P I K P I K P I K P I K P I K P I q     <   + +   <   . <   + +   "
};
