/* XPM */
static char *wall_moon_1[] = {
/* columns rows colors chars-per-pixel */
"64 64 184 2 ",
"   c #010102",
".  c #03060A",
"X  c #06080C",
"o  c #090B0D",
"O  c #040610",
"+  c #040A13",
"@  c #0A0E13",
"#  c #040D1C",
"$  c #080C1F",
"%  c #0E1115",
"&  c #03101F",
"*  c #0B121B",
"=  c #101317",
"-  c #12151A",
";  c #14191E",
":  c #070F24",
">  c #080D23",
",  c #0A0F28",
"<  c #031122",
"1  c #081424",
"2  c #04172E",
"3  c #0B112B",
"4  c #04182F",
"5  c #141A22",
"6  c #181E25",
"7  c #041A34",
"8  c #0A1D36",
"9  c #051C39",
"0  c #0A1939",
"q  c #0C1232",
"w  c #1B2127",
"e  c #16212E",
"r  c #1D242D",
"t  c #0B203B",
"y  c #1C2631",
"u  c #21272E",
"i  c #21282F",
"p  c #212730",
"a  c #232B34",
"s  c #232E3C",
"d  c #26313C",
"f  c #2A323C",
"g  c #151F59",
"h  c #0C2644",
"j  c #1B2D44",
"k  c #1F3045",
"l  c #1D3149",
"z  c #092950",
"x  c #0E2458",
"c  c #14235D",
"v  c #18235E",
"b  c #0F3057",
"n  c #103057",
"m  c #12325A",
"M  c #2C3642",
"N  c #2E3844",
"B  c #23354D",
"V  c #2A394C",
"C  c #313A46",
"Z  c #333E4A",
"A  c #213652",
"S  c #243A54",
"D  c #2C3E53",
"F  c #243D5A",
"G  c #2A3F5A",
"H  c #152463",
"J  c #182565",
"K  c #19266B",
"L  c #1B296F",
"P  c #162967",
"I  c #173463",
"U  c #1B3C64",
"Y  c #1E386A",
"T  c #1B2976",
"R  c #1D2C7A",
"E  c #203461",
"W  c #243F60",
"Q  c #202F7E",
"!  c #243474",
"~  c #21307F",
"^  c #273978",
"/  c #293B7A",
"(  c #36414E",
")  c #38424F",
"_  c #2D425B",
"`  c #354252",
"'  c #394552",
"]  c #3D4956",
"[  c #32455B",
"{  c #35485E",
"}  c #3E4B5B",
"|  c #274261",
" . c #294363",
".. c #23436B",
"X. c #2A4769",
"o. c #2C496C",
"O. c #354A64",
"+. c #3C4E62",
"@. c #3A4E69",
"#. c #3D5066",
"$. c #3A516C",
"%. c #284170",
"&. c #2D4D73",
"*. c #2E4D7B",
"=. c #294279",
"-. c #304F74",
";. c #305077",
":. c #3D5673",
">. c #32537B",
",. c #414E5D",
"<. c #43505F",
"1. c #404E60",
"2. c #455465",
"3. c #43556C",
"4. c #495768",
"5. c #44586E",
"6. c #4A596A",
"7. c #415672",
"8. c #445B76",
"9. c #495D75",
"0. c #465C7A",
"q. c #485F7C",
"w. c #46607D",
"e. c #4B607D",
"r. c #56677A",
"t. c #5A6B7F",
"y. c #223180",
"u. c #263C83",
"i. c #293B83",
"p. c #2B3E89",
"a. c #2D4086",
"s. c #2E4689",
"d. c #2F4D80",
"f. c #354A8C",
"g. c #334887",
"h. c #355984",
"j. c #3A5C84",
"k. c #375C88",
"l. c #384D90",
"z. c #3B5193",
"x. c #355498",
"c. c #3F608B",
"v. c #425988",
"b. c #445C9A",
"n. c #4A6382",
"m. c #4A6588",
"M. c #42638D",
"N. c #596B80",
"B. c #596E88",
"V. c #5B728E",
"C. c #4A6C95",
"Z. c #49629D",
"A. c #4D6E9A",
"S. c #466891",
"D. c #526E9F",
"F. c #4E7099",
"G. c #5C7290",
"H. c #52729D",
"J. c #647B9B",
"K. c #4C65A2",
"L. c #516CA4",
"P. c #5475A1",
"I. c #577AA3",
"U. c #5571AA",
"Y. c #5976AC",
"T. c #5C7DAA",
"R. c #5A7DA7",
"E. c #617FB3",
"W. c #5D80AA",
"Q. c #6C84A1",
"!. c #6383B4",
"~. c #688BB5",
"^. c #6786B8",
"/. c #6B8CBB",
"(. c #6689B3",
"). c #6E91BD",
"_. c #7194BF",
"`. c #6F91C0",
"'. c #7294C2",
"]. c #7699C6",
"[. c #789CC7",
"{. c #7A9DC9",
"}. c #7EA2CD",
"|. c #80A4CF",
/* pixels */
"  : .   <   . #   # . . H T R K T R K T T K T T K T T K T y.H T y.H T y.H T y.H T y.H T y.H T y.H y.T g   . #   + .   <   . #   ",
". 4 < # 7 < < 7 + 7 < 1 L K R T K R T K y.T K y.T K y.T H y.T K y.T H T y.H y.T K T T K y.T K T T K y.K : < 7 # 7 < < 9 & & 7 . ",
"F F l S o._ m _ l l l m R R y.R R y.R T y.T y.y.T y.y.T T y.T y.y.y.T y.y.y.y.y.T y.T y.y.y.y.y.y.y.y.y.E l l A | F | ..F l m _ ",
";.o.| &.h.j.;.;.&.F F s.K T R K T R K T T K T T K T T K T y.H T y.H T y.H K y.g T y.K T T H T T H K y.H s.S F X.;.&.h.h.-. .o.;.",
"& t 1 & h * 1 t # 8 1 K T K R T K R T K R T K R T K T T K y.T K K y.H K y.H y.y.H y.T H T T K T y.H K y.g > 9 # 8 2 * h * 1 t * ",
". 7 + # 7 # & 2 . 2 : R R R y.R R y.R R y.R R y.y.T y.y.T y.T y.y.y.y.y.y.K y.y.y.y.T y.y.y.y.y.y.y.y.y.T , 2 O 2 # + 9 # + 7 . ",
"                    O R K T R K T R K T R K T R K T T K T y.H T y.H y.y.g y.K H T y.K T T K T T g y.y.H y.>                     ",
"  ,.d   f - j r a # g R T K R T K R T K R T K R T K T T K T T K y.y.g y.y.H y.y.K T T K T T K T y.H K y.H H # p r j - f   d ,.  ",
"; f q.  . ' D p   $ R y.R R y.R R y.R R y.R R y.R R y.R R y.R R y.y.y.y.T y.y.y.T y.y.T y.y.T y.R R y.R Q Q $   p D '     e.d ; ",
"Z X B <.. 5 B..   $ T R K T R K T R K T R K T R K T R K T R K T K H K y.K T T K T T K T T K T y.K T R K T R #   X V.; X 2.B X ( ",
"C r 0.=   % G..   # K R T K R T K R T K R T K R T K R T K R T J y.K H y.T K T T K T T K T T K T T K T T K T $     G.*   = w.r f ",
"  ] :.    ' D a   $ R y.R R y.R R y.R R y.R R y.R R y.R R y.~ T y.y.y.y.T y.y.y.y.y.T y.y.T y.y.R Q Q R Q Q $   a D )     7.]   ",
"  4._   ] y j C s $ T R K T R K T R K T R K T R K T R K R i./ a.y.y.y.y.T y.T K T T K T T K T y.K T R K T R # f N j r ]   _ 2.  ",
"  Z @.  - } G C . $ K R T K R T K R T K R T K R T / K.!.'.{.}.|.{.^.].`.K.y.y.T K y.T K T T K T T K R T K R $ X V _ } -   +.(   ",
") X { M X a J.@   > R y.R R y.R R y.R R y.R R z.^.}.}.}.|.|.|.|.}.}.}.}.}.|.`.K.y.y.T y.y.T y.y.R R Q R R y.$   % J.a X f { o ' ",
"] ; [ f   = J.X   $ T R K T R K T R K T R / !.}.|.|.|.|.|.|.|.|.}.}.}.}.|.|.|.|.`.f.K T y.K T T K T R K T R #   X J.=   f [ 5 ] ",
"  C `   . ' O.d   $ K R T K R T K R T K b.{.|.|.|.|.|.|.|.|.|.|.|.|.|.|.|.|.|.|.|.{.U.! T T K Q T K R T K R $   f O.' .   Z C   ",
"  6.[   ,.s j ` M > R ~ R R Q R R y.Q L.|.|.|.|.|.|.|.|.|.|.|.|.|.|.|.|.|.|.|.|.|.|.|.~.p.T Q ~ R R y.R R Q $ M D j s ,.  O.4.  ",
"  ( {   @ ' G V   > T R K T R K T Q H.|.|.|.|.|.|.|.|.|.|.|.|.|.}./.H.j.;.&.>.F.!.{.|.|./.! T T K T R K R R $   C G ' @   { '   ",
"] 6 3.w   5 r.O   > K R T K R T K K.|.|.|.|.|.|.|.|.|.|.|.|.}.H...z z z z z z z z m M.].|.^.T R T K T T K T >   O r.5   w 7.6 ' ",
") X  .} X 5 G.+   > R ~ R R ~ Q f.|.|.|.|.|.|.|.|.|.|.|.|.~...z z z z z z z z z z z z m H.|.P.y.R R y.R R y.>   + V.5 X } _ X ' ",
"= Z q.    Z @.6   > T R K T R L ).|.|.|.|.|.|.|.|.|.|.|.W.z z z z z z z z z z z z z z z z v.{.s.K T T K T R >   6 @.Z     q.Z % ",
"  t.[   Z N A Z a $ K R T K R K.|.|.|.|.|.|.|.|.|.|.|.R.n z z z z z z z z z z z z z z z z z M.^.R L R T K R > a ` A M Z   [ t.  ",
"  ,.@.  p 1.A 1.% > R y.R R i.].|.|.|.|.|.|.|.|.|.|./.m z z z z z z z z z z z z z z z z z z z C.z.R y.R R y.> @ 1.B #.u   @.,.  ",
",.; 8.a   d m.-   > T R K T b.|.|.|.|.|.|.|.|.|.|.}...z z z z z z z z z z z z z z z z z z z z b A.T R K T T $   = m.s   a 8.5 ] ",
"] @ O.) . M n..   > K R T L ~.|.|.|.|.|.|.|.|.|.|.T.z z z z z z z z z z z z z z z z z z z z z z d.! T T K T >   . m.N X ) O.@ ,.",
"o f 7.    3.n.%   > R y.R y.}.|.|.|.|.|.|.|.|.|.}.&.z z z z z z z z z z z z z z z z z z z z z z n f.Q R Q y.>   @ v.4.    7.f X ",
"  2.V = } 5 S 1.= > T R K f.|.|.|.|.|.|.|.|.|.|.'.n z z z z z z z z z z z z z z z z z z z z z z z =.R K T R > - 1.F - ,.= V 2.  ",
"  } {   f Z $.C   > K R T b.|.|.|.|.|.|.|.|.|.|.W.z z z z z z z z z z z z z z z z z z z z z z z z Y T T K R >   V @.C f   O.,.  ",
"f r e.-   ` m.O   > R Q R U.|.|.|.|.|.|.|.|.|.|.S.z z z z z z z z z z z z z z z z z z z z z z z z I y.R R Q >   o m.(   - e.u f ",
") o B 2.X a v..   > T R K Y.|.|.|.|.|.|.|.|.|.|.j.z z z z z z z z z z z z z z z z z z z z z z z z I ~ K T R >   . 0.a X 2.B o ( ",
"u f 3..   Z 7.X   > K R T Y.|.|.|.|.|.|.|.|.|.|.j.z z z z z z z z z z z z z z z z z z z z z z z z m Q T K T >   O 7.Z   X 3.f r ",
"  r.:.o N V G ' o > R y.Q U.|.|.|.|.|.|.|.|.|.|.S.z z z z z z z z z z z z z z z z z z z z z z z z I y.R R y.> o ' G V N o :.r.  ",
"  6.{ o ' r _ ,.@ > R R K Z.|.|.|.|.|.|.|.|.|.|.T.z z z z z z z z z z z z z z z z z z z z z z z z Y R K T R > o } _ r ' o { 6.  ",
") r 8.5   } @.O   > K R T f.|.|.|.|.|.|.|.|.|.|.).b z z z z z z z z z z z z z z z z z z z z z z z ..R T K R >   O @.+.  6 7.r ) ",
"Z X G 2.. N 3..   > R y.R ^ |.|.|.|.|.|.|.|.|.|.}.&.z z z z z z z z z z z z z z z z z z z z z z n f.~ R R Q >   . 3.N o ,._ X Z ",
"; f n.    Z n..   > T R K T /.|.|.|.|.|.|.|.|.|.}.I.z z z z z z z z z z z z z z z z z z z z z z >.i.R K T R #   . e.Z     n.M ; ",
"  2.[   p ' $.f   > K R T K Z.|.|.|.|.|.|.|.|.|.}.}...z z z z z z z z z z z z z z z z z z z z n P.K T T K T >   f $.[ u   [ 2.  ",
"  ,.$.- ,.e k ,.; : R y.R R p.{.|.|.|.|.|.|.|.|.|.|.~.n z z z z z z z z z z z z z z z z z z z C.b.R Q R Q y.> ; ,.l e ,.- @.,.  ",
"u s 5.o X ' m.@   : T R K T Q H.|.|.|.|.|.|.|.|.|.}.}.I.z z z z z z z z z z z z z z z z z z h./.L R R K T R >   = n.' X X 4.d r ",
"( . l 4.X ( n.    > K Q L K R ~ ].}.|.|.|.|.|.|.|.|.|.|.U.b z z z z z z z z z z z z z z z j.}.z.T K R T K R >     e.Z X 6.l X ( ",
"f u 3.@   } ,.X   , Q Q R R Q R b.}.|.|.|.|.|.|.|.|.|.|.|.!.W z z z z z z z z z z z z b F.}.Y.~ R R Q R Q Q :     2.}   o 4.r f ",
"  ,.[   s f O.M   , T R K T R K T Y.}.|.|.|.|.|.|.|.|.|.|.|.].F.U z z z z z z z z m k.).}._.y.R K R R K T R >   N O.f f   [ ,.  ",
"  ,.M % ,.y B ,.= : K R T K R R L y.!.|.|.|.|.|.|.|.|.|.|.|.|.|.}.(.S.;.&.o.;.M.W.}.}.}.'.a.T T T K R T L T > = } S e ,.= B ,.  ",
"% f 8.    1.0.o   , T Q R R ~ R R y.~ !.|.}.|.|.|.|.|.|.|.|.|.|.|.|.|.|.}.}.|.|.}.|.}.'.f.R R y.R R y.R R y.:   o 0.2.    8.f % ",
"( # [ ( . f $.    : T Q K T R L T R K R U.}.|.|.|.|.|.|.|.|.|.|.|.|.|.|.|.|.|.|.|.}.^./ R K T R K T R K T R >     #.s . ) [ @ ) ",
") 6 :.u   y 9.X   : L R T K R T K R R K R f.`.}.|.|.|.|.|.|.|.|.|.|.|.|.|.|.|.}.{.Z.R L R T L R T L R T L R :   X 9.y   r 3.5 ] ",
"  2.:.  % 4.V C   3 T y.R T y.R T y.R R y.R y.K.`.|.|.|.|.|.|.|.|.|.|.|.|.|.{.Y.i.y.R R y.R T y.R R R R R y.:   C V 4.%   :.2.  ",
"  t.[   ,.5 j C f : T R K T R K T T K T y.K T T K l.Y.`.].}.}.{.|.}.{.].E.b.i.K T R K T Q K T T K T R K T R > f C j 6 ,.  { t.  ",
"- C 9.  o 5.[ f   , K R R K R T K y.T K T T K y.T K y.y.y.y.x.b.z.l.^ y.T K R T K Q T L R T K Q T L R T L T :   f [ 4.X   8.M - ",
"( . D }   p Q.X   , T Q R T y.R T y.y.T y.y.T y.T T y.T y.y.y.T y.R T y.R R y.R R Q R T Q T T ~ R R R R R Q >   . Q.y X } D . ) ",
"C r e.-   6 B.X   : T Q K T R K T T K T y.H T T K T y.K K y.H T R K T R K T R K T R K T R K T T K T R K T R :   . B.6   - e.r C ",
"  - 5     - * .   O q H T K R R K y.T K y.T K R T K T T K y.T K R R L R T L R T K R R K R T T Q T L R T v q O   X % -     5 -   ",
"            .         3 R T y.R T y.T T y.R T y.y.T y.y.T y.y.T y.R R y.R R y.T R Q R R Q T T ~ R R R T ,   .                   ",
"& 4 + 4 # + 9 + # 4 O < K T R K T y.K T T K T y.H T y.H T y.H T R K T R K T R K T R K T R K T T K T R K < O 4 # + 9 O < 4 + 4 # ",
". <   # +   4   . <   # x L R T K R T K y.T K R T K y.T K y.T K R T L R T L R T L R T L Q T L Q T L R x :   < O . 4   + <   < . ",
"@ + +                   # T Q R T y.T T y.R T y.R T y.R T y.R R y.T R y.T R y.T T ~ Q T ~ R T ~ R R R #                   + o @ ",
"&.X.| _ | | S S l j l F F / R K T R K T R K T T K T R K T R K T R K T R K T R K T T J T R K T T K T i.F S l j A S S | | F | o.&.",
";.o.| >.k.h.-.o.o.F | ;.*.*.R R T R T T R T K y.T K R T K y.R K R T L R T K R T T Q T L R T T Q T T d.>.;.| F  .o.&.h.k.;.| o.;.",
";.o.| ;.k.h.&.o.o.F | ;.>.X.p.R T y.R T y.T R y.R T y.T T y.R T y.R T y.R T y.R T ~ T T Q T T ~ T u.X.>.;.| F o.o.&.h.k.>.| X.;.",
"&.o.| ;.k.h.&.o. .F  .;.h.&.x.K T R K T R K T R K R R K T R K T R K T R K T R K T T K T R K R R K x.o.>.;. .F X.o.&.h.k.;. .o.;.",
"    .   +     +   . .   .   + L K y.T K y.R K R T K y.T K R R K R R K R T T R T T R T T R T T R T +   X   . .   +     +   .     ",
"+ 4 < + 7 & # 7 # < 7 + 7 : : P T y.T T y.T T y.T T y.T T y.T T y.R T y.R T y.T T ~ R T Q T T R P < < 9 + 4 < # 7 # # 7 + < 7 . ",
"  + +   < .   <   + +   # .   0 T R K T T K T R K T R K T R K T R K T R K T R K T R K T R K T R 0     &   + +   <   . <   + +   "
};
